{"glyphs":{"0":{"ha":1240,"x_min":0,"x_max":0,"o":"m 850 0 b 390 0 850 0 390 0 b 83 236 168 0 83 96 b 83 742 83 236 83 742 b 390 978 83 882 168 978 b 850 978 390 978 850 978 b 1157 742 1072 978 1157 882 b 1157 236 1157 742 1157 236 b 850 0 1157 96 1072 0 z m 972 235 b 972 743 972 235 972 743 b 850 833 972 801 933 833 b 390 833 850 833 390 833 b 268 743 307 833 268 801 b 268 235 268 743 268 235 b 390 144 268 176 307 144 b 850 144 390 144 850 144 b 972 235 933 144 972 176 z "},"1":{"ha":546,"x_min":0,"x_max":0,"o":"m 454 0 b 269 0 454 0 269 0 b 269 840 269 0 269 840 b 201 763 269 840 201 763 b 7 763 201 763 7 763 b 197 978 7 763 197 978 b 454 978 197 978 454 978 b 454 0 454 978 454 0 z "},"2":{"ha":1164,"x_min":0,"x_max":0,"o":"m 1085 0 b 74 0 1085 0 74 0 b 74 357 74 0 74 357 b 381 593 74 497 158 593 b 778 593 381 593 778 593 b 900 683 861 593 900 625 b 900 743 900 683 900 743 b 778 833 900 801 861 833 b 126 833 778 833 126 833 b 126 978 126 833 126 978 b 778 978 126 978 778 978 b 1085 742 1000 978 1085 882 b 1085 685 1085 742 1085 685 b 778 449 1085 544 1000 449 b 381 449 778 449 381 449 b 258 358 297 449 258 417 b 258 144 258 358 258 144 b 1085 144 258 144 1085 144 b 1085 0 1085 144 1085 0 z "},"3":{"ha":1124,"x_min":0,"x_max":0,"o":"m 731 0 b 75 0 731 0 75 0 b 75 144 75 0 75 144 b 731 144 75 144 731 144 b 856 246 804 144 856 167 b 856 368 856 246 856 368 b 731 451 856 429 804 451 b 117 451 731 451 117 451 b 117 596 117 451 117 596 b 728 596 117 596 728 596 b 843 672 814 596 843 618 b 843 757 843 672 843 757 b 728 833 843 811 814 833 b 75 833 728 833 75 833 b 75 978 75 833 75 978 b 728 978 75 978 728 978 b 1028 767 944 978 1028 897 b 1028 693 1028 767 1028 693 b 913 531 1028 608 982 544 b 1040 371 986 511 1040 465 b 1040 211 1040 371 1040 211 b 731 0 1040 100 972 0 z "},"4":{"ha":1224,"x_min":0,"x_max":0,"o":"m 1089 0 b 904 0 1089 0 904 0 b 904 167 904 0 904 167 b 22 167 904 167 22 167 b 22 283 22 167 22 283 b 539 978 22 283 539 978 b 739 978 539 978 739 978 b 242 311 739 978 242 311 b 904 311 242 311 904 311 b 904 978 904 311 904 978 b 1089 978 904 978 1089 978 b 1089 311 1089 978 1089 311 b 1192 311 1089 311 1192 311 b 1192 167 1192 311 1192 167 b 1089 167 1192 167 1089 167 b 1089 0 1089 167 1089 0 z "},"5":{"ha":1160,"x_min":0,"x_max":0,"o":"m 783 0 b 85 0 783 0 85 0 b 85 144 85 0 85 144 b 783 144 85 144 783 144 b 906 235 867 144 906 176 b 906 410 906 235 906 410 b 783 500 906 468 867 500 b 85 500 783 500 85 500 b 85 978 85 500 85 978 b 1058 978 85 978 1058 978 b 1058 833 1058 978 1058 833 b 269 833 1058 833 269 833 b 269 644 269 833 269 644 b 783 644 269 644 783 644 b 1090 408 1006 644 1090 549 b 1090 236 1090 408 1090 236 b 783 0 1090 96 1006 0 z "},"6":{"ha":1271,"x_min":0,"x_max":0,"o":"m 885 0 b 390 0 885 0 390 0 b 83 236 168 0 83 96 b 83 742 83 236 83 742 b 390 978 83 882 168 978 b 1146 978 390 978 1146 978 b 1146 833 1146 978 1146 833 b 390 833 1146 833 390 833 b 268 743 307 833 268 801 b 268 631 268 743 268 631 b 885 631 268 631 885 631 b 1192 394 1107 631 1192 535 b 1192 236 1192 394 1192 236 b 885 0 1192 96 1107 0 z m 1007 235 b 1007 396 1007 235 1007 396 b 885 486 1007 454 968 486 b 268 486 885 486 268 486 b 268 235 268 486 268 235 b 390 144 268 176 307 144 b 885 144 390 144 885 144 b 1007 235 968 144 1007 176 z "},"7":{"ha":1167,"x_min":0,"x_max":0,"o":"m 489 0 b 279 0 489 0 279 0 b 932 833 279 0 932 833 b 46 833 932 833 46 833 b 46 978 46 833 46 978 b 1140 978 46 978 1140 978 b 1140 861 1140 978 1140 861 b 489 0 1140 861 489 0 z "},"8":{"ha":1279,"x_min":0,"x_max":0,"o":"m 886 0 b 393 0 886 0 393 0 b 83 211 151 0 83 100 b 83 371 83 211 83 371 b 211 531 83 465 138 511 b 96 693 142 544 96 608 b 96 767 96 693 96 767 b 396 978 96 897 179 978 b 883 978 396 978 883 978 b 1183 767 1100 978 1183 897 b 1183 693 1183 767 1183 693 b 1068 531 1183 608 1138 544 b 1196 371 1142 511 1196 465 b 1196 211 1196 371 1196 211 b 886 0 1196 100 1128 0 z m 1011 246 b 1011 368 1011 246 1011 368 b 886 451 1011 429 960 451 b 393 451 886 451 393 451 b 268 368 319 451 268 429 b 268 246 268 368 268 246 b 393 144 268 167 319 144 b 886 144 393 144 886 144 b 1011 246 960 144 1011 167 z m 999 672 b 999 757 999 672 999 757 b 883 833 999 811 969 833 b 396 833 883 833 396 833 b 281 757 310 833 281 811 b 281 672 281 757 281 672 b 396 596 281 618 310 596 b 883 596 396 596 883 596 b 999 672 969 596 999 618 z "},"9":{"ha":1275,"x_min":0,"x_max":0,"o":"m 885 0 b 136 0 885 0 136 0 b 136 144 136 0 136 144 b 885 144 136 144 885 144 b 1007 235 968 144 1007 176 b 1007 372 1007 235 1007 372 b 390 372 1007 372 390 372 b 83 608 168 372 83 468 b 83 742 83 608 83 742 b 390 978 83 882 168 978 b 885 978 390 978 885 978 b 1192 742 1107 978 1192 882 b 1192 236 1192 742 1192 236 b 885 0 1192 96 1107 0 z m 1007 517 b 1007 743 1007 517 1007 743 b 885 833 1007 801 968 833 b 390 833 885 833 390 833 b 268 743 307 833 268 801 b 268 607 268 743 268 607 b 390 517 268 549 307 517 b 1007 517 390 517 1007 517 z "},"\u0000":{"ha":635,"x_min":0,"x_max":0,"o":"m 28 938 b 28 0 28 938 28 0 b 607 0 28 0 607 0 b 607 938 607 0 607 938 b 28 938 607 938 28 938 z m 94 67 b 94 871 94 67 94 871 b 539 871 94 871 539 871 b 539 67 539 871 539 67 b 94 67 539 67 94 67 z "}," ":{"ha":694,"x_min":0,"x_max":0,"o":""},"!":{"ha":381,"x_min":0,"x_max":0,"o":"m 271 0 b 108 0 271 0 108 0 b 108 181 108 0 108 181 b 271 181 108 181 271 181 b 271 0 271 181 271 0 z m 254 278 b 125 278 254 278 125 278 b 83 978 125 278 83 978 b 296 978 83 978 296 978 b 254 278 296 978 254 278 z "},"\"":{"ha":574,"x_min":0,"x_max":0,"o":"m 175 667 b 132 667 175 667 132 667 b 83 811 132 667 83 811 b 83 978 83 811 83 978 b 228 978 83 978 228 978 b 228 810 228 978 228 810 b 175 667 228 810 175 667 z m 435 667 b 375 667 435 667 375 667 b 336 814 375 667 336 814 b 336 978 336 814 336 978 b 479 978 336 978 479 978 b 479 814 479 978 479 814 b 435 667 479 814 435 667 z "},"#":{"ha":819,"x_min":0,"x_max":0,"o":"m 490 411 b 490 583 490 411 490 583 b 338 583 490 583 338 583 b 338 411 338 583 338 411 b 490 411 338 411 490 411 z m 615 0 b 490 0 615 0 490 0 b 490 286 490 0 490 286 b 338 286 490 286 338 286 b 338 0 338 286 338 0 b 213 0 338 0 213 0 b 213 286 213 0 213 286 b 74 286 213 286 74 286 b 74 411 74 286 74 411 b 213 411 74 411 213 411 b 213 583 213 411 213 583 b 74 583 213 583 74 583 b 74 708 74 583 74 708 b 213 708 74 708 213 708 b 213 978 213 708 213 978 b 338 978 213 978 338 978 b 338 708 338 978 338 708 b 490 708 338 708 490 708 b 490 978 490 708 490 978 b 615 978 490 978 615 978 b 615 708 615 978 615 708 b 754 708 615 708 754 708 b 754 583 754 708 754 583 b 615 583 754 583 615 583 b 615 411 615 583 615 411 b 754 411 615 411 754 411 b 754 286 754 411 754 286 b 615 286 754 286 615 286 b 615 0 615 286 615 0 z "},"$":{"ha":811,"x_min":0,"x_max":0,"o":"m 494 0 b 349 0 494 0 349 0 b 349 160 349 0 349 160 b 92 160 349 160 92 160 b 92 294 92 160 92 294 b 532 294 92 294 532 294 b 601 342 581 294 601 311 b 601 390 601 342 601 390 b 532 438 601 419 581 438 b 303 438 532 438 303 438 b 68 622 132 438 68 513 b 68 661 68 622 68 661 b 303 844 68 769 132 844 b 349 844 303 844 349 844 b 349 978 349 844 349 978 b 494 978 349 978 494 978 b 494 844 494 978 494 844 b 726 844 494 844 726 844 b 726 710 726 844 726 710 b 303 710 726 710 303 710 b 231 663 253 710 231 693 b 231 621 231 663 231 621 b 303 572 231 590 253 572 b 532 572 303 572 532 572 b 765 389 701 572 765 497 b 765 343 765 389 765 343 b 532 160 765 235 701 160 b 494 160 532 160 494 160 b 494 0 494 160 494 0 z "},"%":{"ha":1419,"x_min":0,"x_max":0,"o":"m 467 503 b 236 503 467 503 236 503 b 83 621 125 503 83 550 b 83 874 83 621 83 874 b 236 992 83 943 125 992 b 467 992 236 992 467 992 b 619 874 578 992 619 943 b 619 621 619 874 619 621 b 467 503 619 550 578 503 z m 528 619 b 528 874 528 619 528 874 b 467 919 528 903 508 919 b 236 919 467 919 236 919 b 175 874 194 919 175 903 b 175 619 175 874 175 619 b 236 575 175 590 194 575 b 467 575 236 575 467 575 b 528 619 508 575 528 590 z m 264 -42 b 150 -42 264 -42 150 -42 b 1154 1033 150 -42 1154 1033 b 1269 1033 1154 1033 1269 1033 b 264 -42 1269 1033 264 -42 z m 1183 -14 b 953 -14 1183 -14 953 -14 b 800 104 842 -14 800 33 b 800 357 800 104 800 357 b 953 475 800 426 842 475 b 1183 475 953 475 1183 475 b 1336 357 1294 475 1336 426 b 1336 104 1336 357 1336 104 b 1183 -14 1336 33 1294 -14 z m 1244 103 b 1244 357 1244 103 1244 357 b 1183 403 1244 386 1225 403 b 953 403 1183 403 953 403 b 892 357 911 403 892 386 b 892 103 892 357 892 103 b 953 58 892 74 911 58 b 1183 58 953 58 1183 58 b 1244 103 1225 58 1244 74 z "},"&":{"ha":1149,"x_min":0,"x_max":0,"o":"m 1008 0 b 393 0 1008 0 393 0 b 83 211 151 0 83 100 b 83 371 83 211 83 371 b 211 531 83 465 138 511 b 96 693 142 544 96 608 b 96 767 96 693 96 767 b 396 978 96 897 179 978 b 839 978 396 978 839 978 b 839 833 839 978 839 833 b 396 833 839 833 396 833 b 281 757 310 833 281 811 b 281 672 281 757 281 672 b 396 596 281 618 310 596 b 1128 596 396 596 1128 596 b 1128 451 1128 596 1128 451 b 1008 451 1128 451 1008 451 b 1008 0 1008 451 1008 0 z m 824 144 b 824 451 824 144 824 451 b 393 451 824 451 393 451 b 268 368 319 451 268 429 b 268 246 268 368 268 246 b 393 144 268 167 319 144 b 824 144 393 144 824 144 z "},"'":{"ha":349,"x_min":0,"x_max":0,"o":"m 204 667 b 132 667 204 667 132 667 b 83 811 132 667 83 811 b 83 978 83 811 83 978 b 254 978 83 978 254 978 b 254 810 254 978 254 810 b 204 667 254 810 204 667 z "},"(":{"ha":418,"x_min":0,"x_max":0,"o":"m 404 -151 b 276 -151 404 -151 276 -151 b 111 493 160 79 111 281 b 272 1131 111 700 167 907 b 401 1131 272 1131 401 1131 b 226 492 285 892 226 679 b 404 -151 226 297 279 94 z "},")":{"ha":418,"x_min":0,"x_max":0,"o":"m 142 -151 b 14 -151 142 -151 14 -151 b 192 492 139 94 192 297 b 17 1131 192 679 133 892 b 146 1131 17 1131 146 1131 b 307 493 251 907 307 700 b 142 -151 307 281 258 79 z "},"*":{"ha":590,"x_min":0,"x_max":0,"o":"m 486 617 b 374 539 486 617 374 539 b 296 689 374 539 296 689 b 207 540 296 689 207 540 b 100 619 207 540 100 619 b 226 740 100 619 226 740 b 46 782 226 740 46 782 b 88 893 46 782 88 893 b 250 818 88 893 250 818 b 224 989 250 818 224 989 b 364 989 224 989 364 989 b 342 817 364 989 342 817 b 507 892 342 817 507 892 b 543 779 507 892 543 779 b 361 743 543 779 361 743 b 486 617 361 743 486 617 z "},"+":{"ha":754,"x_min":0,"x_max":0,"o":"m 428 183 b 325 183 428 183 325 183 b 325 453 325 183 325 453 b 56 453 325 453 56 453 b 56 556 56 453 56 556 b 325 556 56 556 325 556 b 325 825 325 556 325 825 b 428 825 325 825 428 825 b 428 556 428 825 428 556 b 697 556 428 556 697 556 b 697 453 697 556 697 453 b 428 453 697 453 428 453 b 428 183 428 453 428 183 z "},",":{"ha":374,"x_min":0,"x_max":0,"o":"m 157 -101 b 83 -101 157 -101 83 -101 b 83 181 83 -101 83 181 b 274 181 83 181 274 181 b 274 97 274 181 274 97 b 157 -101 274 97 157 -101 z "},"-":{"ha":579,"x_min":0,"x_max":0,"o":"m 549 446 b 29 446 549 446 29 446 b 29 600 29 446 29 600 b 549 600 29 600 549 600 b 549 446 549 600 549 446 z "},".":{"ha":396,"x_min":0,"x_max":0,"o":"m 301 0 b 83 0 301 0 83 0 b 83 181 83 0 83 181 b 301 181 83 181 301 181 b 301 0 301 181 301 0 z "},"/":{"ha":675,"x_min":0,"x_max":0,"o":"m 132 -56 b 10 -56 132 -56 10 -56 b 549 1033 10 -56 549 1033 b 671 1033 549 1033 671 1033 b 132 -56 671 1033 132 -56 z "},":":{"ha":351,"x_min":0,"x_max":0,"o":"m 271 556 b 81 556 271 556 81 556 b 81 736 81 556 81 736 b 271 736 81 736 271 736 b 271 556 271 736 271 556 z m 271 0 b 81 0 271 0 81 0 b 81 181 81 0 81 181 b 271 181 81 181 271 181 b 271 0 271 181 271 0 z "},";":{"ha":367,"x_min":0,"x_max":0,"o":"m 278 556 b 88 556 278 556 88 556 b 88 736 88 556 88 736 b 278 736 88 736 278 736 b 278 556 278 736 278 556 z m 161 -101 b 88 -101 161 -101 88 -101 b 88 181 88 -101 88 181 b 278 181 88 181 278 181 b 278 97 278 181 278 97 b 161 -101 278 97 161 -101 z "},"<":{"ha":746,"x_min":0,"x_max":0,"o":"m 657 128 b 88 460 657 128 88 460 b 88 551 88 460 88 551 b 657 879 88 551 657 879 b 657 758 657 879 657 758 b 208 504 657 758 208 504 b 657 249 208 504 657 249 b 657 128 657 249 657 128 z "},"=":{"ha":746,"x_min":0,"x_max":0,"o":"m 697 592 b 56 592 697 592 56 592 b 56 694 56 592 56 694 b 697 694 56 694 697 694 b 697 592 697 694 697 592 z m 697 314 b 56 314 697 314 56 314 b 56 417 56 314 56 417 b 697 417 56 417 697 417 b 697 314 697 417 697 314 z "},">":{"ha":746,"x_min":0,"x_max":0,"o":"m 657 460 b 88 128 657 460 88 128 b 88 249 88 128 88 249 b 536 504 88 249 536 504 b 88 758 536 504 88 758 b 88 879 88 758 88 879 b 657 551 88 879 657 551 b 657 460 657 551 657 460 z "},"?":{"ha":935,"x_min":0,"x_max":0,"o":"m 915 742 b 915 685 915 742 915 685 b 608 449 915 544 831 449 b 457 449 608 449 457 449 b 335 358 374 449 335 417 b 335 272 335 358 335 272 b 178 272 335 272 178 272 b 178 357 178 272 178 357 b 486 593 178 497 264 593 b 608 593 486 593 608 593 b 731 683 692 593 731 625 b 731 743 731 683 731 743 b 608 833 731 801 692 833 b 64 833 608 833 64 833 b 64 978 64 833 64 978 b 608 978 64 978 608 978 b 915 742 831 978 915 882 z m 335 0 b 178 0 335 0 178 0 b 178 181 178 0 178 181 b 335 181 178 181 335 181 b 335 0 335 181 335 0 z "},"@":{"ha":1244,"x_min":0,"x_max":0,"o":"m 1156 -200 b 390 -200 1156 -200 390 -200 b 83 36 168 -200 83 -104 b 83 742 83 36 83 742 b 390 978 83 882 168 978 b 854 978 390 978 854 978 b 1161 742 1076 978 1161 882 b 1161 346 1161 742 1161 346 b 854 110 1161 206 1076 110 b 732 110 854 110 732 110 b 425 346 510 110 425 206 b 425 439 425 346 425 439 b 732 675 425 579 510 675 b 976 675 732 675 976 675 b 976 743 976 675 976 743 b 854 833 976 801 938 833 b 390 833 854 833 390 833 b 268 743 307 833 268 801 b 268 35 268 743 268 35 b 390 -56 268 -24 307 -56 b 1156 -56 390 -56 1156 -56 b 1156 -200 1156 -56 1156 -200 z m 976 344 b 976 531 976 344 976 531 b 732 531 976 531 732 531 b 610 440 649 531 610 499 b 610 344 610 440 610 344 b 732 254 610 286 649 254 b 854 254 732 254 854 254 b 976 344 938 254 976 286 z "},"A":{"ha":1431,"x_min":0,"x_max":0,"o":"m 1431 0 b 1222 0 1431 0 1222 0 b 718 788 1222 0 718 788 b -364 -833 718 788 -364 -833 b -553 -833 -364 -833 -553 -833 b 650 978 -553 -833 650 978 b 785 978 650 978 785 978 b 1431 0 785 978 1431 0 z m 317 374 b 413 501 317 374 413 501 b 1008 510 413 501 1008 510 b 1113 371 1008 510 1113 371 b 317 374 1113 371 317 374 z "},"B":{"ha":1282,"x_min":0,"x_max":0,"o":"m 889 0 b 90 0 889 0 90 0 b 90 978 90 0 90 978 b 886 978 90 978 886 978 b 1186 767 1103 978 1186 897 b 1186 676 1186 767 1186 676 b 1071 514 1186 592 1140 528 b 1199 354 1144 494 1199 449 b 1199 211 1199 354 1199 211 b 889 0 1199 100 1131 0 z m 1014 246 b 1014 351 1014 246 1014 351 b 889 435 1014 413 963 435 b 275 435 889 435 275 435 b 275 144 275 435 275 144 b 889 144 275 144 889 144 b 1014 246 963 144 1014 167 z m 1001 656 b 1001 757 1001 656 1001 757 b 886 833 1001 811 972 833 b 275 833 886 833 275 833 b 275 579 275 833 275 579 b 886 579 275 579 886 579 b 1001 656 972 579 1001 601 z "},"C":{"ha":1243,"x_min":0,"x_max":0,"o":"m 1178 0 b 390 0 1178 0 390 0 b 83 236 168 0 83 96 b 83 742 83 236 83 742 b 390 978 83 882 168 978 b 1178 978 390 978 1178 978 b 1178 833 1178 978 1178 833 b 390 833 1178 833 390 833 b 268 743 307 833 268 801 b 268 235 268 743 268 235 b 390 144 268 176 307 144 b 1178 144 390 144 1178 144 b 1178 0 1178 144 1178 0 z "},"D":{"ha":1431,"x_min":0,"x_max":0,"o":"m 986 0 b 90 0 986 0 90 0 b 90 978 90 0 90 978 b 986 978 90 978 986 978 b 1347 689 1263 978 1347 882 b 1347 279 1347 689 1347 279 b 986 0 1347 96 1263 0 z m 1163 281 b 1163 689 1163 281 1163 689 b 986 833 1163 801 1124 833 b 275 833 986 833 275 833 b 275 144 275 833 275 144 b 986 144 275 144 986 144 b 1163 281 1124 144 1163 176 z "},"E":{"ha":1163,"x_min":0,"x_max":0,"o":"m 1096 0 b 90 0 1096 0 90 0 b 90 978 90 0 90 978 b 1096 978 90 978 1096 978 b 1096 833 1096 978 1096 833 b 275 833 1096 833 275 833 b 275 589 275 833 275 589 b 1054 589 275 589 1054 589 b 1054 444 1054 589 1054 444 b 275 444 1054 444 275 444 b 275 144 275 444 275 144 b 1096 144 275 144 1096 144 b 1096 0 1096 144 1096 0 z "},"F":{"ha":1106,"x_min":0,"x_max":0,"o":"m 1040 403 b 275 403 1040 403 275 403 b 275 0 275 403 275 0 b 90 0 275 0 90 0 b 90 978 90 0 90 978 b 1096 978 90 978 1096 978 b 1096 833 1096 978 1096 833 b 275 833 1096 833 275 833 b 275 547 275 833 275 547 b 1040 547 275 547 1040 547 b 1040 403 1040 547 1040 403 z "},"G":{"ha":1293,"x_min":0,"x_max":0,"o":"m 864 0 b 432 0 864 0 432 0 b 83 211 200 0 83 71 b 83 767 83 211 83 767 b 432 978 83 907 200 978 b 1197 978 432 978 1197 978 b 1197 833 1197 978 1197 833 b 432 833 1197 833 432 833 b 268 767 322 833 268 811 b 268 211 268 767 268 211 b 432 144 268 167 322 144 b 864 144 432 144 864 144 b 1028 208 974 144 1028 165 b 1028 533 1028 208 1028 533 b 1213 533 1028 533 1213 533 b 1213 208 1213 533 1213 208 b 864 0 1213 69 1096 0 z "},"H":{"ha":1350,"x_min":0,"x_max":0,"o":"m 1260 0 b 1075 0 1260 0 1075 0 b 1075 444 1075 0 1075 444 b 275 444 1075 444 275 444 b 275 0 275 444 275 0 b 90 0 275 0 90 0 b 90 978 90 0 90 978 b 275 978 90 978 275 978 b 275 589 275 978 275 589 b 1075 589 275 589 1075 589 b 1075 978 1075 589 1075 978 b 1260 978 1075 978 1260 978 b 1260 0 1260 978 1260 0 z "},"I":{"ha":379,"x_min":0,"x_max":0,"o":"m 282 0 b 97 0 282 0 97 0 b 97 978 97 0 97 978 b 282 978 97 978 282 978 b 282 0 282 978 282 0 z "},"J":{"ha":672,"x_min":0,"x_max":0,"o":"m 281 0 b 13 0 281 0 13 0 b 13 144 13 0 13 144 b 281 144 13 144 281 144 b 401 208 365 144 401 165 b 401 978 401 208 401 978 b 586 978 401 978 586 978 b 586 208 586 978 586 208 b 281 0 586 88 497 0 z "},"K":{"ha":1193,"x_min":0,"x_max":0,"o":"m 1175 0 b 963 0 1175 0 963 0 b 593 436 963 0 593 436 b 275 436 593 436 275 436 b 275 0 275 436 275 0 b 90 0 275 0 90 0 b 90 978 90 0 90 978 b 275 978 90 978 275 978 b 275 581 275 978 275 581 b 589 581 275 581 589 581 b 957 978 589 581 957 978 b 1176 978 957 978 1176 978 b 742 522 1176 978 742 522 b 1175 0 742 522 1175 0 z "},"L":{"ha":1108,"x_min":0,"x_max":0,"o":"m 1069 0 b 90 0 1069 0 90 0 b 90 978 90 0 90 978 b 276 978 90 978 276 978 b 276 144 276 978 276 144 b 1069 144 276 144 1069 144 b 1069 0 1069 144 1069 0 z "},"M":{"ha":1669,"x_min":0,"x_max":0,"o":"m 1579 0 b 1408 0 1579 0 1408 0 b 1408 685 1408 0 1408 685 b 911 0 1408 685 911 0 b 760 0 911 0 760 0 b 261 683 760 0 261 683 b 261 0 261 683 261 0 b 90 0 261 0 90 0 b 90 978 90 0 90 978 b 263 978 90 978 263 978 b 843 179 263 978 843 179 b 1421 978 843 179 1421 978 b 1579 978 1421 978 1579 978 b 1579 0 1579 978 1579 0 z "},"N":{"ha":1475,"x_min":0,"x_max":0,"o":"m 1385 0 b 1294 0 1385 0 1294 0 b 251 761 1294 0 251 761 b 251 0 251 761 251 0 b 90 0 251 0 90 0 b 90 978 90 0 90 978 b 250 978 90 978 250 978 b 1224 251 250 978 1224 251 b 1224 978 1224 251 1224 978 b 1385 978 1224 978 1385 978 b 1385 0 1385 978 1385 0 z "},"O":{"ha":1426,"x_min":0,"x_max":0,"o":"m 1036 0 b 390 0 1036 0 390 0 b 83 236 168 0 83 96 b 83 742 83 236 83 742 b 390 978 83 882 168 978 b 1036 978 390 978 1036 978 b 1343 742 1258 978 1343 882 b 1343 236 1343 742 1343 236 b 1036 0 1343 96 1258 0 z m 1158 235 b 1158 743 1158 235 1158 743 b 1036 833 1158 801 1119 833 b 390 833 1036 833 390 833 b 268 743 307 833 268 801 b 268 235 268 743 268 235 b 390 144 268 176 307 144 b 1036 144 390 144 1036 144 b 1158 235 1119 144 1158 176 z "},"P":{"ha":1238,"x_min":0,"x_max":0,"o":"m 892 361 b 275 361 892 361 275 361 b 275 0 275 361 275 0 b 90 0 275 0 90 0 b 90 978 90 0 90 978 b 892 978 90 978 892 978 b 1199 742 1114 978 1199 882 b 1199 597 1199 742 1199 597 b 892 361 1199 457 1114 361 z m 1014 596 b 1014 743 1014 596 1014 743 b 892 833 1014 801 975 833 b 275 833 892 833 275 833 b 275 506 275 833 275 506 b 892 506 275 506 892 506 b 1014 596 975 506 1014 538 z "},"Q":{"ha":1426,"x_min":0,"x_max":0,"o":"m 1211 -217 b 1014 -217 1211 -217 1014 -217 b 896 0 1014 -217 896 0 b 390 0 896 0 390 0 b 83 236 168 0 83 96 b 83 742 83 236 83 742 b 390 978 83 882 168 978 b 1036 978 390 978 1036 978 b 1343 742 1258 978 1343 882 b 1343 236 1343 742 1343 236 b 1086 1 1343 107 1271 15 b 1211 -217 1086 1 1211 -217 z m 1158 235 b 1158 743 1158 235 1158 743 b 1036 833 1158 801 1119 833 b 390 833 1036 833 390 833 b 268 743 307 833 268 801 b 268 235 268 743 268 235 b 390 144 268 176 307 144 b 1036 144 390 144 1036 144 b 1158 235 1119 144 1158 176 z "},"R":{"ha":1286,"x_min":0,"x_max":0,"o":"m 1217 0 b 1019 0 1217 0 1019 0 b 790 436 1019 0 790 436 b 275 436 790 436 275 436 b 275 0 275 436 275 0 b 90 0 275 0 90 0 b 90 978 90 0 90 978 b 921 978 90 978 921 978 b 1228 742 1143 978 1228 882 b 1228 672 1228 742 1228 672 b 986 439 1228 546 1160 456 b 1217 0 986 439 1217 0 z m 1043 671 b 1043 743 1043 671 1043 743 b 921 833 1043 801 1004 833 b 275 833 921 833 275 833 b 275 581 275 833 275 581 b 921 581 275 581 921 581 b 1043 671 1004 581 1043 613 z "},"S":{"ha":1321,"x_min":0,"x_max":0,"o":"m 953 0 b 103 0 953 0 103 0 b 103 144 103 0 103 144 b 953 144 103 144 953 144 b 1075 235 1036 144 1075 176 b 1075 358 1075 235 1075 358 b 953 449 1075 417 1036 449 b 378 449 953 449 378 449 b 71 685 156 449 71 544 b 71 742 71 685 71 742 b 378 978 71 882 156 978 b 1206 978 378 978 1206 978 b 1206 833 1206 978 1206 833 b 378 833 1206 833 378 833 b 256 743 294 833 256 801 b 256 683 256 743 256 683 b 378 593 256 625 294 593 b 953 593 378 593 953 593 b 1260 357 1175 593 1260 497 b 1260 236 1260 357 1260 236 b 953 0 1260 96 1175 0 z "},"T":{"ha":1261,"x_min":0,"x_max":0,"o":"m 729 0 b 544 0 729 0 544 0 b 544 833 544 0 544 833 b 32 833 544 833 32 833 b 32 978 32 833 32 978 b 1228 978 32 978 1228 978 b 1228 833 1228 978 1228 833 b 729 833 1228 833 729 833 b 729 0 729 833 729 0 z "},"U":{"ha":1393,"x_min":0,"x_max":0,"o":"m 1039 0 b 393 0 1039 0 393 0 b 86 236 171 0 86 96 b 86 978 86 236 86 978 b 271 978 86 978 271 978 b 271 235 271 978 271 235 b 393 144 271 176 310 144 b 1000 144 393 144 1000 144 b 1122 235 1083 144 1122 176 b 1122 978 1122 235 1122 978 b 1307 978 1122 978 1307 978 b 1307 236 1307 978 1307 236 b 1039 0 1307 96 1261 0 z "},"V":{"ha":1431,"x_min":0,"x_max":0,"o":"m 785 0 b 650 0 785 0 650 0 b 0 978 650 0 0 978 b 210 978 0 978 210 978 b 721 190 210 978 721 190 b 1226 978 721 190 1226 978 b 1431 978 1226 978 1431 978 b 785 0 1431 978 785 0 z "},"W":{"ha":1860,"x_min":0,"x_max":0,"o":"m 1408 0 b 1269 0 1408 0 1269 0 b 931 750 1269 0 931 750 b 585 0 931 750 585 0 b 450 0 585 0 450 0 b 0 978 450 0 0 978 b 178 978 0 978 178 978 b 518 228 178 978 518 228 b 861 978 518 228 861 978 b 999 978 861 978 999 978 b 1338 228 999 978 1338 228 b 1681 978 1338 228 1681 978 b 1860 978 1681 978 1860 978 b 1408 0 1860 978 1408 0 z "},"X":{"ha":1383,"x_min":0,"x_max":0,"o":"m 1367 0 b 1128 0 1367 0 1128 0 b 692 390 1128 0 692 390 b 258 0 692 390 258 0 b 17 0 258 0 17 0 b 575 489 17 0 575 489 b 17 978 575 489 17 978 b 257 978 17 978 257 978 b 692 586 257 978 692 586 b 1126 978 692 586 1126 978 b 1364 978 1126 978 1364 978 b 810 496 1364 978 810 496 b 1367 0 810 496 1367 0 z "},"Y":{"ha":1436,"x_min":0,"x_max":0,"o":"m 813 0 b 628 0 813 0 628 0 b 628 397 628 0 628 397 b 0 978 628 397 0 978 b 236 978 0 978 236 978 b 719 531 236 978 719 531 b 1203 978 719 531 1203 978 b 1436 978 1203 978 1436 978 b 813 397 1436 978 813 397 b 813 0 813 397 813 0 z "},"Z":{"ha":1432,"x_min":0,"x_max":0,"o":"m 1381 0 b 67 0 1381 0 67 0 b 67 125 67 0 67 125 b 1056 819 67 125 1056 819 b 67 819 1056 819 67 819 b 67 978 67 819 67 978 b 1381 978 67 978 1381 978 b 1381 853 1381 978 1381 853 b 388 158 1381 853 388 158 b 1381 158 388 158 1381 158 b 1381 0 1381 158 1381 0 z "},"[":{"ha":378,"x_min":0,"x_max":0,"o":"m 340 -153 b 108 -153 340 -153 108 -153 b 108 1131 108 -153 108 1131 b 340 1131 108 1131 340 1131 b 340 1028 340 1131 340 1028 b 238 1028 340 1028 238 1028 b 238 -53 238 1028 238 -53 b 340 -53 238 -53 340 -53 b 340 -153 340 -53 340 -153 z "},"\\":{"ha":675,"x_min":0,"x_max":0,"o":"m 671 -56 b 549 -56 671 -56 549 -56 b 10 1033 549 -56 10 1033 b 132 1033 10 1033 132 1033 b 671 -56 132 1033 671 -56 z "},"]":{"ha":375,"x_min":0,"x_max":0,"o":"m 267 -153 b 35 -153 267 -153 35 -153 b 35 -53 35 -153 35 -53 b 138 -53 35 -53 138 -53 b 138 1028 138 -53 138 1028 b 35 1028 138 1028 35 1028 b 35 1131 35 1028 35 1131 b 267 1131 35 1131 267 1131 b 267 -153 267 1131 267 -153 z "},"^":{"ha":893,"x_min":0,"x_max":0,"o":"m 818 408 b 697 408 818 408 697 408 b 443 857 697 408 443 857 b 188 408 443 857 188 408 b 67 408 188 408 67 408 b 399 978 67 408 399 978 b 490 978 399 978 490 978 b 818 408 490 978 818 408 z "},"_":{"ha":904,"x_min":0,"x_max":0,"o":"m 904 -194 b 0 -194 904 -194 0 -194 b 0 -78 0 -194 0 -78 b 904 -78 0 -78 904 -78 b 904 -194 904 -78 904 -194 z "},"`":{"ha":594,"x_min":0,"x_max":0,"o":"m 525 1049 b 69 1103 525 1049 69 1103 b 69 1260 69 1103 69 1260 b 525 1164 69 1260 525 1164 b 525 1049 525 1164 525 1049 z "},"a":{"ha":1431,"x_min":0,"x_max":0,"o":"m 1431 0 b 1222 0 1431 0 1222 0 b 718 788 1222 0 718 788 b 206 0 718 788 206 0 b 0 0 206 0 0 0 b 650 978 0 0 650 978 b 785 978 650 978 785 978 b 1431 0 785 978 1431 0 z "},"b":{"ha":1282,"x_min":0,"x_max":0,"o":"m 889 0 b 90 0 889 0 90 0 b 90 978 90 0 90 978 b 886 978 90 978 886 978 b 1186 767 1103 978 1186 897 b 1186 676 1186 767 1186 676 b 1071 514 1186 592 1140 528 b 1199 354 1144 494 1199 449 b 1199 211 1199 354 1199 211 b 889 0 1199 100 1131 0 z m 1014 246 b 1014 351 1014 246 1014 351 b 889 435 1014 413 963 435 b 275 435 889 435 275 435 b 275 144 275 435 275 144 b 889 144 275 144 889 144 b 1014 246 963 144 1014 167 z m 1001 656 b 1001 757 1001 656 1001 757 b 886 833 1001 811 972 833 b 275 833 886 833 275 833 b 275 579 275 833 275 579 b 886 579 275 579 886 579 b 1001 656 972 579 1001 601 z "},"c":{"ha":1243,"x_min":0,"x_max":0,"o":"m 1178 0 b 390 0 1178 0 390 0 b 83 236 168 0 83 96 b 83 742 83 236 83 742 b 390 978 83 882 168 978 b 1178 978 390 978 1178 978 b 1178 833 1178 978 1178 833 b 390 833 1178 833 390 833 b 268 743 307 833 268 801 b 268 235 268 743 268 235 b 390 144 268 176 307 144 b 1178 144 390 144 1178 144 b 1178 0 1178 144 1178 0 z "},"d":{"ha":1431,"x_min":0,"x_max":0,"o":"m 986 0 b 90 0 986 0 90 0 b 90 978 90 0 90 978 b 986 978 90 978 986 978 b 1347 689 1263 978 1347 882 b 1347 279 1347 689 1347 279 b 986 0 1347 96 1263 0 z m 1163 281 b 1163 689 1163 281 1163 689 b 986 833 1163 801 1124 833 b 275 833 986 833 275 833 b 275 144 275 833 275 144 b 986 144 275 144 986 144 b 1163 281 1124 144 1163 176 z "},"e":{"ha":1163,"x_min":0,"x_max":0,"o":"m 1096 0 b 90 0 1096 0 90 0 b 90 978 90 0 90 978 b 1096 978 90 978 1096 978 b 1096 833 1096 978 1096 833 b 275 833 1096 833 275 833 b 275 589 275 833 275 589 b 1054 589 275 589 1054 589 b 1054 444 1054 589 1054 444 b 275 444 1054 444 275 444 b 275 144 275 444 275 144 b 1096 144 275 144 1096 144 b 1096 0 1096 144 1096 0 z "},"f":{"ha":1106,"x_min":0,"x_max":0,"o":"m 1040 403 b 275 403 1040 403 275 403 b 275 0 275 403 275 0 b 90 0 275 0 90 0 b 90 978 90 0 90 978 b 1096 978 90 978 1096 978 b 1096 833 1096 978 1096 833 b 275 833 1096 833 275 833 b 275 547 275 833 275 547 b 1040 547 275 547 1040 547 b 1040 403 1040 547 1040 403 z "},"g":{"ha":1293,"x_min":0,"x_max":0,"o":"m 864 0 b 432 0 864 0 432 0 b 83 211 200 0 83 71 b 83 767 83 211 83 767 b 432 978 83 907 200 978 b 1197 978 432 978 1197 978 b 1197 833 1197 978 1197 833 b 432 833 1197 833 432 833 b 268 767 322 833 268 811 b 268 211 268 767 268 211 b 432 144 268 167 322 144 b 864 144 432 144 864 144 b 1028 208 974 144 1028 165 b 1028 533 1028 208 1028 533 b 1213 533 1028 533 1213 533 b 1213 208 1213 533 1213 208 b 864 0 1213 69 1096 0 z "},"h":{"ha":1350,"x_min":0,"x_max":0,"o":"m 1260 0 b 1075 0 1260 0 1075 0 b 1075 444 1075 0 1075 444 b 275 444 1075 444 275 444 b 275 0 275 444 275 0 b 90 0 275 0 90 0 b 90 978 90 0 90 978 b 275 978 90 978 275 978 b 275 589 275 978 275 589 b 1075 589 275 589 1075 589 b 1075 978 1075 589 1075 978 b 1260 978 1075 978 1260 978 b 1260 0 1260 978 1260 0 z "},"i":{"ha":379,"x_min":0,"x_max":0,"o":"m 282 0 b 97 0 282 0 97 0 b 97 978 97 0 97 978 b 282 978 97 978 282 978 b 282 0 282 978 282 0 z "},"j":{"ha":672,"x_min":0,"x_max":0,"o":"m 281 0 b 13 0 281 0 13 0 b 13 144 13 0 13 144 b 281 144 13 144 281 144 b 401 208 365 144 401 165 b 401 978 401 208 401 978 b 586 978 401 978 586 978 b 586 208 586 978 586 208 b 281 0 586 88 497 0 z "},"k":{"ha":1193,"x_min":0,"x_max":0,"o":"m 1175 0 b 963 0 1175 0 963 0 b 593 436 963 0 593 436 b 275 436 593 436 275 436 b 275 0 275 436 275 0 b 90 0 275 0 90 0 b 90 978 90 0 90 978 b 275 978 90 978 275 978 b 275 581 275 978 275 581 b 589 581 275 581 589 581 b 957 978 589 581 957 978 b 1176 978 957 978 1176 978 b 742 522 1176 978 742 522 b 1175 0 742 522 1175 0 z "},"l":{"ha":1108,"x_min":0,"x_max":0,"o":"m 1069 0 b 90 0 1069 0 90 0 b 90 978 90 0 90 978 b 276 978 90 978 276 978 b 276 144 276 978 276 144 b 1069 144 276 144 1069 144 b 1069 0 1069 144 1069 0 z "},"m":{"ha":1669,"x_min":0,"x_max":0,"o":"m 1579 0 b 1408 0 1579 0 1408 0 b 1408 685 1408 0 1408 685 b 911 0 1408 685 911 0 b 760 0 911 0 760 0 b 261 683 760 0 261 683 b 261 0 261 683 261 0 b 90 0 261 0 90 0 b 90 978 90 0 90 978 b 263 978 90 978 263 978 b 843 179 263 978 843 179 b 1421 978 843 179 1421 978 b 1579 978 1421 978 1579 978 b 1579 0 1579 978 1579 0 z "},"n":{"ha":1475,"x_min":0,"x_max":0,"o":"m 1385 0 b 1294 0 1385 0 1294 0 b 251 761 1294 0 251 761 b 251 0 251 761 251 0 b 90 0 251 0 90 0 b 90 978 90 0 90 978 b 250 978 90 978 250 978 b 1224 251 250 978 1224 251 b 1224 978 1224 251 1224 978 b 1385 978 1224 978 1385 978 b 1385 0 1385 978 1385 0 z "},"o":{"ha":1426,"x_min":0,"x_max":0,"o":"m 1036 0 b 390 0 1036 0 390 0 b 83 236 168 0 83 96 b 83 742 83 236 83 742 b 390 978 83 882 168 978 b 1036 978 390 978 1036 978 b 1343 742 1258 978 1343 882 b 1343 236 1343 742 1343 236 b 1036 0 1343 96 1258 0 z m 1158 235 b 1158 743 1158 235 1158 743 b 1036 833 1158 801 1119 833 b 390 833 1036 833 390 833 b 268 743 307 833 268 801 b 268 235 268 743 268 235 b 390 144 268 176 307 144 b 1036 144 390 144 1036 144 b 1158 235 1119 144 1158 176 z "},"p":{"ha":1238,"x_min":0,"x_max":0,"o":"m 892 361 b 275 361 892 361 275 361 b 275 0 275 361 275 0 b 90 0 275 0 90 0 b 90 978 90 0 90 978 b 892 978 90 978 892 978 b 1199 742 1114 978 1199 882 b 1199 597 1199 742 1199 597 b 892 361 1199 457 1114 361 z m 1014 596 b 1014 743 1014 596 1014 743 b 892 833 1014 801 975 833 b 275 833 892 833 275 833 b 275 506 275 833 275 506 b 892 506 275 506 892 506 b 1014 596 975 506 1014 538 z "},"q":{"ha":1426,"x_min":0,"x_max":0,"o":"m 1211 -217 b 1014 -217 1211 -217 1014 -217 b 896 0 1014 -217 896 0 b 390 0 896 0 390 0 b 83 236 168 0 83 96 b 83 742 83 236 83 742 b 390 978 83 882 168 978 b 1036 978 390 978 1036 978 b 1343 742 1258 978 1343 882 b 1343 236 1343 742 1343 236 b 1086 1 1343 107 1271 15 b 1211 -217 1086 1 1211 -217 z m 1158 235 b 1158 743 1158 235 1158 743 b 1036 833 1158 801 1119 833 b 390 833 1036 833 390 833 b 268 743 307 833 268 801 b 268 235 268 743 268 235 b 390 144 268 176 307 144 b 1036 144 390 144 1036 144 b 1158 235 1119 144 1158 176 z "},"r":{"ha":1286,"x_min":0,"x_max":0,"o":"m 1217 0 b 1019 0 1217 0 1019 0 b 790 436 1019 0 790 436 b 275 436 790 436 275 436 b 275 0 275 436 275 0 b 90 0 275 0 90 0 b 90 978 90 0 90 978 b 921 978 90 978 921 978 b 1228 742 1143 978 1228 882 b 1228 672 1228 742 1228 672 b 986 439 1228 546 1160 456 b 1217 0 986 439 1217 0 z m 1043 671 b 1043 743 1043 671 1043 743 b 921 833 1043 801 1004 833 b 275 833 921 833 275 833 b 275 581 275 833 275 581 b 921 581 275 581 921 581 b 1043 671 1004 581 1043 613 z "},"s":{"ha":1321,"x_min":0,"x_max":0,"o":"m 953 0 b 103 0 953 0 103 0 b 103 144 103 0 103 144 b 953 144 103 144 953 144 b 1075 235 1036 144 1075 176 b 1075 358 1075 235 1075 358 b 953 449 1075 417 1036 449 b 378 449 953 449 378 449 b 71 685 156 449 71 544 b 71 742 71 685 71 742 b 378 978 71 882 156 978 b 1206 978 378 978 1206 978 b 1206 833 1206 978 1206 833 b 378 833 1206 833 378 833 b 256 743 294 833 256 801 b 256 683 256 743 256 683 b 378 593 256 625 294 593 b 953 593 378 593 953 593 b 1260 357 1175 593 1260 497 b 1260 236 1260 357 1260 236 b 953 0 1260 96 1175 0 z "},"t":{"ha":1261,"x_min":0,"x_max":0,"o":"m 729 0 b 544 0 729 0 544 0 b 544 833 544 0 544 833 b 32 833 544 833 32 833 b 32 978 32 833 32 978 b 1228 978 32 978 1228 978 b 1228 833 1228 978 1228 833 b 729 833 1228 833 729 833 b 729 0 729 833 729 0 z "},"u":{"ha":1393,"x_min":0,"x_max":0,"o":"m 1039 0 b 393 0 1039 0 393 0 b 86 236 171 0 86 96 b 86 978 86 236 86 978 b 271 978 86 978 271 978 b 271 235 271 978 271 235 b 393 144 271 176 310 144 b 1000 144 393 144 1000 144 b 1122 235 1083 144 1122 176 b 1122 978 1122 235 1122 978 b 1307 978 1122 978 1307 978 b 1307 236 1307 978 1307 236 b 1039 0 1307 96 1261 0 z "},"v":{"ha":1431,"x_min":0,"x_max":0,"o":"m 785 0 b 650 0 785 0 650 0 b 0 978 650 0 0 978 b 210 978 0 978 210 978 b 721 190 210 978 721 190 b 1894 2014 721 190 1894 2014 b 2082 2014 1894 2014 2082 2014 b 785 0 2082 2014 785 0 z "},"w":{"ha":1860,"x_min":0,"x_max":0,"o":"m 1408 0 b 1269 0 1408 0 1269 0 b 931 750 1269 0 931 750 b 585 0 931 750 585 0 b 450 0 585 0 450 0 b 0 978 450 0 0 978 b 178 978 0 978 178 978 b 518 228 178 978 518 228 b 861 978 518 228 861 978 b 999 978 861 978 999 978 b 1338 228 999 978 1338 228 b 1681 978 1338 228 1681 978 b 1860 978 1681 978 1860 978 b 1408 0 1860 978 1408 0 z "},"x":{"ha":1383,"x_min":0,"x_max":0,"o":"m 1367 0 b 1128 0 1367 0 1128 0 b 692 390 1128 0 692 390 b 258 0 692 390 258 0 b 17 0 258 0 17 0 b 575 489 17 0 575 489 b 17 978 575 489 17 978 b 257 978 17 978 257 978 b 692 586 257 978 692 586 b 1126 978 692 586 1126 978 b 1364 978 1126 978 1364 978 b 810 496 1364 978 810 496 b 1367 0 810 496 1367 0 z "},"y":{"ha":1436,"x_min":0,"x_max":0,"o":"m 813 0 b 628 0 813 0 628 0 b 628 397 628 0 628 397 b 0 978 628 397 0 978 b 236 978 0 978 236 978 b 719 531 236 978 719 531 b 1203 978 719 531 1203 978 b 1436 978 1203 978 1436 978 b 813 397 1436 978 813 397 b 813 0 813 397 813 0 z "},"z":{"ha":1432,"x_min":0,"x_max":0,"o":"m 1381 0 b 67 0 1381 0 67 0 b 67 125 67 0 67 125 b 1056 819 67 125 1056 819 b 67 819 1056 819 67 819 b 67 978 67 819 67 978 b 1381 978 67 978 1381 978 b 1381 853 1381 978 1381 853 b 388 158 1381 853 388 158 b 1381 158 388 158 1381 158 b 1381 0 1381 158 1381 0 z "},"{":{"ha":408,"x_min":0,"x_max":0,"o":"m 371 -153 b 307 -153 371 -153 307 -153 b 139 3 194 -153 139 -101 b 139 358 139 3 139 358 b 36 440 139 413 104 440 b 36 536 36 440 36 536 b 139 617 104 536 139 563 b 139 975 139 617 139 975 b 307 1131 139 1079 194 1131 b 371 1131 307 1131 371 1131 b 371 1042 371 1131 371 1042 b 268 1003 303 1042 268 1029 b 268 617 268 1003 268 617 b 175 486 268 563 238 518 b 268 358 238 454 268 413 b 268 -25 268 358 268 -25 b 371 -64 268 -51 303 -64 b 371 -153 371 -64 371 -153 z "},"|":{"ha":449,"x_min":0,"x_max":0,"o":"m 289 -153 b 160 -153 289 -153 160 -153 b 160 1131 160 -153 160 1131 b 289 1131 160 1131 289 1131 b 289 -153 289 1131 289 -153 z "},"}":{"ha":410,"x_min":0,"x_max":0,"o":"m 108 -153 b 44 -153 108 -153 44 -153 b 44 -64 44 -153 44 -64 b 147 -25 113 -64 147 -51 b 147 358 147 -25 147 358 b 240 486 147 413 178 454 b 147 617 178 518 147 563 b 147 1003 147 617 147 1003 b 44 1042 147 1029 113 1042 b 44 1131 44 1042 44 1131 b 108 1131 44 1131 108 1131 b 276 975 221 1131 276 1079 b 276 617 276 975 276 617 b 379 536 276 563 311 536 b 379 440 379 536 379 440 b 276 358 311 440 276 413 b 276 3 276 358 276 3 b 108 -153 276 -101 221 -153 z "},"~":{"ha":754,"x_min":0,"x_max":0,"o":"m 697 567 b 697 482 697 567 697 482 b 533 450 656 458 597 450 b 219 493 424 450 333 493 b 56 456 153 493 90 476 b 56 542 56 456 56 542 b 219 574 97 564 156 574 b 533 529 333 574 421 529 b 697 567 600 529 660 546 z "}," ":{"ha":694,"x_min":0,"x_max":0,"o":""},"¡":{"ha":381,"x_min":0,"x_max":0,"o":"m 108 978 b 271 978 108 978 271 978 b 271 797 271 978 271 797 b 108 797 271 797 108 797 b 108 978 108 797 108 978 z m 125 700 b 254 700 125 700 254 700 b 296 0 254 700 296 0 b 83 0 296 0 83 0 b 125 700 83 0 125 700 z "},"¢":{"ha":764,"x_min":0,"x_max":0,"o":"m 693 121 b 510 121 693 121 510 121 b 510 0 510 121 510 0 b 364 0 510 0 364 0 b 364 121 364 0 364 121 b 317 121 364 121 317 121 b 83 304 147 121 83 194 b 83 661 83 304 83 661 b 317 844 83 769 147 844 b 364 844 317 844 364 844 b 364 978 364 844 364 978 b 510 978 364 978 510 978 b 510 844 510 978 510 844 b 693 844 510 844 693 844 b 693 710 693 844 693 710 b 317 710 693 710 317 710 b 247 663 269 710 247 693 b 247 303 247 663 247 303 b 317 254 247 272 269 254 b 693 254 317 254 693 254 b 693 121 693 254 693 121 z "},"£":{"ha":1015,"x_min":0,"x_max":0,"o":"m 961 0 b 51 0 961 0 51 0 b 51 144 51 0 51 144 b 161 144 51 144 161 144 b 161 444 161 144 161 444 b 58 444 161 444 58 444 b 58 589 58 444 58 589 b 161 589 58 589 161 589 b 161 743 161 589 161 743 b 472 978 161 907 278 978 b 933 978 472 978 933 978 b 933 833 933 978 933 833 b 472 833 933 833 472 833 b 346 743 400 833 346 811 b 346 589 346 743 346 589 b 644 589 346 589 644 589 b 644 444 644 589 644 444 b 346 444 644 444 346 444 b 346 144 346 444 346 144 b 961 144 346 144 961 144 b 961 0 961 144 961 0 z "},"¥":{"ha":1100,"x_min":0,"x_max":0,"o":"m 976 154 b 646 154 976 154 646 154 b 646 0 646 154 646 0 b 457 0 646 0 457 0 b 457 154 457 0 457 154 b 128 154 457 154 128 154 b 128 283 128 154 128 283 b 457 283 128 283 457 283 b 457 382 457 283 457 382 b 128 382 457 382 128 382 b 128 511 128 382 128 511 b 386 511 128 511 386 511 b 44 978 386 511 44 978 b 232 978 44 978 232 978 b 551 543 232 978 551 543 b 869 978 551 543 869 978 b 1054 978 869 978 1054 978 b 714 511 1054 978 714 511 b 976 511 714 511 976 511 b 976 382 976 511 976 382 b 646 382 976 382 646 382 b 646 283 646 382 646 283 b 976 283 646 283 976 283 b 976 154 976 283 976 154 z "},"¦":{"ha":449,"x_min":0,"x_max":0,"o":"m 289 -153 b 160 -153 289 -153 160 -153 b 160 429 160 -153 160 429 b 289 429 160 429 289 429 b 289 -153 289 429 289 -153 z m 289 1131 b 289 558 289 1131 289 558 b 160 558 289 558 160 558 b 160 1131 160 558 160 1131 b 289 1131 160 1131 289 1131 z "},"§":{"ha":803,"x_min":0,"x_max":0,"o":"m 276 0 b 125 0 276 0 125 0 b 125 135 125 0 125 135 b 276 135 125 135 276 135 b 349 182 326 135 349 151 b 349 272 349 182 349 272 b 283 272 349 272 283 272 b 50 456 114 272 50 347 b 50 522 50 456 50 522 b 285 706 50 631 114 706 b 308 706 285 706 308 706 b 308 794 308 706 308 794 b 543 978 308 903 372 978 b 694 978 543 978 694 978 b 694 843 694 978 694 843 b 543 843 694 843 543 843 b 471 796 493 843 471 826 b 471 706 471 796 471 706 b 536 706 471 706 536 706 b 769 522 706 706 769 631 b 769 456 769 522 769 456 b 535 272 769 347 706 272 b 511 272 535 272 511 272 b 511 183 511 272 511 183 b 276 0 511 75 447 0 z m 607 454 b 607 524 607 454 607 524 b 538 571 607 553 586 571 b 286 571 538 571 286 571 b 214 524 236 571 214 554 b 214 454 214 524 214 454 b 283 407 214 425 235 407 b 535 407 283 407 535 407 b 607 454 585 407 607 424 z "},"¨":{"ha":707,"x_min":0,"x_max":0,"o":"m 260 1094 b 69 1094 260 1094 69 1094 b 69 1275 69 1094 69 1275 b 260 1275 69 1275 260 1275 b 260 1094 260 1275 260 1094 z m 638 1094 b 447 1094 638 1094 447 1094 b 447 1275 447 1094 447 1275 b 638 1275 447 1275 638 1275 b 638 1094 638 1275 638 1094 z "},"©":{"ha":1140,"x_min":0,"x_max":0,"o":"m 922 286 b 922 706 922 286 922 706 b 757 858 922 807 868 858 b 351 858 757 858 351 858 b 197 706 249 858 197 807 b 197 286 197 706 197 286 b 351 128 197 181 249 128 b 757 128 351 128 757 128 b 922 286 868 128 922 181 z m 757 1 b 351 1 757 1 351 1 b 83 286 174 1 83 97 b 83 706 83 286 83 706 b 351 976 83 886 174 976 b 757 976 351 976 757 976 b 1042 706 947 976 1042 886 b 1042 286 1042 706 1042 286 b 757 1 1042 97 947 1 z m 792 235 b 503 235 792 235 503 235 b 304 388 358 235 304 297 b 304 606 304 388 304 606 b 503 758 304 696 358 758 b 792 758 503 758 792 758 b 792 664 792 758 792 664 b 503 664 792 664 503 664 b 424 606 449 664 424 644 b 424 388 424 606 424 388 b 503 329 424 349 449 329 b 792 329 503 329 792 329 b 792 235 792 329 792 235 z "},"ª":{"ha":869,"x_min":0,"x_max":0,"o":"m 828 417 b 714 417 828 417 714 417 b 436 850 714 417 436 850 b 154 417 436 850 154 417 b 42 417 154 417 42 417 b 399 954 42 417 399 954 b 474 954 399 954 474 954 b 828 417 474 954 828 417 z "},"«":{"ha":836,"x_min":0,"x_max":0,"o":"m 764 267 b 433 460 764 267 433 460 b 433 551 433 460 433 551 b 764 742 433 551 764 742 b 764 622 764 742 764 622 b 554 504 764 622 554 504 b 764 385 554 504 764 385 b 764 267 764 385 764 267 z m 403 267 b 72 460 403 267 72 460 b 72 551 72 460 72 551 b 403 742 72 551 403 742 b 403 622 403 742 403 622 b 193 504 403 622 193 504 b 403 385 193 504 403 385 b 403 267 403 385 403 267 z "},"®":{"ha":915,"x_min":0,"x_max":0,"o":"m 746 432 b 746 763 746 432 746 763 b 615 883 746 843 703 883 b 294 883 615 883 294 883 b 174 763 214 883 174 843 b 174 432 174 763 174 432 b 294 307 174 349 214 307 b 615 307 294 307 615 307 b 746 432 703 307 746 349 z m 615 207 b 294 207 615 207 294 207 b 83 432 154 207 83 282 b 83 763 83 432 83 763 b 294 976 83 906 154 976 b 615 976 294 976 615 976 b 840 763 765 976 840 906 b 840 432 840 763 840 432 b 615 207 840 282 765 207 z m 650 411 b 557 411 650 411 557 411 b 479 576 557 411 479 576 b 374 576 479 576 374 576 b 374 411 374 576 374 411 b 288 411 374 411 288 411 b 288 789 288 411 288 789 b 535 789 288 789 535 789 b 647 693 610 789 647 757 b 647 669 647 693 647 669 b 572 581 647 618 613 588 b 650 411 572 581 650 411 z m 560 664 b 560 693 560 664 560 693 b 535 713 560 706 551 713 b 374 713 535 713 374 713 b 374 646 374 713 374 646 b 535 646 374 646 535 646 b 560 664 551 646 560 651 z "},"¯":{"ha":594,"x_min":0,"x_max":0,"o":"m 525 1097 b 69 1097 525 1097 69 1097 b 69 1213 69 1097 69 1213 b 525 1213 69 1213 525 1213 b 525 1097 525 1213 525 1097 z "},"°":{"ha":451,"x_min":0,"x_max":0,"o":"m 319 829 b 243 907 319 882 293 907 b 168 832 193 907 168 882 b 243 756 168 782 193 756 b 319 829 293 756 319 781 z m 243 671 b 83 832 138 671 83 725 b 243 992 83 938 138 992 b 404 832 350 992 404 938 b 243 671 404 725 350 671 z "},"±":{"ha":754,"x_min":0,"x_max":0,"o":"m 428 183 b 325 183 428 183 325 183 b 325 453 325 183 325 453 b 56 453 325 453 56 453 b 56 556 56 453 56 556 b 325 556 56 556 325 556 b 325 825 325 556 325 825 b 428 825 325 825 428 825 b 428 556 428 825 428 556 b 697 556 428 556 697 556 b 697 453 697 556 697 453 b 428 453 697 453 428 453 b 428 183 428 453 428 183 z m 697 0 b 56 0 697 0 56 0 b 56 103 56 0 56 103 b 697 103 56 103 697 103 b 697 0 697 103 697 0 z "},"²":{"ha":624,"x_min":0,"x_max":0,"o":"m 563 503 b 57 503 563 503 57 503 b 57 681 57 503 57 681 b 211 799 57 751 100 799 b 410 799 211 799 410 799 b 471 844 451 799 471 815 b 471 874 471 844 471 874 b 410 919 471 903 451 919 b 83 919 410 919 83 919 b 83 992 83 919 83 992 b 410 992 83 992 410 992 b 563 874 521 992 563 943 b 563 844 563 874 563 844 b 410 726 563 775 521 726 b 211 726 410 726 211 726 b 150 682 169 726 150 711 b 150 575 150 682 150 575 b 563 575 150 575 563 575 b 563 503 563 575 563 503 z "},"³":{"ha":603,"x_min":0,"x_max":0,"o":"m 386 503 b 58 503 386 503 58 503 b 58 575 58 503 58 575 b 386 575 58 575 386 575 b 449 625 422 575 449 586 b 449 686 449 625 449 686 b 386 728 449 717 422 728 b 79 728 386 728 79 728 b 79 800 79 728 79 800 b 385 800 79 800 385 800 b 442 839 428 800 442 811 b 442 881 442 839 442 881 b 385 919 442 908 428 919 b 58 919 385 919 58 919 b 58 992 58 919 58 992 b 385 992 58 992 385 992 b 535 886 493 992 535 951 b 535 849 535 886 535 849 b 476 768 535 807 511 775 b 540 688 514 758 540 735 b 540 608 540 688 540 608 b 386 503 540 553 507 503 z "},"´":{"ha":593,"x_min":0,"x_max":0,"o":"m 524 1103 b 69 1049 524 1103 69 1049 b 69 1164 69 1049 69 1164 b 524 1260 69 1164 524 1260 b 524 1103 524 1260 524 1103 z "},"¶":{"ha":985,"x_min":0,"x_max":0,"o":"m 893 -153 b 708 -153 893 -153 708 -153 b 708 722 708 -153 708 722 b 556 722 708 722 556 722 b 556 -153 556 722 556 -153 b 369 -153 556 -153 369 -153 b 369 833 369 -153 369 833 b 207 722 261 832 207 796 b 22 722 207 722 22 722 b 371 978 22 893 139 978 b 893 978 371 978 893 978 b 893 -153 893 978 893 -153 z "},"·":{"ha":396,"x_min":0,"x_max":0,"o":"m 301 417 b 83 417 301 417 83 417 b 83 597 83 417 83 597 b 301 597 83 597 301 597 b 301 417 301 597 301 417 z "},"¸":{"ha":329,"x_min":0,"x_max":0,"o":"m 143 -333 b 69 -333 143 -333 69 -333 b 69 -51 69 -333 69 -51 b 260 -51 69 -51 260 -51 b 260 -135 260 -51 260 -135 b 143 -333 260 -135 143 -333 z "},"¹":{"ha":314,"x_min":0,"x_max":0,"o":"m 247 503 b 156 503 247 503 156 503 b 156 922 156 503 156 922 b 121 883 156 922 121 883 b 24 883 121 883 24 883 b 119 992 24 883 119 992 b 247 992 119 992 247 992 b 247 503 247 992 247 503 z "},"º":{"ha":868,"x_min":0,"x_max":0,"o":"m 611 417 b 257 417 611 417 257 417 b 88 547 135 417 88 469 b 88 825 88 547 88 825 b 257 954 88 901 135 954 b 611 954 257 954 611 954 b 781 825 733 954 781 901 b 781 547 781 825 781 547 b 611 417 781 469 733 417 z m 679 546 b 679 825 679 546 679 825 b 611 875 679 857 657 875 b 257 875 611 875 257 875 b 189 825 211 875 189 857 b 189 546 189 825 189 546 b 257 496 189 514 211 496 b 611 496 257 496 611 496 b 679 546 657 496 679 514 z "},"»":{"ha":836,"x_min":0,"x_max":0,"o":"m 764 460 b 433 267 764 460 433 267 b 433 385 433 267 433 385 b 643 504 433 385 643 504 b 433 622 643 504 433 622 b 433 742 433 622 433 742 b 764 551 433 742 764 551 b 764 460 764 551 764 460 z m 403 460 b 72 267 403 460 72 267 b 72 385 72 267 72 385 b 282 504 72 385 282 504 b 72 622 282 504 72 622 b 72 742 72 622 72 742 b 403 551 72 742 403 551 b 403 460 403 551 403 460 z "},"¼":{"ha":1413,"x_min":0,"x_max":0,"o":"m 451 503 b 360 503 451 503 360 503 b 360 922 360 503 360 922 b 325 883 360 922 325 883 b 228 883 325 883 228 883 b 324 992 228 883 324 992 b 451 992 324 992 451 992 b 451 503 451 992 451 503 z m 197 -42 b 83 -42 197 -42 83 -42 b 1088 1033 83 -42 1088 1033 b 1203 1033 1088 1033 1203 1033 b 197 -42 1203 1033 197 -42 z m 1278 -14 b 1185 -14 1278 -14 1185 -14 b 1185 69 1185 -14 1185 69 b 744 69 1185 69 744 69 b 744 128 744 69 744 128 b 1003 475 744 128 1003 475 b 1103 475 1003 475 1103 475 b 854 142 1103 475 854 142 b 1185 142 854 142 1185 142 b 1185 475 1185 142 1185 475 b 1278 475 1185 475 1278 475 b 1278 142 1278 475 1278 142 b 1329 142 1278 142 1329 142 b 1329 69 1329 142 1329 69 b 1278 69 1329 69 1278 69 b 1278 -14 1278 69 1278 -14 z "},"½":{"ha":1414,"x_min":0,"x_max":0,"o":"m 451 503 b 360 503 451 503 360 503 b 360 922 360 503 360 922 b 325 883 360 922 325 883 b 228 883 325 883 228 883 b 324 992 228 883 324 992 b 451 992 324 992 451 992 b 451 503 451 992 451 503 z m 197 -42 b 83 -42 197 -42 83 -42 b 1088 1033 83 -42 1088 1033 b 1203 1033 1088 1033 1203 1033 b 197 -42 1203 1033 197 -42 z m 1331 -14 b 825 -14 1331 -14 825 -14 b 825 164 825 -14 825 164 b 979 282 825 235 868 282 b 1178 282 979 282 1178 282 b 1239 328 1219 282 1239 299 b 1239 357 1239 328 1239 357 b 1178 403 1239 386 1219 403 b 851 403 1178 403 851 403 b 851 475 851 403 851 475 b 1178 475 851 475 1178 475 b 1331 357 1289 475 1331 426 b 1331 328 1331 357 1331 328 b 1178 210 1331 258 1289 210 b 979 210 1178 210 979 210 b 918 165 938 210 918 194 b 918 58 918 165 918 58 b 1331 58 918 58 1331 58 b 1331 -14 1331 58 1331 -14 z "},"¾":{"ha":1397,"x_min":0,"x_max":0,"o":"m 411 503 b 83 503 411 503 83 503 b 83 575 83 503 83 575 b 411 575 83 575 411 575 b 474 625 447 575 474 586 b 474 686 474 625 474 686 b 411 728 474 717 447 728 b 104 728 411 728 104 728 b 104 800 104 728 104 800 b 410 800 104 800 410 800 b 467 839 453 800 467 811 b 467 881 467 839 467 881 b 410 919 467 908 453 919 b 83 919 410 919 83 919 b 83 992 83 919 83 992 b 410 992 83 992 410 992 b 560 886 518 992 560 951 b 560 849 560 886 560 849 b 501 768 560 807 536 775 b 565 688 539 758 565 735 b 565 608 565 688 565 608 b 411 503 565 553 532 503 z m 251 -42 b 138 -42 251 -42 138 -42 b 1142 1033 138 -42 1142 1033 b 1257 1033 1142 1033 1257 1033 b 251 -42 1257 1033 251 -42 z m 1263 -14 b 1169 -14 1263 -14 1169 -14 b 1169 69 1169 -14 1169 69 b 729 69 1169 69 729 69 b 729 128 729 69 729 128 b 988 475 729 128 988 475 b 1088 475 988 475 1088 475 b 839 142 1088 475 839 142 b 1169 142 839 142 1169 142 b 1169 475 1169 142 1169 475 b 1263 475 1169 475 1263 475 b 1263 142 1263 475 1263 142 b 1314 142 1263 142 1314 142 b 1314 69 1314 142 1314 69 b 1263 69 1314 69 1263 69 b 1263 -14 1263 69 1263 -14 z "},"¿":{"ha":935,"x_min":0,"x_max":0,"o":"m 19 236 b 19 293 19 236 19 293 b 326 529 19 433 104 529 b 478 529 326 529 478 529 b 600 619 561 529 600 561 b 600 706 600 619 600 706 b 757 706 600 706 757 706 b 757 621 757 706 757 621 b 449 385 757 481 671 385 b 326 385 449 385 326 385 b 204 294 243 385 204 353 b 204 235 204 294 204 235 b 326 144 204 176 243 144 b 871 144 326 144 871 144 b 871 0 871 144 871 0 b 326 0 871 0 326 0 b 19 236 104 0 19 96 z m 600 978 b 757 978 600 978 757 978 b 757 797 757 978 757 797 b 600 797 757 797 600 797 b 600 978 600 797 600 978 z "},"À":{"ha":1431,"x_min":0,"x_max":0,"o":"m 1431 0 b 1222 0 1431 0 1222 0 b 718 788 1222 0 718 788 b 206 0 718 788 206 0 b 0 0 206 0 0 0 b 650 978 0 0 650 978 b 785 978 650 978 785 978 b 1431 0 785 978 1431 0 z m 901 1049 b 446 1103 901 1049 446 1103 b 446 1260 446 1103 446 1260 b 901 1164 446 1260 901 1164 b 901 1049 901 1164 901 1049 z "},"Á":{"ha":1431,"x_min":0,"x_max":0,"o":"m 1431 0 b 1222 0 1431 0 1222 0 b 718 788 1222 0 718 788 b 206 0 718 788 206 0 b 0 0 206 0 0 0 b 650 978 0 0 650 978 b 785 978 650 978 785 978 b 1431 0 785 978 1431 0 z m 983 1103 b 529 1049 983 1103 529 1049 b 529 1164 529 1049 529 1164 b 983 1260 529 1164 983 1260 b 983 1103 983 1260 983 1103 z "},"Â":{"ha":1431,"x_min":0,"x_max":0,"o":"m 1431 0 b 1222 0 1431 0 1222 0 b 718 788 1222 0 718 788 b 206 0 718 788 206 0 b 0 0 206 0 0 0 b 650 978 0 0 650 978 b 785 978 650 978 785 978 b 1431 0 785 978 1431 0 z m 958 1049 b 807 1049 958 1049 807 1049 b 721 1189 807 1049 721 1189 b 707 1189 721 1189 707 1189 b 624 1049 707 1189 624 1049 b 471 1049 624 1049 471 1049 b 615 1260 471 1049 615 1260 b 815 1260 615 1260 815 1260 b 958 1049 815 1260 958 1049 z "},"Ã":{"ha":1431,"x_min":0,"x_max":0,"o":"m 1431 0 b 1222 0 1431 0 1222 0 b 718 788 1222 0 718 788 b 206 0 718 788 206 0 b 0 0 206 0 0 0 b 650 978 0 0 650 978 b 785 978 650 978 785 978 b 1431 0 785 978 1431 0 z m 943 1228 b 943 1114 943 1228 943 1114 b 826 1072 914 1083 872 1072 b 604 1129 749 1072 685 1129 b 488 1079 557 1129 513 1107 b 488 1194 488 1079 488 1194 b 604 1236 517 1224 558 1236 b 826 1178 685 1236 747 1178 b 943 1228 874 1178 917 1200 z "},"Ä":{"ha":1431,"x_min":0,"x_max":0,"o":"m 1431 0 b 1222 0 1431 0 1222 0 b 718 788 1222 0 718 788 b 206 0 718 788 206 0 b 0 0 206 0 0 0 b 650 978 0 0 650 978 b 785 978 650 978 785 978 b 1431 0 785 978 1431 0 z m 621 1094 b 431 1094 621 1094 431 1094 b 431 1275 431 1094 431 1275 b 621 1275 431 1275 621 1275 b 621 1094 621 1275 621 1094 z m 999 1094 b 808 1094 999 1094 808 1094 b 808 1275 808 1094 808 1275 b 999 1275 808 1275 999 1275 b 999 1094 999 1275 999 1094 z "},"Å":{"ha":1431,"x_min":0,"x_max":0,"o":"m 1431 0 b 1222 0 1431 0 1222 0 b 718 788 1222 0 718 788 b 206 0 718 788 206 0 b 0 0 206 0 0 0 b 650 978 0 0 650 978 b 785 978 650 978 785 978 b 1431 0 785 978 1431 0 z m 831 1171 b 831 1206 831 1171 831 1206 b 786 1250 831 1235 815 1250 b 642 1250 786 1250 642 1250 b 599 1206 613 1250 599 1235 b 599 1171 599 1206 599 1171 b 642 1126 599 1142 613 1126 b 786 1126 642 1126 786 1126 b 831 1171 815 1126 831 1142 z m 936 1207 b 936 1169 936 1207 936 1169 b 776 1049 936 1089 883 1049 b 651 1049 776 1049 651 1049 b 494 1169 547 1049 494 1089 b 494 1207 494 1169 494 1207 b 651 1329 494 1289 547 1329 b 776 1329 651 1329 776 1329 b 936 1207 883 1329 936 1289 z "},"Æ":{"ha":2075,"x_min":0,"x_max":0,"o":"m 2008 0 b 1003 0 2008 0 1003 0 b 1003 715 1003 0 1003 715 b 243 0 1003 715 243 0 b 0 0 243 0 0 0 b 1032 978 0 0 1032 978 b 2008 978 1032 978 2008 978 b 2008 833 2008 978 2008 833 b 1188 833 2008 833 1188 833 b 1188 589 1188 833 1188 589 b 1967 589 1188 589 1967 589 b 1967 444 1967 589 1967 444 b 1188 444 1967 444 1188 444 b 1188 144 1188 444 1188 144 b 2008 144 1188 144 2008 144 b 2008 0 2008 144 2008 0 z "},"Ç":{"ha":1243,"x_min":0,"x_max":0,"o":"m 1178 0 b 390 0 1178 0 390 0 b 83 236 168 0 83 96 b 83 742 83 236 83 742 b 390 978 83 882 168 978 b 1178 978 390 978 1178 978 b 1178 833 1178 978 1178 833 b 390 833 1178 833 390 833 b 268 743 307 833 268 801 b 268 235 268 743 268 235 b 390 144 268 176 307 144 b 1178 144 390 144 1178 144 b 1178 0 1178 144 1178 0 z m 628 -333 b 554 -333 628 -333 554 -333 b 554 -51 554 -333 554 -51 b 744 -51 554 -51 744 -51 b 744 -135 744 -51 744 -135 b 628 -333 744 -135 628 -333 z "},"È":{"ha":1163,"x_min":0,"x_max":0,"o":"m 1096 0 b 90 0 1096 0 90 0 b 90 978 90 0 90 978 b 1096 978 90 978 1096 978 b 1096 833 1096 978 1096 833 b 275 833 1096 833 275 833 b 275 589 275 833 275 589 b 1054 589 275 589 1054 589 b 1054 444 1054 589 1054 444 b 275 444 1054 444 275 444 b 275 144 275 444 275 144 b 1096 144 275 144 1096 144 b 1096 0 1096 144 1096 0 z m 767 1049 b 311 1103 767 1049 311 1103 b 311 1260 311 1103 311 1260 b 767 1164 311 1260 767 1164 b 767 1049 767 1164 767 1049 z "},"É":{"ha":1163,"x_min":0,"x_max":0,"o":"m 1096 0 b 90 0 1096 0 90 0 b 90 978 90 0 90 978 b 1096 978 90 978 1096 978 b 1096 833 1096 978 1096 833 b 275 833 1096 833 275 833 b 275 589 275 833 275 589 b 1054 589 275 589 1054 589 b 1054 444 1054 589 1054 444 b 275 444 1054 444 275 444 b 275 144 275 444 275 144 b 1096 144 275 144 1096 144 b 1096 0 1096 144 1096 0 z m 850 1103 b 396 1049 850 1103 396 1049 b 396 1164 396 1049 396 1164 b 850 1260 396 1164 850 1260 b 850 1103 850 1260 850 1103 z "},"Ê":{"ha":1163,"x_min":0,"x_max":0,"o":"m 1096 0 b 90 0 1096 0 90 0 b 90 978 90 0 90 978 b 1096 978 90 978 1096 978 b 1096 833 1096 978 1096 833 b 275 833 1096 833 275 833 b 275 589 275 833 275 589 b 1054 589 275 589 1054 589 b 1054 444 1054 589 1054 444 b 275 444 1054 444 275 444 b 275 144 275 444 275 144 b 1096 144 275 144 1096 144 b 1096 0 1096 144 1096 0 z m 839 1049 b 688 1049 839 1049 688 1049 b 601 1189 688 1049 601 1189 b 588 1189 601 1189 588 1189 b 504 1049 588 1189 504 1049 b 351 1049 504 1049 351 1049 b 496 1260 351 1049 496 1260 b 696 1260 496 1260 696 1260 b 839 1049 696 1260 839 1049 z "},"Ë":{"ha":1163,"x_min":0,"x_max":0,"o":"m 1096 0 b 90 0 1096 0 90 0 b 90 978 90 0 90 978 b 1096 978 90 978 1096 978 b 1096 833 1096 978 1096 833 b 275 833 1096 833 275 833 b 275 589 275 833 275 589 b 1054 589 275 589 1054 589 b 1054 444 1054 589 1054 444 b 275 444 1054 444 275 444 b 275 144 275 444 275 144 b 1096 144 275 144 1096 144 b 1096 0 1096 144 1096 0 z m 501 1094 b 311 1094 501 1094 311 1094 b 311 1275 311 1094 311 1275 b 501 1275 311 1275 501 1275 b 501 1094 501 1275 501 1094 z m 879 1094 b 689 1094 879 1094 689 1094 b 689 1275 689 1094 689 1275 b 879 1275 689 1275 879 1275 b 879 1094 879 1275 879 1094 z "},"Ì":{"ha":379,"x_min":0,"x_max":0,"o":"m 282 0 b 97 0 282 0 97 0 b 97 978 97 0 97 978 b 282 978 97 978 282 978 b 282 0 282 978 282 0 z m 376 1049 b -79 1103 376 1049 -79 1103 b -79 1260 -79 1103 -79 1260 b 376 1164 -79 1260 376 1164 b 376 1049 376 1164 376 1049 z "},"Í":{"ha":379,"x_min":0,"x_max":0,"o":"m 282 0 b 97 0 282 0 97 0 b 97 978 97 0 97 978 b 282 978 97 978 282 978 b 282 0 282 978 282 0 z m 458 1103 b 4 1049 458 1103 4 1049 b 4 1164 4 1049 4 1164 b 458 1260 4 1164 458 1260 b 458 1103 458 1260 458 1103 z "},"Î":{"ha":379,"x_min":0,"x_max":0,"o":"m 282 0 b 97 0 282 0 97 0 b 97 978 97 0 97 978 b 282 978 97 978 282 978 b 282 0 282 978 282 0 z m 433 1049 b 282 1049 433 1049 282 1049 b 196 1189 282 1049 196 1189 b 182 1189 196 1189 182 1189 b 99 1049 182 1189 99 1049 b -54 1049 99 1049 -54 1049 b 90 1260 -54 1049 90 1260 b 290 1260 90 1260 290 1260 b 433 1049 290 1260 433 1049 z "},"Ï":{"ha":379,"x_min":0,"x_max":0,"o":"m 282 0 b 97 0 282 0 97 0 b 97 978 97 0 97 978 b 282 978 97 978 282 978 b 282 0 282 978 282 0 z m 96 1094 b -94 1094 96 1094 -94 1094 b -94 1275 -94 1094 -94 1275 b 96 1275 -94 1275 96 1275 b 96 1094 96 1275 96 1094 z m 474 1094 b 283 1094 474 1094 283 1094 b 283 1275 283 1094 283 1275 b 474 1275 283 1275 474 1275 b 474 1094 474 1275 474 1094 z "},"Ð":{"ha":1431,"x_min":0,"x_max":0,"o":"m 986 0 b 90 0 986 0 90 0 b 90 444 90 0 90 444 b 0 444 90 444 0 444 b 0 589 0 444 0 589 b 90 589 0 589 90 589 b 90 978 90 589 90 978 b 986 978 90 978 986 978 b 1347 689 1263 978 1347 882 b 1347 279 1347 689 1347 279 b 986 0 1347 96 1263 0 z m 1163 281 b 1163 689 1163 281 1163 689 b 986 833 1163 801 1124 833 b 275 833 986 833 275 833 b 275 589 275 833 275 589 b 721 589 275 589 721 589 b 721 444 721 589 721 444 b 275 444 721 444 275 444 b 275 144 275 444 275 144 b 986 144 275 144 986 144 b 1163 281 1124 144 1163 176 z "},"Ñ":{"ha":1475,"x_min":0,"x_max":0,"o":"m 1385 0 b 1294 0 1385 0 1294 0 b 251 761 1294 0 251 761 b 251 0 251 761 251 0 b 90 0 251 0 90 0 b 90 978 90 0 90 978 b 250 978 90 978 250 978 b 1224 251 250 978 1224 251 b 1224 978 1224 251 1224 978 b 1385 978 1224 978 1385 978 b 1385 0 1385 978 1385 0 z m 979 1228 b 979 1114 979 1228 979 1114 b 863 1072 950 1083 908 1072 b 640 1129 785 1072 721 1129 b 524 1079 593 1129 549 1107 b 524 1194 524 1079 524 1194 b 640 1236 553 1224 594 1236 b 863 1178 721 1236 783 1178 b 979 1228 910 1178 953 1200 z "},"Ò":{"ha":1426,"x_min":0,"x_max":0,"o":"m 1036 0 b 390 0 1036 0 390 0 b 83 236 168 0 83 96 b 83 742 83 236 83 742 b 390 978 83 882 168 978 b 1036 978 390 978 1036 978 b 1343 742 1258 978 1343 882 b 1343 236 1343 742 1343 236 b 1036 0 1343 96 1258 0 z m 1158 235 b 1158 743 1158 235 1158 743 b 1036 833 1158 801 1119 833 b 390 833 1036 833 390 833 b 268 743 307 833 268 801 b 268 235 268 743 268 235 b 390 144 268 176 307 144 b 1036 144 390 144 1036 144 b 1158 235 1119 144 1158 176 z m 899 1049 b 443 1103 899 1049 443 1103 b 443 1260 443 1103 443 1260 b 899 1164 443 1260 899 1164 b 899 1049 899 1164 899 1049 z "},"Ó":{"ha":1426,"x_min":0,"x_max":0,"o":"m 1036 0 b 390 0 1036 0 390 0 b 83 236 168 0 83 96 b 83 742 83 236 83 742 b 390 978 83 882 168 978 b 1036 978 390 978 1036 978 b 1343 742 1258 978 1343 882 b 1343 236 1343 742 1343 236 b 1036 0 1343 96 1258 0 z m 1158 235 b 1158 743 1158 235 1158 743 b 1036 833 1158 801 1119 833 b 390 833 1036 833 390 833 b 268 743 307 833 268 801 b 268 235 268 743 268 235 b 390 144 268 176 307 144 b 1036 144 390 144 1036 144 b 1158 235 1119 144 1158 176 z m 982 1103 b 528 1049 982 1103 528 1049 b 528 1164 528 1049 528 1164 b 982 1260 528 1164 982 1260 b 982 1103 982 1260 982 1103 z "},"Ô":{"ha":1426,"x_min":0,"x_max":0,"o":"m 1036 0 b 390 0 1036 0 390 0 b 83 236 168 0 83 96 b 83 742 83 236 83 742 b 390 978 83 882 168 978 b 1036 978 390 978 1036 978 b 1343 742 1258 978 1343 882 b 1343 236 1343 742 1343 236 b 1036 0 1343 96 1258 0 z m 1158 235 b 1158 743 1158 235 1158 743 b 1036 833 1158 801 1119 833 b 390 833 1036 833 390 833 b 268 743 307 833 268 801 b 268 235 268 743 268 235 b 390 144 268 176 307 144 b 1036 144 390 144 1036 144 b 1158 235 1119 144 1158 176 z m 957 1049 b 806 1049 957 1049 806 1049 b 719 1189 806 1049 719 1189 b 706 1189 719 1189 706 1189 b 622 1049 706 1189 622 1049 b 469 1049 622 1049 469 1049 b 614 1260 469 1049 614 1260 b 814 1260 614 1260 814 1260 b 957 1049 814 1260 957 1049 z "},"Õ":{"ha":1426,"x_min":0,"x_max":0,"o":"m 1036 0 b 390 0 1036 0 390 0 b 83 236 168 0 83 96 b 83 742 83 236 83 742 b 390 978 83 882 168 978 b 1036 978 390 978 1036 978 b 1343 742 1258 978 1343 882 b 1343 236 1343 742 1343 236 b 1036 0 1343 96 1258 0 z m 1158 235 b 1158 743 1158 235 1158 743 b 1036 833 1158 801 1119 833 b 390 833 1036 833 390 833 b 268 743 307 833 268 801 b 268 235 268 743 268 235 b 390 144 268 176 307 144 b 1036 144 390 144 1036 144 b 1158 235 1119 144 1158 176 z m 940 1228 b 940 1114 940 1228 940 1114 b 824 1072 911 1083 869 1072 b 601 1129 746 1072 682 1129 b 485 1079 554 1129 510 1107 b 485 1194 485 1079 485 1194 b 601 1236 514 1224 556 1236 b 824 1178 682 1236 744 1178 b 940 1228 871 1178 914 1200 z "},"Ö":{"ha":1426,"x_min":0,"x_max":0,"o":"m 1036 0 b 390 0 1036 0 390 0 b 83 236 168 0 83 96 b 83 742 83 236 83 742 b 390 978 83 882 168 978 b 1036 978 390 978 1036 978 b 1343 742 1258 978 1343 882 b 1343 236 1343 742 1343 236 b 1036 0 1343 96 1258 0 z m 1158 235 b 1158 743 1158 235 1158 743 b 1036 833 1158 801 1119 833 b 390 833 1036 833 390 833 b 268 743 307 833 268 801 b 268 235 268 743 268 235 b 390 144 268 176 307 144 b 1036 144 390 144 1036 144 b 1158 235 1119 144 1158 176 z m 619 1094 b 429 1094 619 1094 429 1094 b 429 1275 429 1094 429 1275 b 619 1275 429 1275 619 1275 b 619 1094 619 1275 619 1094 z m 997 1094 b 807 1094 997 1094 807 1094 b 807 1275 807 1094 807 1275 b 997 1275 807 1275 997 1275 b 997 1094 997 1275 997 1094 z "},"×":{"ha":754,"x_min":0,"x_max":0,"o":"m 640 314 b 567 240 640 314 567 240 b 376 432 567 240 376 432 b 186 240 376 432 186 240 b 113 314 186 240 113 314 b 304 504 113 314 304 504 b 113 694 304 504 113 694 b 186 768 113 694 186 768 b 376 576 186 768 376 576 b 567 768 376 576 567 768 b 640 694 567 768 640 694 b 449 504 640 694 449 504 b 640 314 449 504 640 314 z "},"Ø":{"ha":1426,"x_min":0,"x_max":0,"o":"m 1036 0 b 390 0 1036 0 390 0 b 311 4 361 0 336 1 b 218 -96 311 4 218 -96 b 153 -42 218 -96 153 -42 b 217 28 153 -42 217 28 b 83 236 122 65 83 140 b 83 742 83 236 83 742 b 390 978 83 882 168 978 b 1036 978 390 978 1036 978 b 1101 975 1060 978 1081 976 b 1210 1090 1101 975 1210 1090 b 1272 1033 1210 1090 1272 1033 b 1197 954 1272 1033 1197 954 b 1343 742 1300 917 1343 840 b 1343 236 1343 742 1343 236 b 1036 0 1343 96 1258 0 z m 1158 235 b 1158 743 1158 235 1158 743 b 1082 829 1158 789 1133 819 b 443 144 1082 829 443 144 b 1036 144 443 144 1036 144 b 1158 235 1119 144 1158 176 z m 332 151 b 969 833 332 151 969 833 b 390 833 969 833 390 833 b 268 743 307 833 268 801 b 268 235 268 743 268 235 b 332 151 268 192 289 164 z "},"Ù":{"ha":1393,"x_min":0,"x_max":0,"o":"m 1039 0 b 393 0 1039 0 393 0 b 86 236 171 0 86 96 b 86 978 86 236 86 978 b 271 978 86 978 271 978 b 271 235 271 978 271 235 b 393 144 271 176 310 144 b 1000 144 393 144 1000 144 b 1122 235 1083 144 1122 176 b 1122 978 1122 235 1122 978 b 1307 978 1122 978 1307 978 b 1307 236 1307 978 1307 236 b 1039 0 1307 96 1261 0 z m 882 1049 b 426 1103 882 1049 426 1103 b 426 1260 426 1103 426 1260 b 882 1164 426 1260 882 1164 b 882 1049 882 1164 882 1049 z "},"Ú":{"ha":1393,"x_min":0,"x_max":0,"o":"m 1039 0 b 393 0 1039 0 393 0 b 86 236 171 0 86 96 b 86 978 86 236 86 978 b 271 978 86 978 271 978 b 271 235 271 978 271 235 b 393 144 271 176 310 144 b 1000 144 393 144 1000 144 b 1122 235 1083 144 1122 176 b 1122 978 1122 235 1122 978 b 1307 978 1122 978 1307 978 b 1307 236 1307 978 1307 236 b 1039 0 1307 96 1261 0 z m 965 1103 b 511 1049 965 1103 511 1049 b 511 1164 511 1049 511 1164 b 965 1260 511 1164 965 1260 b 965 1103 965 1260 965 1103 z "},"Û":{"ha":1393,"x_min":0,"x_max":0,"o":"m 1039 0 b 393 0 1039 0 393 0 b 86 236 171 0 86 96 b 86 978 86 236 86 978 b 271 978 86 978 271 978 b 271 235 271 978 271 235 b 393 144 271 176 310 144 b 1000 144 393 144 1000 144 b 1122 235 1083 144 1122 176 b 1122 978 1122 235 1122 978 b 1307 978 1122 978 1307 978 b 1307 236 1307 978 1307 236 b 1039 0 1307 96 1261 0 z m 940 1049 b 789 1049 940 1049 789 1049 b 703 1189 789 1049 703 1189 b 689 1189 703 1189 689 1189 b 606 1049 689 1189 606 1049 b 453 1049 606 1049 453 1049 b 597 1260 453 1049 597 1260 b 797 1260 597 1260 797 1260 b 940 1049 797 1260 940 1049 z "},"Ü":{"ha":1393,"x_min":0,"x_max":0,"o":"m 1039 0 b 393 0 1039 0 393 0 b 86 236 171 0 86 96 b 86 978 86 236 86 978 b 271 978 86 978 271 978 b 271 235 271 978 271 235 b 393 144 271 176 310 144 b 1000 144 393 144 1000 144 b 1122 235 1083 144 1122 176 b 1122 978 1122 235 1122 978 b 1307 978 1122 978 1307 978 b 1307 236 1307 978 1307 236 b 1039 0 1307 96 1261 0 z m 603 1094 b 413 1094 603 1094 413 1094 b 413 1275 413 1094 413 1275 b 603 1275 413 1275 603 1275 b 603 1094 603 1275 603 1094 z m 981 1094 b 790 1094 981 1094 790 1094 b 790 1275 790 1094 790 1275 b 981 1275 790 1275 981 1275 b 981 1094 981 1275 981 1094 z "},"Ý":{"ha":1436,"x_min":0,"x_max":0,"o":"m 813 0 b 628 0 813 0 628 0 b 628 397 628 0 628 397 b 0 978 628 397 0 978 b 236 978 0 978 236 978 b 719 531 236 978 719 531 b 1203 978 719 531 1203 978 b 1436 978 1203 978 1436 978 b 813 397 1436 978 813 397 b 813 0 813 397 813 0 z m 988 1103 b 533 1049 988 1103 533 1049 b 533 1164 533 1049 533 1164 b 988 1260 533 1164 988 1260 b 988 1103 988 1260 988 1103 z "},"Þ":{"ha":1161,"x_min":0,"x_max":0,"o":"m 803 139 b 275 139 803 139 275 139 b 275 0 275 139 275 0 b 90 0 275 0 90 0 b 90 978 90 0 90 978 b 275 978 90 978 275 978 b 275 838 275 978 275 838 b 803 838 275 838 803 838 b 1110 601 1025 838 1110 742 b 1110 375 1110 601 1110 375 b 803 139 1110 235 1025 139 z m 925 374 b 925 603 925 374 925 603 b 803 693 925 661 886 693 b 275 693 803 693 275 693 b 275 283 275 693 275 283 b 803 283 275 283 803 283 b 925 374 886 283 925 315 z "},"ß":{"ha":2642,"x_min":0,"x_max":0,"o":"m 953 0 b 103 0 953 0 103 0 b 103 144 103 0 103 144 b 953 144 103 144 953 144 b 1075 235 1036 144 1075 176 b 1075 358 1075 235 1075 358 b 953 449 1075 417 1036 449 b 378 449 953 449 378 449 b 71 685 156 449 71 544 b 71 742 71 685 71 742 b 378 978 71 882 156 978 b 1206 978 378 978 1206 978 b 1206 833 1206 978 1206 833 b 378 833 1206 833 378 833 b 256 743 294 833 256 801 b 256 683 256 743 256 683 b 378 593 256 625 294 593 b 953 593 378 593 953 593 b 1260 357 1175 593 1260 497 b 1260 236 1260 357 1260 236 b 953 0 1260 96 1175 0 z m 2274 0 b 1424 0 2274 0 1424 0 b 1424 144 1424 0 1424 144 b 2274 144 1424 144 2274 144 b 2396 235 2357 144 2396 176 b 2396 358 2396 235 2396 358 b 2274 449 2396 417 2357 449 b 1699 449 2274 449 1699 449 b 1392 685 1476 449 1392 544 b 1392 742 1392 685 1392 742 b 1699 978 1392 882 1476 978 b 2526 978 1699 978 2526 978 b 2526 833 2526 978 2526 833 b 1699 833 2526 833 1699 833 b 1576 743 1615 833 1576 801 b 1576 683 1576 743 1576 683 b 1699 593 1576 625 1615 593 b 2274 593 1699 593 2274 593 b 2581 357 2496 593 2581 497 b 2581 236 2581 357 2581 236 b 2274 0 2581 96 2496 0 z "},"à":{"ha":1431,"x_min":0,"x_max":0,"o":"m 1431 0 b 1222 0 1431 0 1222 0 b 718 788 1222 0 718 788 b 206 0 718 788 206 0 b 0 0 206 0 0 0 b 650 978 0 0 650 978 b 785 978 650 978 785 978 b 1431 0 785 978 1431 0 z m 901 1049 b 446 1103 901 1049 446 1103 b 446 1260 446 1103 446 1260 b 901 1164 446 1260 901 1164 b 901 1049 901 1164 901 1049 z "},"á":{"ha":1431,"x_min":0,"x_max":0,"o":"m 1431 0 b 1222 0 1431 0 1222 0 b 718 788 1222 0 718 788 b 206 0 718 788 206 0 b 0 0 206 0 0 0 b 650 978 0 0 650 978 b 785 978 650 978 785 978 b 1431 0 785 978 1431 0 z m 983 1103 b 529 1049 983 1103 529 1049 b 529 1164 529 1049 529 1164 b 983 1260 529 1164 983 1260 b 983 1103 983 1260 983 1103 z "},"â":{"ha":1431,"x_min":0,"x_max":0,"o":"m 1431 0 b 1222 0 1431 0 1222 0 b 718 788 1222 0 718 788 b 206 0 718 788 206 0 b 0 0 206 0 0 0 b 650 978 0 0 650 978 b 785 978 650 978 785 978 b 1431 0 785 978 1431 0 z m 958 1049 b 807 1049 958 1049 807 1049 b 721 1189 807 1049 721 1189 b 707 1189 721 1189 707 1189 b 624 1049 707 1189 624 1049 b 471 1049 624 1049 471 1049 b 615 1260 471 1049 615 1260 b 815 1260 615 1260 815 1260 b 958 1049 815 1260 958 1049 z "},"ã":{"ha":1431,"x_min":0,"x_max":0,"o":"m 1431 0 b 1222 0 1431 0 1222 0 b 718 788 1222 0 718 788 b 206 0 718 788 206 0 b 0 0 206 0 0 0 b 650 978 0 0 650 978 b 785 978 650 978 785 978 b 1431 0 785 978 1431 0 z m 943 1228 b 943 1114 943 1228 943 1114 b 826 1072 914 1083 872 1072 b 604 1129 749 1072 685 1129 b 488 1079 557 1129 513 1107 b 488 1194 488 1079 488 1194 b 604 1236 517 1224 558 1236 b 826 1178 685 1236 747 1178 b 943 1228 874 1178 917 1200 z "},"ä":{"ha":1431,"x_min":0,"x_max":0,"o":"m 1431 0 b 1222 0 1431 0 1222 0 b 718 788 1222 0 718 788 b 206 0 718 788 206 0 b 0 0 206 0 0 0 b 650 978 0 0 650 978 b 785 978 650 978 785 978 b 1431 0 785 978 1431 0 z m 621 1094 b 431 1094 621 1094 431 1094 b 431 1275 431 1094 431 1275 b 621 1275 431 1275 621 1275 b 621 1094 621 1275 621 1094 z m 999 1094 b 808 1094 999 1094 808 1094 b 808 1275 808 1094 808 1275 b 999 1275 808 1275 999 1275 b 999 1094 999 1275 999 1094 z "},"å":{"ha":1431,"x_min":0,"x_max":0,"o":"m 1431 0 b 1222 0 1431 0 1222 0 b 718 788 1222 0 718 788 b 206 0 718 788 206 0 b 0 0 206 0 0 0 b 650 978 0 0 650 978 b 785 978 650 978 785 978 b 1431 0 785 978 1431 0 z m 831 1171 b 831 1206 831 1171 831 1206 b 786 1250 831 1235 815 1250 b 642 1250 786 1250 642 1250 b 599 1206 613 1250 599 1235 b 599 1171 599 1206 599 1171 b 642 1126 599 1142 613 1126 b 786 1126 642 1126 786 1126 b 831 1171 815 1126 831 1142 z m 936 1207 b 936 1169 936 1207 936 1169 b 776 1049 936 1089 883 1049 b 651 1049 776 1049 651 1049 b 494 1169 547 1049 494 1089 b 494 1207 494 1169 494 1207 b 651 1329 494 1289 547 1329 b 776 1329 651 1329 776 1329 b 936 1207 883 1329 936 1289 z "},"æ":{"ha":2075,"x_min":0,"x_max":0,"o":"m 2008 0 b 1003 0 2008 0 1003 0 b 1003 715 1003 0 1003 715 b 243 0 1003 715 243 0 b 0 0 243 0 0 0 b 1032 978 0 0 1032 978 b 2008 978 1032 978 2008 978 b 2008 833 2008 978 2008 833 b 1188 833 2008 833 1188 833 b 1188 589 1188 833 1188 589 b 1967 589 1188 589 1967 589 b 1967 444 1967 589 1967 444 b 1188 444 1967 444 1188 444 b 1188 144 1188 444 1188 144 b 2008 144 1188 144 2008 144 b 2008 0 2008 144 2008 0 z "},"ç":{"ha":1243,"x_min":0,"x_max":0,"o":"m 1178 0 b 390 0 1178 0 390 0 b 83 236 168 0 83 96 b 83 742 83 236 83 742 b 390 978 83 882 168 978 b 1178 978 390 978 1178 978 b 1178 833 1178 978 1178 833 b 390 833 1178 833 390 833 b 268 743 307 833 268 801 b 268 235 268 743 268 235 b 390 144 268 176 307 144 b 1178 144 390 144 1178 144 b 1178 0 1178 144 1178 0 z m 628 -333 b 554 -333 628 -333 554 -333 b 554 -51 554 -333 554 -51 b 744 -51 554 -51 744 -51 b 744 -135 744 -51 744 -135 b 628 -333 744 -135 628 -333 z "},"è":{"ha":1163,"x_min":0,"x_max":0,"o":"m 1096 0 b 90 0 1096 0 90 0 b 90 978 90 0 90 978 b 1096 978 90 978 1096 978 b 1096 833 1096 978 1096 833 b 275 833 1096 833 275 833 b 275 589 275 833 275 589 b 1054 589 275 589 1054 589 b 1054 444 1054 589 1054 444 b 275 444 1054 444 275 444 b 275 144 275 444 275 144 b 1096 144 275 144 1096 144 b 1096 0 1096 144 1096 0 z m 767 1049 b 311 1103 767 1049 311 1103 b 311 1260 311 1103 311 1260 b 767 1164 311 1260 767 1164 b 767 1049 767 1164 767 1049 z "},"é":{"ha":1163,"x_min":0,"x_max":0,"o":"m 1096 0 b 90 0 1096 0 90 0 b 90 978 90 0 90 978 b 1096 978 90 978 1096 978 b 1096 833 1096 978 1096 833 b 275 833 1096 833 275 833 b 275 589 275 833 275 589 b 1054 589 275 589 1054 589 b 1054 444 1054 589 1054 444 b 275 444 1054 444 275 444 b 275 144 275 444 275 144 b 1096 144 275 144 1096 144 b 1096 0 1096 144 1096 0 z m 850 1103 b 396 1049 850 1103 396 1049 b 396 1164 396 1049 396 1164 b 850 1260 396 1164 850 1260 b 850 1103 850 1260 850 1103 z "},"ê":{"ha":1163,"x_min":0,"x_max":0,"o":"m 1096 0 b 90 0 1096 0 90 0 b 90 978 90 0 90 978 b 1096 978 90 978 1096 978 b 1096 833 1096 978 1096 833 b 275 833 1096 833 275 833 b 275 589 275 833 275 589 b 1054 589 275 589 1054 589 b 1054 444 1054 589 1054 444 b 275 444 1054 444 275 444 b 275 144 275 444 275 144 b 1096 144 275 144 1096 144 b 1096 0 1096 144 1096 0 z m 839 1049 b 688 1049 839 1049 688 1049 b 601 1189 688 1049 601 1189 b 588 1189 601 1189 588 1189 b 504 1049 588 1189 504 1049 b 351 1049 504 1049 351 1049 b 496 1260 351 1049 496 1260 b 696 1260 496 1260 696 1260 b 839 1049 696 1260 839 1049 z "},"ë":{"ha":1163,"x_min":0,"x_max":0,"o":"m 1096 0 b 90 0 1096 0 90 0 b 90 978 90 0 90 978 b 1096 978 90 978 1096 978 b 1096 833 1096 978 1096 833 b 275 833 1096 833 275 833 b 275 589 275 833 275 589 b 1054 589 275 589 1054 589 b 1054 444 1054 589 1054 444 b 275 444 1054 444 275 444 b 275 144 275 444 275 144 b 1096 144 275 144 1096 144 b 1096 0 1096 144 1096 0 z m 501 1094 b 311 1094 501 1094 311 1094 b 311 1275 311 1094 311 1275 b 501 1275 311 1275 501 1275 b 501 1094 501 1275 501 1094 z m 879 1094 b 689 1094 879 1094 689 1094 b 689 1275 689 1094 689 1275 b 879 1275 689 1275 879 1275 b 879 1094 879 1275 879 1094 z "},"ì":{"ha":379,"x_min":0,"x_max":0,"o":"m 282 0 b 97 0 282 0 97 0 b 97 978 97 0 97 978 b 282 978 97 978 282 978 b 282 0 282 978 282 0 z m 376 1049 b -79 1103 376 1049 -79 1103 b -79 1260 -79 1103 -79 1260 b 376 1164 -79 1260 376 1164 b 376 1049 376 1164 376 1049 z "},"í":{"ha":379,"x_min":0,"x_max":0,"o":"m 282 0 b 97 0 282 0 97 0 b 97 978 97 0 97 978 b 282 978 97 978 282 978 b 282 0 282 978 282 0 z m 458 1103 b 4 1049 458 1103 4 1049 b 4 1164 4 1049 4 1164 b 458 1260 4 1164 458 1260 b 458 1103 458 1260 458 1103 z "},"î":{"ha":379,"x_min":0,"x_max":0,"o":"m 282 0 b 97 0 282 0 97 0 b 97 978 97 0 97 978 b 282 978 97 978 282 978 b 282 0 282 978 282 0 z m 433 1049 b 282 1049 433 1049 282 1049 b 196 1189 282 1049 196 1189 b 182 1189 196 1189 182 1189 b 99 1049 182 1189 99 1049 b -54 1049 99 1049 -54 1049 b 90 1260 -54 1049 90 1260 b 290 1260 90 1260 290 1260 b 433 1049 290 1260 433 1049 z "},"ï":{"ha":379,"x_min":0,"x_max":0,"o":"m 282 0 b 97 0 282 0 97 0 b 97 978 97 0 97 978 b 282 978 97 978 282 978 b 282 0 282 978 282 0 z m 96 1094 b -94 1094 96 1094 -94 1094 b -94 1275 -94 1094 -94 1275 b 96 1275 -94 1275 96 1275 b 96 1094 96 1275 96 1094 z m 474 1094 b 283 1094 474 1094 283 1094 b 283 1275 283 1094 283 1275 b 474 1275 283 1275 474 1275 b 474 1094 474 1275 474 1094 z "},"ð":{"ha":1431,"x_min":0,"x_max":0,"o":"m 986 0 b 90 0 986 0 90 0 b 90 444 90 0 90 444 b 0 444 90 444 0 444 b 0 589 0 444 0 589 b 90 589 0 589 90 589 b 90 978 90 589 90 978 b 986 978 90 978 986 978 b 1347 689 1263 978 1347 882 b 1347 279 1347 689 1347 279 b 986 0 1347 96 1263 0 z m 1163 281 b 1163 689 1163 281 1163 689 b 986 833 1163 801 1124 833 b 275 833 986 833 275 833 b 275 589 275 833 275 589 b 721 589 275 589 721 589 b 721 444 721 589 721 444 b 275 444 721 444 275 444 b 275 144 275 444 275 144 b 986 144 275 144 986 144 b 1163 281 1124 144 1163 176 z "},"ñ":{"ha":1475,"x_min":0,"x_max":0,"o":"m 1385 0 b 1294 0 1385 0 1294 0 b 251 761 1294 0 251 761 b 251 0 251 761 251 0 b 90 0 251 0 90 0 b 90 978 90 0 90 978 b 250 978 90 978 250 978 b 1224 251 250 978 1224 251 b 1224 978 1224 251 1224 978 b 1385 978 1224 978 1385 978 b 1385 0 1385 978 1385 0 z m 979 1228 b 979 1114 979 1228 979 1114 b 863 1072 950 1083 908 1072 b 640 1129 785 1072 721 1129 b 524 1079 593 1129 549 1107 b 524 1194 524 1079 524 1194 b 640 1236 553 1224 594 1236 b 863 1178 721 1236 783 1178 b 979 1228 910 1178 953 1200 z "},"ò":{"ha":1426,"x_min":0,"x_max":0,"o":"m 1036 0 b 390 0 1036 0 390 0 b 83 236 168 0 83 96 b 83 742 83 236 83 742 b 390 978 83 882 168 978 b 1036 978 390 978 1036 978 b 1343 742 1258 978 1343 882 b 1343 236 1343 742 1343 236 b 1036 0 1343 96 1258 0 z m 1158 235 b 1158 743 1158 235 1158 743 b 1036 833 1158 801 1119 833 b 390 833 1036 833 390 833 b 268 743 307 833 268 801 b 268 235 268 743 268 235 b 390 144 268 176 307 144 b 1036 144 390 144 1036 144 b 1158 235 1119 144 1158 176 z m 899 1049 b 443 1103 899 1049 443 1103 b 443 1260 443 1103 443 1260 b 899 1164 443 1260 899 1164 b 899 1049 899 1164 899 1049 z "},"ó":{"ha":1426,"x_min":0,"x_max":0,"o":"m 1036 0 b 390 0 1036 0 390 0 b 83 236 168 0 83 96 b 83 742 83 236 83 742 b 390 978 83 882 168 978 b 1036 978 390 978 1036 978 b 1343 742 1258 978 1343 882 b 1343 236 1343 742 1343 236 b 1036 0 1343 96 1258 0 z m 1158 235 b 1158 743 1158 235 1158 743 b 1036 833 1158 801 1119 833 b 390 833 1036 833 390 833 b 268 743 307 833 268 801 b 268 235 268 743 268 235 b 390 144 268 176 307 144 b 1036 144 390 144 1036 144 b 1158 235 1119 144 1158 176 z m 982 1103 b 528 1049 982 1103 528 1049 b 528 1164 528 1049 528 1164 b 982 1260 528 1164 982 1260 b 982 1103 982 1260 982 1103 z "},"ô":{"ha":1426,"x_min":0,"x_max":0,"o":"m 1036 0 b 390 0 1036 0 390 0 b 83 236 168 0 83 96 b 83 742 83 236 83 742 b 390 978 83 882 168 978 b 1036 978 390 978 1036 978 b 1343 742 1258 978 1343 882 b 1343 236 1343 742 1343 236 b 1036 0 1343 96 1258 0 z m 1158 235 b 1158 743 1158 235 1158 743 b 1036 833 1158 801 1119 833 b 390 833 1036 833 390 833 b 268 743 307 833 268 801 b 268 235 268 743 268 235 b 390 144 268 176 307 144 b 1036 144 390 144 1036 144 b 1158 235 1119 144 1158 176 z m 957 1049 b 806 1049 957 1049 806 1049 b 719 1189 806 1049 719 1189 b 706 1189 719 1189 706 1189 b 622 1049 706 1189 622 1049 b 469 1049 622 1049 469 1049 b 614 1260 469 1049 614 1260 b 814 1260 614 1260 814 1260 b 957 1049 814 1260 957 1049 z "},"õ":{"ha":1426,"x_min":0,"x_max":0,"o":"m 1036 0 b 390 0 1036 0 390 0 b 83 236 168 0 83 96 b 83 742 83 236 83 742 b 390 978 83 882 168 978 b 1036 978 390 978 1036 978 b 1343 742 1258 978 1343 882 b 1343 236 1343 742 1343 236 b 1036 0 1343 96 1258 0 z m 1158 235 b 1158 743 1158 235 1158 743 b 1036 833 1158 801 1119 833 b 390 833 1036 833 390 833 b 268 743 307 833 268 801 b 268 235 268 743 268 235 b 390 144 268 176 307 144 b 1036 144 390 144 1036 144 b 1158 235 1119 144 1158 176 z m 940 1228 b 940 1114 940 1228 940 1114 b 824 1072 911 1083 869 1072 b 601 1129 746 1072 682 1129 b 485 1079 554 1129 510 1107 b 485 1194 485 1079 485 1194 b 601 1236 514 1224 556 1236 b 824 1178 682 1236 744 1178 b 940 1228 871 1178 914 1200 z "},"ö":{"ha":1426,"x_min":0,"x_max":0,"o":"m 1036 0 b 390 0 1036 0 390 0 b 83 236 168 0 83 96 b 83 742 83 236 83 742 b 390 978 83 882 168 978 b 1036 978 390 978 1036 978 b 1343 742 1258 978 1343 882 b 1343 236 1343 742 1343 236 b 1036 0 1343 96 1258 0 z m 1158 235 b 1158 743 1158 235 1158 743 b 1036 833 1158 801 1119 833 b 390 833 1036 833 390 833 b 268 743 307 833 268 801 b 268 235 268 743 268 235 b 390 144 268 176 307 144 b 1036 144 390 144 1036 144 b 1158 235 1119 144 1158 176 z m 619 1094 b 429 1094 619 1094 429 1094 b 429 1275 429 1094 429 1275 b 619 1275 429 1275 619 1275 b 619 1094 619 1275 619 1094 z m 997 1094 b 807 1094 997 1094 807 1094 b 807 1275 807 1094 807 1275 b 997 1275 807 1275 997 1275 b 997 1094 997 1275 997 1094 z "},"÷":{"ha":754,"x_min":0,"x_max":0,"o":"m 697 453 b 56 453 697 453 56 453 b 56 556 56 453 56 556 b 697 556 56 556 697 556 b 697 453 697 556 697 453 z m 486 708 b 268 708 486 708 268 708 b 268 889 268 708 268 889 b 486 889 268 889 486 889 b 486 708 486 889 486 708 z m 486 83 b 268 83 486 83 268 83 b 268 264 268 83 268 264 b 486 264 268 264 486 264 b 486 83 486 264 486 83 z "},"ø":{"ha":1426,"x_min":0,"x_max":0,"o":"m 1036 0 b 390 0 1036 0 390 0 b 311 4 361 0 336 1 b 218 -96 311 4 218 -96 b 153 -42 218 -96 153 -42 b 217 28 153 -42 217 28 b 83 236 122 65 83 140 b 83 742 83 236 83 742 b 390 978 83 882 168 978 b 1036 978 390 978 1036 978 b 1101 975 1060 978 1081 976 b 1210 1090 1101 975 1210 1090 b 1272 1033 1210 1090 1272 1033 b 1197 954 1272 1033 1197 954 b 1343 742 1300 917 1343 840 b 1343 236 1343 742 1343 236 b 1036 0 1343 96 1258 0 z m 1158 235 b 1158 743 1158 235 1158 743 b 1082 829 1158 789 1133 819 b 443 144 1082 829 443 144 b 1036 144 443 144 1036 144 b 1158 235 1119 144 1158 176 z m 332 151 b 969 833 332 151 969 833 b 390 833 969 833 390 833 b 268 743 307 833 268 801 b 268 235 268 743 268 235 b 332 151 268 192 289 164 z "},"ù":{"ha":1393,"x_min":0,"x_max":0,"o":"m 1039 0 b 393 0 1039 0 393 0 b 86 236 171 0 86 96 b 86 978 86 236 86 978 b 271 978 86 978 271 978 b 271 235 271 978 271 235 b 393 144 271 176 310 144 b 1000 144 393 144 1000 144 b 1122 235 1083 144 1122 176 b 1122 978 1122 235 1122 978 b 1307 978 1122 978 1307 978 b 1307 236 1307 978 1307 236 b 1039 0 1307 96 1261 0 z m 882 1049 b 426 1103 882 1049 426 1103 b 426 1260 426 1103 426 1260 b 882 1164 426 1260 882 1164 b 882 1049 882 1164 882 1049 z "},"ú":{"ha":1393,"x_min":0,"x_max":0,"o":"m 1039 0 b 393 0 1039 0 393 0 b 86 236 171 0 86 96 b 86 978 86 236 86 978 b 271 978 86 978 271 978 b 271 235 271 978 271 235 b 393 144 271 176 310 144 b 1000 144 393 144 1000 144 b 1122 235 1083 144 1122 176 b 1122 978 1122 235 1122 978 b 1307 978 1122 978 1307 978 b 1307 236 1307 978 1307 236 b 1039 0 1307 96 1261 0 z m 965 1103 b 511 1049 965 1103 511 1049 b 511 1164 511 1049 511 1164 b 965 1260 511 1164 965 1260 b 965 1103 965 1260 965 1103 z "},"û":{"ha":1393,"x_min":0,"x_max":0,"o":"m 1039 0 b 393 0 1039 0 393 0 b 86 236 171 0 86 96 b 86 978 86 236 86 978 b 271 978 86 978 271 978 b 271 235 271 978 271 235 b 393 144 271 176 310 144 b 1000 144 393 144 1000 144 b 1122 235 1083 144 1122 176 b 1122 978 1122 235 1122 978 b 1307 978 1122 978 1307 978 b 1307 236 1307 978 1307 236 b 1039 0 1307 96 1261 0 z m 940 1049 b 789 1049 940 1049 789 1049 b 703 1189 789 1049 703 1189 b 689 1189 703 1189 689 1189 b 606 1049 689 1189 606 1049 b 453 1049 606 1049 453 1049 b 597 1260 453 1049 597 1260 b 797 1260 597 1260 797 1260 b 940 1049 797 1260 940 1049 z "},"ü":{"ha":1393,"x_min":0,"x_max":0,"o":"m 1039 0 b 393 0 1039 0 393 0 b 86 236 171 0 86 96 b 86 978 86 236 86 978 b 271 978 86 978 271 978 b 271 235 271 978 271 235 b 393 144 271 176 310 144 b 1000 144 393 144 1000 144 b 1122 235 1083 144 1122 176 b 1122 978 1122 235 1122 978 b 1307 978 1122 978 1307 978 b 1307 236 1307 978 1307 236 b 1039 0 1307 96 1261 0 z m 603 1094 b 413 1094 603 1094 413 1094 b 413 1275 413 1094 413 1275 b 603 1275 413 1275 603 1275 b 603 1094 603 1275 603 1094 z m 981 1094 b 790 1094 981 1094 790 1094 b 790 1275 790 1094 790 1275 b 981 1275 790 1275 981 1275 b 981 1094 981 1275 981 1094 z "},"ý":{"ha":1436,"x_min":0,"x_max":0,"o":"m 813 0 b 628 0 813 0 628 0 b 628 397 628 0 628 397 b 0 978 628 397 0 978 b 236 978 0 978 236 978 b 719 531 236 978 719 531 b 1203 978 719 531 1203 978 b 1436 978 1203 978 1436 978 b 813 397 1436 978 813 397 b 813 0 813 397 813 0 z m 988 1103 b 533 1049 988 1103 533 1049 b 533 1164 533 1049 533 1164 b 988 1260 533 1164 988 1260 b 988 1103 988 1260 988 1103 z "},"þ":{"ha":1161,"x_min":0,"x_max":0,"o":"m 803 139 b 275 139 803 139 275 139 b 275 0 275 139 275 0 b 90 0 275 0 90 0 b 90 978 90 0 90 978 b 275 978 90 978 275 978 b 275 838 275 978 275 838 b 803 838 275 838 803 838 b 1110 601 1025 838 1110 742 b 1110 375 1110 601 1110 375 b 803 139 1110 235 1025 139 z m 925 374 b 925 603 925 374 925 603 b 803 693 925 661 886 693 b 275 693 803 693 275 693 b 275 283 275 693 275 283 b 803 283 275 283 803 283 b 925 374 886 283 925 315 z "},"ÿ":{"ha":1436,"x_min":0,"x_max":0,"o":"m 813 0 b 628 0 813 0 628 0 b 628 397 628 0 628 397 b 0 978 628 397 0 978 b 236 978 0 978 236 978 b 719 531 236 978 719 531 b 1203 978 719 531 1203 978 b 1436 978 1203 978 1436 978 b 813 397 1436 978 813 397 b 813 0 813 397 813 0 z m 624 1094 b 433 1094 624 1094 433 1094 b 433 1275 433 1094 433 1275 b 624 1275 433 1275 624 1275 b 624 1094 624 1275 624 1094 z m 1001 1094 b 811 1094 1001 1094 811 1094 b 811 1275 811 1094 811 1275 b 1001 1275 811 1275 1001 1275 b 1001 1094 1001 1275 1001 1094 z "},"Ā":{"ha":1431,"x_min":0,"x_max":0,"o":"m 1431 0 b 1222 0 1431 0 1222 0 b 718 788 1222 0 718 788 b 206 0 718 788 206 0 b 0 0 206 0 0 0 b 650 978 0 0 650 978 b 785 978 650 978 785 978 b 1431 0 785 978 1431 0 z m 943 1097 b 488 1097 943 1097 488 1097 b 488 1213 488 1097 488 1213 b 943 1213 488 1213 943 1213 b 943 1097 943 1213 943 1097 z "},"ā":{"ha":1431,"x_min":0,"x_max":0,"o":"m 1431 0 b 1222 0 1431 0 1222 0 b 718 788 1222 0 718 788 b 206 0 718 788 206 0 b 0 0 206 0 0 0 b 650 978 0 0 650 978 b 785 978 650 978 785 978 b 1431 0 785 978 1431 0 z m 943 1097 b 488 1097 943 1097 488 1097 b 488 1213 488 1097 488 1213 b 943 1213 488 1213 943 1213 b 943 1097 943 1213 943 1097 z "},"Ă":{"ha":1431,"x_min":0,"x_max":0,"o":"m 1431 0 b 1222 0 1431 0 1222 0 b 718 788 1222 0 718 788 b 206 0 718 788 206 0 b 0 0 206 0 0 0 b 650 978 0 0 650 978 b 785 978 650 978 785 978 b 1431 0 785 978 1431 0 z m 763 1049 b 668 1049 763 1049 668 1049 b 471 1260 522 1049 471 1188 b 624 1260 471 1260 624 1260 b 708 1133 624 1218 642 1133 b 731 1133 708 1133 731 1133 b 807 1260 790 1133 807 1218 b 958 1260 807 1260 958 1260 b 763 1049 958 1188 907 1049 z "},"ă":{"ha":1431,"x_min":0,"x_max":0,"o":"m 1431 0 b 1222 0 1431 0 1222 0 b 718 788 1222 0 718 788 b 206 0 718 788 206 0 b 0 0 206 0 0 0 b 650 978 0 0 650 978 b 785 978 650 978 785 978 b 1431 0 785 978 1431 0 z m 763 1049 b 668 1049 763 1049 668 1049 b 471 1260 522 1049 471 1188 b 624 1260 471 1260 624 1260 b 708 1133 624 1218 642 1133 b 731 1133 708 1133 731 1133 b 807 1260 790 1133 807 1218 b 958 1260 807 1260 958 1260 b 763 1049 958 1188 907 1049 z "},"Ą":{"ha":1431,"x_min":0,"x_max":0,"o":"m 1431 -312 b 1260 -312 1431 -312 1260 -312 b 1129 -201 1175 -312 1129 -261 b 1197 -81 1129 -160 1151 -114 b 1307 0 1197 -81 1307 0 b 1222 0 1307 0 1222 0 b 718 788 1222 0 718 788 b 206 0 718 788 206 0 b 0 0 206 0 0 0 b 650 978 0 0 650 978 b 785 978 650 978 785 978 b 1431 0 785 978 1431 0 b 1269 -117 1431 0 1269 -117 b 1256 -144 1260 -124 1256 -135 b 1283 -168 1256 -157 1264 -168 b 1431 -168 1283 -168 1431 -168 b 1431 -312 1431 -168 1431 -312 z "},"ą":{"ha":1431,"x_min":0,"x_max":0,"o":"m 1431 -312 b 1260 -312 1431 -312 1260 -312 b 1129 -201 1175 -312 1129 -261 b 1197 -81 1129 -160 1151 -114 b 1307 0 1197 -81 1307 0 b 1222 0 1307 0 1222 0 b 718 788 1222 0 718 788 b 206 0 718 788 206 0 b 0 0 206 0 0 0 b 650 978 0 0 650 978 b 785 978 650 978 785 978 b 1431 0 785 978 1431 0 b 1269 -117 1431 0 1269 -117 b 1256 -144 1260 -124 1256 -135 b 1283 -168 1256 -157 1264 -168 b 1431 -168 1283 -168 1431 -168 b 1431 -312 1431 -168 1431 -312 z "},"Ć":{"ha":1243,"x_min":0,"x_max":0,"o":"m 1178 0 b 390 0 1178 0 390 0 b 83 236 168 0 83 96 b 83 742 83 236 83 742 b 390 978 83 882 168 978 b 1178 978 390 978 1178 978 b 1178 833 1178 978 1178 833 b 390 833 1178 833 390 833 b 268 743 307 833 268 801 b 268 235 268 743 268 235 b 390 144 268 176 307 144 b 1178 144 390 144 1178 144 b 1178 0 1178 144 1178 0 z m 904 1103 b 450 1049 904 1103 450 1049 b 450 1164 450 1049 450 1164 b 904 1260 450 1164 904 1260 b 904 1103 904 1260 904 1103 z "},"ć":{"ha":1243,"x_min":0,"x_max":0,"o":"m 1178 0 b 390 0 1178 0 390 0 b 83 236 168 0 83 96 b 83 742 83 236 83 742 b 390 978 83 882 168 978 b 1178 978 390 978 1178 978 b 1178 833 1178 978 1178 833 b 390 833 1178 833 390 833 b 268 743 307 833 268 801 b 268 235 268 743 268 235 b 390 144 268 176 307 144 b 1178 144 390 144 1178 144 b 1178 0 1178 144 1178 0 z m 904 1103 b 450 1049 904 1103 450 1049 b 450 1164 450 1049 450 1164 b 904 1260 450 1164 904 1260 b 904 1103 904 1260 904 1103 z "},"Ċ":{"ha":1243,"x_min":0,"x_max":0,"o":"m 1178 0 b 390 0 1178 0 390 0 b 83 236 168 0 83 96 b 83 742 83 236 83 742 b 390 978 83 882 168 978 b 1178 978 390 978 1178 978 b 1178 833 1178 978 1178 833 b 390 833 1178 833 390 833 b 268 743 307 833 268 801 b 268 235 268 743 268 235 b 390 144 268 176 307 144 b 1178 144 390 144 1178 144 b 1178 0 1178 144 1178 0 z m 758 1094 b 568 1094 758 1094 568 1094 b 568 1275 568 1094 568 1275 b 758 1275 568 1275 758 1275 b 758 1094 758 1275 758 1094 z "},"ċ":{"ha":1243,"x_min":0,"x_max":0,"o":"m 1178 0 b 390 0 1178 0 390 0 b 83 236 168 0 83 96 b 83 742 83 236 83 742 b 390 978 83 882 168 978 b 1178 978 390 978 1178 978 b 1178 833 1178 978 1178 833 b 390 833 1178 833 390 833 b 268 743 307 833 268 801 b 268 235 268 743 268 235 b 390 144 268 176 307 144 b 1178 144 390 144 1178 144 b 1178 0 1178 144 1178 0 z m 758 1094 b 568 1094 758 1094 568 1094 b 568 1275 568 1094 568 1275 b 758 1275 568 1275 758 1275 b 758 1094 758 1275 758 1094 z "},"Č":{"ha":1243,"x_min":0,"x_max":0,"o":"m 1178 0 b 390 0 1178 0 390 0 b 83 236 168 0 83 96 b 83 742 83 236 83 742 b 390 978 83 882 168 978 b 1178 978 390 978 1178 978 b 1178 833 1178 978 1178 833 b 390 833 1178 833 390 833 b 268 743 307 833 268 801 b 268 235 268 743 268 235 b 390 144 268 176 307 144 b 1178 144 390 144 1178 144 b 1178 0 1178 144 1178 0 z m 763 1049 b 563 1049 763 1049 563 1049 b 419 1260 563 1049 419 1260 b 572 1260 419 1260 572 1260 b 657 1119 572 1260 657 1119 b 671 1119 657 1119 671 1119 b 756 1260 671 1119 756 1260 b 907 1260 756 1260 907 1260 b 763 1049 907 1260 763 1049 z "},"č":{"ha":1243,"x_min":0,"x_max":0,"o":"m 1178 0 b 390 0 1178 0 390 0 b 83 236 168 0 83 96 b 83 742 83 236 83 742 b 390 978 83 882 168 978 b 1178 978 390 978 1178 978 b 1178 833 1178 978 1178 833 b 390 833 1178 833 390 833 b 268 743 307 833 268 801 b 268 235 268 743 268 235 b 390 144 268 176 307 144 b 1178 144 390 144 1178 144 b 1178 0 1178 144 1178 0 z m 763 1049 b 563 1049 763 1049 563 1049 b 419 1260 563 1049 419 1260 b 572 1260 419 1260 572 1260 b 657 1119 572 1260 657 1119 b 671 1119 657 1119 671 1119 b 756 1260 671 1119 756 1260 b 907 1260 756 1260 907 1260 b 763 1049 907 1260 763 1049 z "},"Ď":{"ha":1431,"x_min":0,"x_max":0,"o":"m 986 0 b 90 0 986 0 90 0 b 90 978 90 0 90 978 b 986 978 90 978 986 978 b 1347 689 1263 978 1347 882 b 1347 279 1347 689 1347 279 b 986 0 1347 96 1263 0 z m 1163 281 b 1163 689 1163 281 1163 689 b 986 833 1163 801 1124 833 b 275 833 986 833 275 833 b 275 144 275 833 275 144 b 986 144 275 144 986 144 b 1163 281 1124 144 1163 176 z m 786 1049 b 586 1049 786 1049 586 1049 b 443 1260 586 1049 443 1260 b 596 1260 443 1260 596 1260 b 681 1119 596 1260 681 1119 b 694 1119 681 1119 694 1119 b 779 1260 694 1119 779 1260 b 931 1260 779 1260 931 1260 b 786 1049 931 1260 786 1049 z "},"ď":{"ha":1431,"x_min":0,"x_max":0,"o":"m 986 0 b 90 0 986 0 90 0 b 90 978 90 0 90 978 b 986 978 90 978 986 978 b 1347 689 1263 978 1347 882 b 1347 279 1347 689 1347 279 b 986 0 1347 96 1263 0 z m 1163 281 b 1163 689 1163 281 1163 689 b 986 833 1163 801 1124 833 b 275 833 986 833 275 833 b 275 144 275 833 275 144 b 986 144 275 144 986 144 b 1163 281 1124 144 1163 176 z m 786 1049 b 586 1049 786 1049 586 1049 b 443 1260 586 1049 443 1260 b 596 1260 443 1260 596 1260 b 681 1119 596 1260 681 1119 b 694 1119 681 1119 694 1119 b 779 1260 694 1119 779 1260 b 931 1260 779 1260 931 1260 b 786 1049 931 1260 786 1049 z "},"Đ":{"ha":1431,"x_min":0,"x_max":0,"o":"m 986 0 b 90 0 986 0 90 0 b 90 444 90 0 90 444 b 0 444 90 444 0 444 b 0 589 0 444 0 589 b 90 589 0 589 90 589 b 90 978 90 589 90 978 b 986 978 90 978 986 978 b 1347 689 1263 978 1347 882 b 1347 279 1347 689 1347 279 b 986 0 1347 96 1263 0 z m 1163 281 b 1163 689 1163 281 1163 689 b 986 833 1163 801 1124 833 b 275 833 986 833 275 833 b 275 589 275 833 275 589 b 721 589 275 589 721 589 b 721 444 721 589 721 444 b 275 444 721 444 275 444 b 275 144 275 444 275 144 b 986 144 275 144 986 144 b 1163 281 1124 144 1163 176 z "},"đ":{"ha":1431,"x_min":0,"x_max":0,"o":"m 986 0 b 90 0 986 0 90 0 b 90 444 90 0 90 444 b 0 444 90 444 0 444 b 0 589 0 444 0 589 b 90 589 0 589 90 589 b 90 978 90 589 90 978 b 986 978 90 978 986 978 b 1347 689 1263 978 1347 882 b 1347 279 1347 689 1347 279 b 986 0 1347 96 1263 0 z m 1163 281 b 1163 689 1163 281 1163 689 b 986 833 1163 801 1124 833 b 275 833 986 833 275 833 b 275 589 275 833 275 589 b 721 589 275 589 721 589 b 721 444 721 589 721 444 b 275 444 721 444 275 444 b 275 144 275 444 275 144 b 986 144 275 144 986 144 b 1163 281 1124 144 1163 176 z "},"Ē":{"ha":1163,"x_min":0,"x_max":0,"o":"m 1096 0 b 90 0 1096 0 90 0 b 90 978 90 0 90 978 b 1096 978 90 978 1096 978 b 1096 833 1096 978 1096 833 b 275 833 1096 833 275 833 b 275 589 275 833 275 589 b 1054 589 275 589 1054 589 b 1054 444 1054 589 1054 444 b 275 444 1054 444 275 444 b 275 144 275 444 275 144 b 1096 144 275 144 1096 144 b 1096 0 1096 144 1096 0 z m 822 1097 b 367 1097 822 1097 367 1097 b 367 1213 367 1097 367 1213 b 822 1213 367 1213 822 1213 b 822 1097 822 1213 822 1097 z "},"ē":{"ha":1163,"x_min":0,"x_max":0,"o":"m 1096 0 b 90 0 1096 0 90 0 b 90 978 90 0 90 978 b 1096 978 90 978 1096 978 b 1096 833 1096 978 1096 833 b 275 833 1096 833 275 833 b 275 589 275 833 275 589 b 1054 589 275 589 1054 589 b 1054 444 1054 589 1054 444 b 275 444 1054 444 275 444 b 275 144 275 444 275 144 b 1096 144 275 144 1096 144 b 1096 0 1096 144 1096 0 z m 822 1097 b 367 1097 822 1097 367 1097 b 367 1213 367 1097 367 1213 b 822 1213 367 1213 822 1213 b 822 1097 822 1213 822 1097 z "},"Ė":{"ha":1163,"x_min":0,"x_max":0,"o":"m 1096 0 b 90 0 1096 0 90 0 b 90 978 90 0 90 978 b 1096 978 90 978 1096 978 b 1096 833 1096 978 1096 833 b 275 833 1096 833 275 833 b 275 589 275 833 275 589 b 1054 589 275 589 1054 589 b 1054 444 1054 589 1054 444 b 275 444 1054 444 275 444 b 275 144 275 444 275 144 b 1096 144 275 144 1096 144 b 1096 0 1096 144 1096 0 z m 690 1094 b 500 1094 690 1094 500 1094 b 500 1275 500 1094 500 1275 b 690 1275 500 1275 690 1275 b 690 1094 690 1275 690 1094 z "},"ė":{"ha":1163,"x_min":0,"x_max":0,"o":"m 1096 0 b 90 0 1096 0 90 0 b 90 978 90 0 90 978 b 1096 978 90 978 1096 978 b 1096 833 1096 978 1096 833 b 275 833 1096 833 275 833 b 275 589 275 833 275 589 b 1054 589 275 589 1054 589 b 1054 444 1054 589 1054 444 b 275 444 1054 444 275 444 b 275 144 275 444 275 144 b 1096 144 275 144 1096 144 b 1096 0 1096 144 1096 0 z m 690 1094 b 500 1094 690 1094 500 1094 b 500 1275 500 1094 500 1275 b 690 1275 500 1275 690 1275 b 690 1094 690 1275 690 1094 z "},"Ę":{"ha":1163,"x_min":0,"x_max":0,"o":"m 1096 -312 b 925 -312 1096 -312 925 -312 b 794 -201 840 -312 794 -261 b 863 -81 794 -160 817 -114 b 972 0 863 -81 972 0 b 90 0 972 0 90 0 b 90 978 90 0 90 978 b 1096 978 90 978 1096 978 b 1096 833 1096 978 1096 833 b 275 833 1096 833 275 833 b 275 589 275 833 275 589 b 1054 589 275 589 1054 589 b 1054 444 1054 589 1054 444 b 275 444 1054 444 275 444 b 275 144 275 444 275 144 b 1096 144 275 144 1096 144 b 1096 0 1096 144 1096 0 b 935 -117 1096 0 935 -117 b 921 -144 925 -124 921 -135 b 949 -168 921 -157 929 -168 b 1096 -168 949 -168 1096 -168 b 1096 -312 1096 -168 1096 -312 z "},"ę":{"ha":1163,"x_min":0,"x_max":0,"o":"m 1096 -312 b 925 -312 1096 -312 925 -312 b 794 -201 840 -312 794 -261 b 863 -81 794 -160 817 -114 b 972 0 863 -81 972 0 b 90 0 972 0 90 0 b 90 978 90 0 90 978 b 1096 978 90 978 1096 978 b 1096 833 1096 978 1096 833 b 275 833 1096 833 275 833 b 275 589 275 833 275 589 b 1054 589 275 589 1054 589 b 1054 444 1054 589 1054 444 b 275 444 1054 444 275 444 b 275 144 275 444 275 144 b 1096 144 275 144 1096 144 b 1096 0 1096 144 1096 0 b 935 -117 1096 0 935 -117 b 921 -144 925 -124 921 -135 b 949 -168 921 -157 929 -168 b 1096 -168 949 -168 1096 -168 b 1096 -312 1096 -168 1096 -312 z "},"Ě":{"ha":1163,"x_min":0,"x_max":0,"o":"m 1096 0 b 90 0 1096 0 90 0 b 90 978 90 0 90 978 b 1096 978 90 978 1096 978 b 1096 833 1096 978 1096 833 b 275 833 1096 833 275 833 b 275 589 275 833 275 589 b 1054 589 275 589 1054 589 b 1054 444 1054 589 1054 444 b 275 444 1054 444 275 444 b 275 144 275 444 275 144 b 1096 144 275 144 1096 144 b 1096 0 1096 144 1096 0 z m 694 1049 b 494 1049 694 1049 494 1049 b 351 1260 494 1049 351 1260 b 504 1260 351 1260 504 1260 b 589 1119 504 1260 589 1119 b 603 1119 589 1119 603 1119 b 688 1260 603 1119 688 1260 b 839 1260 688 1260 839 1260 b 694 1049 839 1260 694 1049 z "},"ě":{"ha":1163,"x_min":0,"x_max":0,"o":"m 1096 0 b 90 0 1096 0 90 0 b 90 978 90 0 90 978 b 1096 978 90 978 1096 978 b 1096 833 1096 978 1096 833 b 275 833 1096 833 275 833 b 275 589 275 833 275 589 b 1054 589 275 589 1054 589 b 1054 444 1054 589 1054 444 b 275 444 1054 444 275 444 b 275 144 275 444 275 144 b 1096 144 275 144 1096 144 b 1096 0 1096 144 1096 0 z m 694 1049 b 494 1049 694 1049 494 1049 b 351 1260 494 1049 351 1260 b 504 1260 351 1260 504 1260 b 589 1119 504 1260 589 1119 b 603 1119 589 1119 603 1119 b 688 1260 603 1119 688 1260 b 839 1260 688 1260 839 1260 b 694 1049 839 1260 694 1049 z "},"Ğ":{"ha":1293,"x_min":0,"x_max":0,"o":"m 864 0 b 432 0 864 0 432 0 b 83 211 200 0 83 71 b 83 767 83 211 83 767 b 432 978 83 907 200 978 b 1197 978 432 978 1197 978 b 1197 833 1197 978 1197 833 b 432 833 1197 833 432 833 b 268 767 322 833 268 811 b 268 211 268 767 268 211 b 432 144 268 167 322 144 b 864 144 432 144 864 144 b 1028 208 974 144 1028 165 b 1028 533 1028 208 1028 533 b 1213 533 1028 533 1213 533 b 1213 208 1213 533 1213 208 b 864 0 1213 69 1096 0 z m 711 1039 b 617 1039 711 1039 617 1039 b 419 1250 471 1039 419 1178 b 572 1250 419 1250 572 1250 b 657 1124 572 1208 590 1124 b 679 1124 657 1124 679 1124 b 756 1250 739 1124 756 1208 b 907 1250 756 1250 907 1250 b 711 1039 907 1178 856 1039 z "},"ğ":{"ha":1293,"x_min":0,"x_max":0,"o":"m 864 0 b 432 0 864 0 432 0 b 83 211 200 0 83 71 b 83 767 83 211 83 767 b 432 978 83 907 200 978 b 1197 978 432 978 1197 978 b 1197 833 1197 978 1197 833 b 432 833 1197 833 432 833 b 268 767 322 833 268 811 b 268 211 268 767 268 211 b 432 144 268 167 322 144 b 864 144 432 144 864 144 b 1028 208 974 144 1028 165 b 1028 533 1028 208 1028 533 b 1213 533 1028 533 1213 533 b 1213 208 1213 533 1213 208 b 864 0 1213 69 1096 0 z m 711 1039 b 617 1039 711 1039 617 1039 b 419 1250 471 1039 419 1178 b 572 1250 419 1250 572 1250 b 657 1124 572 1208 590 1124 b 679 1124 657 1124 679 1124 b 756 1250 739 1124 756 1208 b 907 1250 756 1250 907 1250 b 711 1039 907 1178 856 1039 z "},"Ġ":{"ha":1293,"x_min":0,"x_max":0,"o":"m 864 0 b 432 0 864 0 432 0 b 83 211 200 0 83 71 b 83 767 83 211 83 767 b 432 978 83 907 200 978 b 1197 978 432 978 1197 978 b 1197 833 1197 978 1197 833 b 432 833 1197 833 432 833 b 268 767 322 833 268 811 b 268 211 268 767 268 211 b 432 144 268 167 322 144 b 864 144 432 144 864 144 b 1028 208 974 144 1028 165 b 1028 533 1028 208 1028 533 b 1213 533 1028 533 1213 533 b 1213 208 1213 533 1213 208 b 864 0 1213 69 1096 0 z m 742 1094 b 551 1094 742 1094 551 1094 b 551 1275 551 1094 551 1275 b 742 1275 551 1275 742 1275 b 742 1094 742 1275 742 1094 z "},"ġ":{"ha":1293,"x_min":0,"x_max":0,"o":"m 864 0 b 432 0 864 0 432 0 b 83 211 200 0 83 71 b 83 767 83 211 83 767 b 432 978 83 907 200 978 b 1197 978 432 978 1197 978 b 1197 833 1197 978 1197 833 b 432 833 1197 833 432 833 b 268 767 322 833 268 811 b 268 211 268 767 268 211 b 432 144 268 167 322 144 b 864 144 432 144 864 144 b 1028 208 974 144 1028 165 b 1028 533 1028 208 1028 533 b 1213 533 1028 533 1213 533 b 1213 208 1213 533 1213 208 b 864 0 1213 69 1096 0 z m 742 1094 b 551 1094 742 1094 551 1094 b 551 1275 551 1094 551 1275 b 742 1275 551 1275 742 1275 b 742 1094 742 1275 742 1094 z "},"Ģ":{"ha":1293,"x_min":0,"x_max":0,"o":"m 864 0 b 432 0 864 0 432 0 b 83 211 200 0 83 71 b 83 767 83 211 83 767 b 432 978 83 907 200 978 b 1197 978 432 978 1197 978 b 1197 833 1197 978 1197 833 b 432 833 1197 833 432 833 b 268 767 322 833 268 811 b 268 211 268 767 268 211 b 432 144 268 167 322 144 b 864 144 432 144 864 144 b 1028 208 974 144 1028 165 b 1028 533 1028 208 1028 533 b 1213 533 1028 533 1213 533 b 1213 208 1213 533 1213 208 b 864 0 1213 69 1096 0 z m 625 -333 b 551 -333 625 -333 551 -333 b 551 -51 551 -333 551 -51 b 742 -51 551 -51 742 -51 b 742 -135 742 -51 742 -135 b 625 -333 742 -135 625 -333 z "},"ģ":{"ha":1293,"x_min":0,"x_max":0,"o":"m 864 0 b 432 0 864 0 432 0 b 83 211 200 0 83 71 b 83 767 83 211 83 767 b 432 978 83 907 200 978 b 1197 978 432 978 1197 978 b 1197 833 1197 978 1197 833 b 432 833 1197 833 432 833 b 268 767 322 833 268 811 b 268 211 268 767 268 211 b 432 144 268 167 322 144 b 864 144 432 144 864 144 b 1028 208 974 144 1028 165 b 1028 533 1028 208 1028 533 b 1213 533 1028 533 1213 533 b 1213 208 1213 533 1213 208 b 864 0 1213 69 1096 0 z m 625 -333 b 551 -333 625 -333 551 -333 b 551 -51 551 -333 551 -51 b 742 -51 551 -51 742 -51 b 742 -135 742 -51 742 -135 b 625 -333 742 -135 625 -333 z "},"Ħ":{"ha":1350,"x_min":0,"x_max":0,"o":"m 1260 0 b 1075 0 1260 0 1075 0 b 1075 444 1075 0 1075 444 b 275 444 1075 444 275 444 b 275 0 275 444 275 0 b 90 0 275 0 90 0 b 90 978 90 0 90 978 b 275 978 90 978 275 978 b 275 851 275 978 275 851 b 1075 851 275 851 1075 851 b 1075 978 1075 851 1075 978 b 1260 978 1075 978 1260 978 b 1260 0 1260 978 1260 0 z m 275 589 b 1075 589 275 589 1075 589 b 1075 736 1075 589 1075 736 b 275 736 1075 736 275 736 b 275 589 275 736 275 589 z "},"ħ":{"ha":1350,"x_min":0,"x_max":0,"o":"m 1260 0 b 1075 0 1260 0 1075 0 b 1075 444 1075 0 1075 444 b 275 444 1075 444 275 444 b 275 0 275 444 275 0 b 90 0 275 0 90 0 b 90 978 90 0 90 978 b 275 978 90 978 275 978 b 275 851 275 978 275 851 b 1075 851 275 851 1075 851 b 1075 978 1075 851 1075 978 b 1260 978 1075 978 1260 978 b 1260 0 1260 978 1260 0 z m 275 589 b 1075 589 275 589 1075 589 b 1075 736 1075 589 1075 736 b 275 736 1075 736 275 736 b 275 589 275 736 275 589 z "},"Ī":{"ha":379,"x_min":0,"x_max":0,"o":"m 282 0 b 97 0 282 0 97 0 b 97 978 97 0 97 978 b 282 978 97 978 282 978 b 282 0 282 978 282 0 z m 418 1097 b -37 1097 418 1097 -37 1097 b -37 1213 -37 1097 -37 1213 b 418 1213 -37 1213 418 1213 b 418 1097 418 1213 418 1097 z "},"ī":{"ha":379,"x_min":0,"x_max":0,"o":"m 282 0 b 97 0 282 0 97 0 b 97 978 97 0 97 978 b 282 978 97 978 282 978 b 282 0 282 978 282 0 z m 418 1097 b -37 1097 418 1097 -37 1097 b -37 1213 -37 1097 -37 1213 b 418 1213 -37 1213 418 1213 b 418 1097 418 1213 418 1097 z "},"Ĭ":{"ha":379,"x_min":0,"x_max":0,"o":"m 282 0 b 97 0 282 0 97 0 b 97 978 97 0 97 978 b 282 978 97 978 282 978 b 282 0 282 978 282 0 z m 238 1049 b 143 1049 238 1049 143 1049 b -54 1260 -3 1049 -54 1188 b 99 1260 -54 1260 99 1260 b 183 1133 99 1218 117 1133 b 206 1133 183 1133 206 1133 b 282 1260 265 1133 282 1218 b 433 1260 282 1260 433 1260 b 238 1049 433 1188 382 1049 z "},"ĭ":{"ha":379,"x_min":0,"x_max":0,"o":"m 282 0 b 97 0 282 0 97 0 b 97 978 97 0 97 978 b 282 978 97 978 282 978 b 282 0 282 978 282 0 z m 238 1049 b 143 1049 238 1049 143 1049 b -54 1260 -3 1049 -54 1188 b 99 1260 -54 1260 99 1260 b 183 1133 99 1218 117 1133 b 206 1133 183 1133 206 1133 b 282 1260 265 1133 282 1218 b 433 1260 282 1260 433 1260 b 238 1049 433 1188 382 1049 z "},"Į":{"ha":379,"x_min":0,"x_max":0,"o":"m 282 -312 b 111 -312 282 -312 111 -312 b -19 -201 26 -312 -19 -261 b 49 -81 -19 -160 3 -114 b 158 0 49 -81 158 0 b 97 0 158 0 97 0 b 97 978 97 0 97 978 b 282 978 97 978 282 978 b 282 0 282 978 282 0 b 121 -117 282 0 121 -117 b 107 -144 111 -124 107 -135 b 135 -168 107 -157 115 -168 b 282 -168 135 -168 282 -168 b 282 -312 282 -168 282 -312 z "},"į":{"ha":379,"x_min":0,"x_max":0,"o":"m 282 -312 b 111 -312 282 -312 111 -312 b -19 -201 26 -312 -19 -261 b 49 -81 -19 -160 3 -114 b 158 0 49 -81 158 0 b 97 0 158 0 97 0 b 97 978 97 0 97 978 b 282 978 97 978 282 978 b 282 0 282 978 282 0 b 121 -117 282 0 121 -117 b 107 -144 111 -124 107 -135 b 135 -168 107 -157 115 -168 b 282 -168 135 -168 282 -168 b 282 -312 282 -168 282 -312 z "},"İ":{"ha":379,"x_min":0,"x_max":0,"o":"m 282 0 b 97 0 282 0 97 0 b 97 978 97 0 97 978 b 282 978 97 978 282 978 b 282 0 282 978 282 0 z m 285 1094 b 94 1094 285 1094 94 1094 b 94 1275 94 1094 94 1275 b 285 1275 94 1275 285 1275 b 285 1094 285 1275 285 1094 z "},"ı":{"ha":379,"x_min":0,"x_max":0,"o":"m 282 0 b 97 0 282 0 97 0 b 97 978 97 0 97 978 b 282 978 97 978 282 978 b 282 0 282 978 282 0 z "},"Ĳ":{"ha":1051,"x_min":0,"x_max":0,"o":"m 282 0 b 97 0 282 0 97 0 b 97 978 97 0 97 978 b 282 978 97 978 282 978 b 282 0 282 978 282 0 z m 660 0 b 392 0 660 0 392 0 b 392 144 392 0 392 144 b 660 144 392 144 660 144 b 781 208 744 144 781 165 b 781 978 781 208 781 978 b 965 978 781 978 965 978 b 965 208 965 978 965 208 b 660 0 965 88 876 0 z "},"ĳ":{"ha":1051,"x_min":0,"x_max":0,"o":"m 282 0 b 97 0 282 0 97 0 b 97 978 97 0 97 978 b 282 978 97 978 282 978 b 282 0 282 978 282 0 z m 660 0 b 392 0 660 0 392 0 b 392 144 392 0 392 144 b 660 144 392 144 660 144 b 781 208 744 144 781 165 b 781 978 781 208 781 978 b 965 978 781 978 965 978 b 965 208 965 978 965 208 b 660 0 965 88 876 0 z "},"Ķ":{"ha":1193,"x_min":0,"x_max":0,"o":"m 1175 0 b 963 0 1175 0 963 0 b 593 436 963 0 593 436 b 275 436 593 436 275 436 b 275 0 275 436 275 0 b 90 0 275 0 90 0 b 90 978 90 0 90 978 b 275 978 90 978 275 978 b 275 581 275 978 275 581 b 589 581 275 581 589 581 b 957 978 589 581 957 978 b 1176 978 957 978 1176 978 b 742 522 1176 978 742 522 b 1175 0 742 522 1175 0 z m 575 -333 b 501 -333 575 -333 501 -333 b 501 -51 501 -333 501 -51 b 692 -51 501 -51 692 -51 b 692 -135 692 -51 692 -135 b 575 -333 692 -135 575 -333 z "},"ķ":{"ha":1193,"x_min":0,"x_max":0,"o":"m 1175 0 b 963 0 1175 0 963 0 b 593 436 963 0 593 436 b 275 436 593 436 275 436 b 275 0 275 436 275 0 b 90 0 275 0 90 0 b 90 978 90 0 90 978 b 275 978 90 978 275 978 b 275 581 275 978 275 581 b 589 581 275 581 589 581 b 957 978 589 581 957 978 b 1176 978 957 978 1176 978 b 742 522 1176 978 742 522 b 1175 0 742 522 1175 0 z m 575 -333 b 501 -333 575 -333 501 -333 b 501 -51 501 -333 501 -51 b 692 -51 501 -51 692 -51 b 692 -135 692 -51 692 -135 b 575 -333 692 -135 575 -333 z "},"Ĺ":{"ha":1108,"x_min":0,"x_max":0,"o":"m 1069 0 b 90 0 1069 0 90 0 b 90 978 90 0 90 978 b 276 978 90 978 276 978 b 276 144 276 978 276 144 b 1069 144 276 144 1069 144 b 1069 0 1069 144 1069 0 z m 447 1103 b -7 1049 447 1103 -7 1049 b -7 1164 -7 1049 -7 1164 b 447 1260 -7 1164 447 1260 b 447 1103 447 1260 447 1103 z "},"ĺ":{"ha":1108,"x_min":0,"x_max":0,"o":"m 1069 0 b 90 0 1069 0 90 0 b 90 978 90 0 90 978 b 276 978 90 978 276 978 b 276 144 276 978 276 144 b 1069 144 276 144 1069 144 b 1069 0 1069 144 1069 0 z m 447 1103 b -7 1049 447 1103 -7 1049 b -7 1164 -7 1049 -7 1164 b 447 1260 -7 1164 447 1260 b 447 1103 447 1260 447 1103 z "},"Ļ":{"ha":1108,"x_min":0,"x_max":0,"o":"m 1069 0 b 90 0 1069 0 90 0 b 90 978 90 0 90 978 b 276 978 90 978 276 978 b 276 144 276 978 276 144 b 1069 144 276 144 1069 144 b 1069 0 1069 144 1069 0 z m 553 -333 b 479 -333 553 -333 479 -333 b 479 -51 479 -333 479 -51 b 669 -51 479 -51 669 -51 b 669 -135 669 -51 669 -135 b 553 -333 669 -135 553 -333 z "},"ļ":{"ha":1108,"x_min":0,"x_max":0,"o":"m 1069 0 b 90 0 1069 0 90 0 b 90 978 90 0 90 978 b 276 978 90 978 276 978 b 276 144 276 978 276 144 b 1069 144 276 144 1069 144 b 1069 0 1069 144 1069 0 z m 553 -333 b 479 -333 553 -333 479 -333 b 479 -51 479 -333 479 -51 b 669 -51 479 -51 669 -51 b 669 -135 669 -51 669 -135 b 553 -333 669 -135 553 -333 z "},"Ľ":{"ha":1108,"x_min":0,"x_max":0,"o":"m 1069 0 b 90 0 1069 0 90 0 b 90 978 90 0 90 978 b 276 978 90 978 276 978 b 276 144 276 978 276 144 b 1069 144 276 144 1069 144 b 1069 0 1069 144 1069 0 z m 494 696 b 421 696 494 696 421 696 b 421 978 421 696 421 978 b 611 978 421 978 611 978 b 611 894 611 978 611 894 b 494 696 611 894 494 696 z "},"ľ":{"ha":1108,"x_min":0,"x_max":0,"o":"m 1069 0 b 90 0 1069 0 90 0 b 90 978 90 0 90 978 b 276 978 90 978 276 978 b 276 144 276 978 276 144 b 1069 144 276 144 1069 144 b 1069 0 1069 144 1069 0 z m 494 696 b 421 696 494 696 421 696 b 421 978 421 696 421 978 b 611 978 421 978 611 978 b 611 894 611 978 611 894 b 494 696 611 894 494 696 z "},"Ł":{"ha":1125,"x_min":0,"x_max":0,"o":"m 1069 0 b 90 0 1069 0 90 0 b 90 978 90 0 90 978 b 276 978 90 978 276 978 b 276 561 276 978 276 561 b 629 697 276 561 629 697 b 629 542 629 697 629 542 b 276 406 629 542 276 406 b 276 144 276 406 276 144 b 1069 144 276 144 1069 144 b 1069 0 1069 144 1069 0 z "},"ł":{"ha":1125,"x_min":0,"x_max":0,"o":"m 1069 0 b 90 0 1069 0 90 0 b 90 978 90 0 90 978 b 276 978 90 978 276 978 b 276 561 276 978 276 561 b 629 697 276 561 629 697 b 629 542 629 697 629 542 b 276 406 629 542 276 406 b 276 144 276 406 276 144 b 1069 144 276 144 1069 144 b 1069 0 1069 144 1069 0 z "},"Ń":{"ha":1475,"x_min":0,"x_max":0,"o":"m 1385 0 b 1294 0 1385 0 1294 0 b 251 761 1294 0 251 761 b 251 0 251 761 251 0 b 90 0 251 0 90 0 b 90 978 90 0 90 978 b 250 978 90 978 250 978 b 1224 251 250 978 1224 251 b 1224 978 1224 251 1224 978 b 1385 978 1224 978 1385 978 b 1385 0 1385 978 1385 0 z m 1006 1103 b 551 1049 1006 1103 551 1049 b 551 1164 551 1049 551 1164 b 1006 1260 551 1164 1006 1260 b 1006 1103 1006 1260 1006 1103 z "},"ń":{"ha":1475,"x_min":0,"x_max":0,"o":"m 1385 0 b 1294 0 1385 0 1294 0 b 251 761 1294 0 251 761 b 251 0 251 761 251 0 b 90 0 251 0 90 0 b 90 978 90 0 90 978 b 250 978 90 978 250 978 b 1224 251 250 978 1224 251 b 1224 978 1224 251 1224 978 b 1385 978 1224 978 1385 978 b 1385 0 1385 978 1385 0 z m 1006 1103 b 551 1049 1006 1103 551 1049 b 551 1164 551 1049 551 1164 b 1006 1260 551 1164 1006 1260 b 1006 1103 1006 1260 1006 1103 z "},"Ņ":{"ha":1475,"x_min":0,"x_max":0,"o":"m 1385 0 b 1294 0 1385 0 1294 0 b 251 761 1294 0 251 761 b 251 0 251 761 251 0 b 90 0 251 0 90 0 b 90 978 90 0 90 978 b 250 978 90 978 250 978 b 1224 251 250 978 1224 251 b 1224 978 1224 251 1224 978 b 1385 978 1224 978 1385 978 b 1385 0 1385 978 1385 0 z m 715 -333 b 642 -333 715 -333 642 -333 b 642 -51 642 -333 642 -51 b 832 -51 642 -51 832 -51 b 832 -135 832 -51 832 -135 b 715 -333 832 -135 715 -333 z "},"ņ":{"ha":1475,"x_min":0,"x_max":0,"o":"m 1385 0 b 1294 0 1385 0 1294 0 b 251 761 1294 0 251 761 b 251 0 251 761 251 0 b 90 0 251 0 90 0 b 90 978 90 0 90 978 b 250 978 90 978 250 978 b 1224 251 250 978 1224 251 b 1224 978 1224 251 1224 978 b 1385 978 1224 978 1385 978 b 1385 0 1385 978 1385 0 z m 715 -333 b 642 -333 715 -333 642 -333 b 642 -51 642 -333 642 -51 b 832 -51 642 -51 832 -51 b 832 -135 832 -51 832 -135 b 715 -333 832 -135 715 -333 z "},"Ň":{"ha":1475,"x_min":0,"x_max":0,"o":"m 1385 0 b 1294 0 1385 0 1294 0 b 251 761 1294 0 251 761 b 251 0 251 761 251 0 b 90 0 251 0 90 0 b 90 978 90 0 90 978 b 250 978 90 978 250 978 b 1224 251 250 978 1224 251 b 1224 978 1224 251 1224 978 b 1385 978 1224 978 1385 978 b 1385 0 1385 978 1385 0 z m 836 1049 b 636 1049 836 1049 636 1049 b 493 1260 636 1049 493 1260 b 646 1260 493 1260 646 1260 b 731 1119 646 1260 731 1119 b 744 1119 731 1119 744 1119 b 829 1260 744 1119 829 1260 b 981 1260 829 1260 981 1260 b 836 1049 981 1260 836 1049 z "},"ň":{"ha":1475,"x_min":0,"x_max":0,"o":"m 1385 0 b 1294 0 1385 0 1294 0 b 251 761 1294 0 251 761 b 251 0 251 761 251 0 b 90 0 251 0 90 0 b 90 978 90 0 90 978 b 250 978 90 978 250 978 b 1224 251 250 978 1224 251 b 1224 978 1224 251 1224 978 b 1385 978 1224 978 1385 978 b 1385 0 1385 978 1385 0 z m 836 1049 b 636 1049 836 1049 636 1049 b 493 1260 636 1049 493 1260 b 646 1260 493 1260 646 1260 b 731 1119 646 1260 731 1119 b 744 1119 731 1119 744 1119 b 829 1260 744 1119 829 1260 b 981 1260 829 1260 981 1260 b 836 1049 981 1260 836 1049 z "},"Ŋ":{"ha":1475,"x_min":0,"x_max":0,"o":"m 1079 -333 b 811 -333 1079 -333 811 -333 b 811 -189 811 -333 811 -189 b 1079 -189 811 -189 1079 -189 b 1224 -125 1164 -189 1224 -168 b 1224 51 1224 -125 1224 51 b 251 761 1224 51 251 761 b 251 0 251 761 251 0 b 90 0 251 0 90 0 b 90 978 90 0 90 978 b 250 978 90 978 250 978 b 1224 251 250 978 1224 251 b 1224 978 1224 251 1224 978 b 1385 978 1224 978 1385 978 b 1385 -125 1385 978 1385 -125 b 1079 -333 1385 -246 1296 -333 z "},"ŋ":{"ha":1475,"x_min":0,"x_max":0,"o":"m 1079 -333 b 811 -333 1079 -333 811 -333 b 811 -189 811 -333 811 -189 b 1079 -189 811 -189 1079 -189 b 1224 -125 1164 -189 1224 -168 b 1224 51 1224 -125 1224 51 b 251 761 1224 51 251 761 b 251 0 251 761 251 0 b 90 0 251 0 90 0 b 90 978 90 0 90 978 b 250 978 90 978 250 978 b 1224 251 250 978 1224 251 b 1224 978 1224 251 1224 978 b 1385 978 1224 978 1385 978 b 1385 -125 1385 978 1385 -125 b 1079 -333 1385 -246 1296 -333 z "},"Ō":{"ha":1426,"x_min":0,"x_max":0,"o":"m 1036 0 b 390 0 1036 0 390 0 b 83 236 168 0 83 96 b 83 742 83 236 83 742 b 390 978 83 882 168 978 b 1036 978 390 978 1036 978 b 1343 742 1258 978 1343 882 b 1343 236 1343 742 1343 236 b 1036 0 1343 96 1258 0 z m 1158 235 b 1158 743 1158 235 1158 743 b 1036 833 1158 801 1119 833 b 390 833 1036 833 390 833 b 268 743 307 833 268 801 b 268 235 268 743 268 235 b 390 144 268 176 307 144 b 1036 144 390 144 1036 144 b 1158 235 1119 144 1158 176 z m 940 1097 b 485 1097 940 1097 485 1097 b 485 1213 485 1097 485 1213 b 940 1213 485 1213 940 1213 b 940 1097 940 1213 940 1097 z "},"ō":{"ha":1426,"x_min":0,"x_max":0,"o":"m 1036 0 b 390 0 1036 0 390 0 b 83 236 168 0 83 96 b 83 742 83 236 83 742 b 390 978 83 882 168 978 b 1036 978 390 978 1036 978 b 1343 742 1258 978 1343 882 b 1343 236 1343 742 1343 236 b 1036 0 1343 96 1258 0 z m 1158 235 b 1158 743 1158 235 1158 743 b 1036 833 1158 801 1119 833 b 390 833 1036 833 390 833 b 268 743 307 833 268 801 b 268 235 268 743 268 235 b 390 144 268 176 307 144 b 1036 144 390 144 1036 144 b 1158 235 1119 144 1158 176 z m 940 1097 b 485 1097 940 1097 485 1097 b 485 1213 485 1097 485 1213 b 940 1213 485 1213 940 1213 b 940 1097 940 1213 940 1097 z "},"Ő":{"ha":1426,"x_min":0,"x_max":0,"o":"m 1036 0 b 390 0 1036 0 390 0 b 83 236 168 0 83 96 b 83 742 83 236 83 742 b 390 978 83 882 168 978 b 1036 978 390 978 1036 978 b 1343 742 1258 978 1343 882 b 1343 236 1343 742 1343 236 b 1036 0 1343 96 1258 0 z m 1158 235 b 1158 743 1158 235 1158 743 b 1036 833 1158 801 1119 833 b 390 833 1036 833 390 833 b 268 743 307 833 268 801 b 268 235 268 743 268 235 b 390 144 268 176 307 144 b 1036 144 390 144 1036 144 b 1158 235 1119 144 1158 176 z m 865 1063 b 750 1063 865 1063 750 1063 b 826 1260 750 1063 826 1260 b 1017 1260 826 1260 1017 1260 b 865 1063 1017 1260 865 1063 z m 586 1063 b 472 1063 586 1063 472 1063 b 546 1260 472 1063 546 1260 b 739 1260 546 1260 739 1260 b 586 1063 739 1260 586 1063 z "},"ő":{"ha":1426,"x_min":0,"x_max":0,"o":"m 1036 0 b 390 0 1036 0 390 0 b 83 236 168 0 83 96 b 83 742 83 236 83 742 b 390 978 83 882 168 978 b 1036 978 390 978 1036 978 b 1343 742 1258 978 1343 882 b 1343 236 1343 742 1343 236 b 1036 0 1343 96 1258 0 z m 1158 235 b 1158 743 1158 235 1158 743 b 1036 833 1158 801 1119 833 b 390 833 1036 833 390 833 b 268 743 307 833 268 801 b 268 235 268 743 268 235 b 390 144 268 176 307 144 b 1036 144 390 144 1036 144 b 1158 235 1119 144 1158 176 z m 865 1063 b 750 1063 865 1063 750 1063 b 826 1260 750 1063 826 1260 b 1017 1260 826 1260 1017 1260 b 865 1063 1017 1260 865 1063 z m 586 1063 b 472 1063 586 1063 472 1063 b 546 1260 472 1063 546 1260 b 739 1260 546 1260 739 1260 b 586 1063 739 1260 586 1063 z "},"Œ":{"ha":2022,"x_min":0,"x_max":0,"o":"m 1956 0 b 390 0 1956 0 390 0 b 83 236 168 0 83 96 b 83 742 83 236 83 742 b 390 978 83 882 168 978 b 1956 978 390 978 1956 978 b 1956 833 1956 978 1956 833 b 1135 833 1956 833 1135 833 b 1135 589 1135 833 1135 589 b 1914 589 1135 589 1914 589 b 1914 444 1914 589 1914 444 b 1135 444 1914 444 1135 444 b 1135 144 1135 444 1135 144 b 1956 144 1135 144 1956 144 b 1956 0 1956 144 1956 0 z m 950 144 b 950 833 950 144 950 833 b 390 833 950 833 390 833 b 268 743 307 833 268 801 b 268 235 268 743 268 235 b 390 144 268 176 307 144 b 950 144 390 144 950 144 z "},"œ":{"ha":2022,"x_min":0,"x_max":0,"o":"m 1956 0 b 390 0 1956 0 390 0 b 83 236 168 0 83 96 b 83 742 83 236 83 742 b 390 978 83 882 168 978 b 1956 978 390 978 1956 978 b 1956 833 1956 978 1956 833 b 1135 833 1956 833 1135 833 b 1135 589 1135 833 1135 589 b 1914 589 1135 589 1914 589 b 1914 444 1914 589 1914 444 b 1135 444 1914 444 1135 444 b 1135 144 1135 444 1135 144 b 1956 144 1135 144 1956 144 b 1956 0 1956 144 1956 0 z m 950 144 b 950 833 950 144 950 833 b 390 833 950 833 390 833 b 268 743 307 833 268 801 b 268 235 268 743 268 235 b 390 144 268 176 307 144 b 950 144 390 144 950 144 z "},"Ŕ":{"ha":1286,"x_min":0,"x_max":0,"o":"m 1217 0 b 1019 0 1217 0 1019 0 b 790 436 1019 0 790 436 b 275 436 790 436 275 436 b 275 0 275 436 275 0 b 90 0 275 0 90 0 b 90 978 90 0 90 978 b 921 978 90 978 921 978 b 1228 742 1143 978 1228 882 b 1228 672 1228 742 1228 672 b 986 439 1228 546 1160 456 b 1217 0 986 439 1217 0 z m 1043 671 b 1043 743 1043 671 1043 743 b 921 833 1043 801 1004 833 b 275 833 921 833 275 833 b 275 581 275 833 275 581 b 921 581 275 581 921 581 b 1043 671 1004 581 1043 613 z m 883 1103 b 429 1049 883 1103 429 1049 b 429 1164 429 1049 429 1164 b 883 1260 429 1164 883 1260 b 883 1103 883 1260 883 1103 z "},"ŕ":{"ha":1286,"x_min":0,"x_max":0,"o":"m 1217 0 b 1019 0 1217 0 1019 0 b 790 436 1019 0 790 436 b 275 436 790 436 275 436 b 275 0 275 436 275 0 b 90 0 275 0 90 0 b 90 978 90 0 90 978 b 921 978 90 978 921 978 b 1228 742 1143 978 1228 882 b 1228 672 1228 742 1228 672 b 986 439 1228 546 1160 456 b 1217 0 986 439 1217 0 z m 1043 671 b 1043 743 1043 671 1043 743 b 921 833 1043 801 1004 833 b 275 833 921 833 275 833 b 275 581 275 833 275 581 b 921 581 275 581 921 581 b 1043 671 1004 581 1043 613 z m 883 1103 b 429 1049 883 1103 429 1049 b 429 1164 429 1049 429 1164 b 883 1260 429 1164 883 1260 b 883 1103 883 1260 883 1103 z "},"Ŗ":{"ha":1286,"x_min":0,"x_max":0,"o":"m 1217 0 b 1019 0 1217 0 1019 0 b 790 436 1019 0 790 436 b 275 436 790 436 275 436 b 275 0 275 436 275 0 b 90 0 275 0 90 0 b 90 978 90 0 90 978 b 921 978 90 978 921 978 b 1228 742 1143 978 1228 882 b 1228 672 1228 742 1228 672 b 986 439 1228 546 1160 456 b 1217 0 986 439 1217 0 z m 1043 671 b 1043 743 1043 671 1043 743 b 921 833 1043 801 1004 833 b 275 833 921 833 275 833 b 275 581 275 833 275 581 b 921 581 275 581 921 581 b 1043 671 1004 581 1043 613 z m 621 -333 b 547 -333 621 -333 547 -333 b 547 -51 547 -333 547 -51 b 738 -51 547 -51 738 -51 b 738 -135 738 -51 738 -135 b 621 -333 738 -135 621 -333 z "},"ŗ":{"ha":1286,"x_min":0,"x_max":0,"o":"m 1217 0 b 1019 0 1217 0 1019 0 b 790 436 1019 0 790 436 b 275 436 790 436 275 436 b 275 0 275 436 275 0 b 90 0 275 0 90 0 b 90 978 90 0 90 978 b 921 978 90 978 921 978 b 1228 742 1143 978 1228 882 b 1228 672 1228 742 1228 672 b 986 439 1228 546 1160 456 b 1217 0 986 439 1217 0 z m 1043 671 b 1043 743 1043 671 1043 743 b 921 833 1043 801 1004 833 b 275 833 921 833 275 833 b 275 581 275 833 275 581 b 921 581 275 581 921 581 b 1043 671 1004 581 1043 613 z m 621 -333 b 547 -333 621 -333 547 -333 b 547 -51 547 -333 547 -51 b 738 -51 547 -51 738 -51 b 738 -135 738 -51 738 -135 b 621 -333 738 -135 621 -333 z "},"Ř":{"ha":1286,"x_min":0,"x_max":0,"o":"m 1217 0 b 1019 0 1217 0 1019 0 b 790 436 1019 0 790 436 b 275 436 790 436 275 436 b 275 0 275 436 275 0 b 90 0 275 0 90 0 b 90 978 90 0 90 978 b 921 978 90 978 921 978 b 1228 742 1143 978 1228 882 b 1228 672 1228 742 1228 672 b 986 439 1228 546 1160 456 b 1217 0 986 439 1217 0 z m 1043 671 b 1043 743 1043 671 1043 743 b 921 833 1043 801 1004 833 b 275 833 921 833 275 833 b 275 581 275 833 275 581 b 921 581 275 581 921 581 b 1043 671 1004 581 1043 613 z m 728 1049 b 528 1049 728 1049 528 1049 b 385 1260 528 1049 385 1260 b 538 1260 385 1260 538 1260 b 622 1119 538 1260 622 1119 b 636 1119 622 1119 636 1119 b 721 1260 636 1119 721 1260 b 872 1260 721 1260 872 1260 b 728 1049 872 1260 728 1049 z "},"ř":{"ha":1286,"x_min":0,"x_max":0,"o":"m 1217 0 b 1019 0 1217 0 1019 0 b 790 436 1019 0 790 436 b 275 436 790 436 275 436 b 275 0 275 436 275 0 b 90 0 275 0 90 0 b 90 978 90 0 90 978 b 921 978 90 978 921 978 b 1228 742 1143 978 1228 882 b 1228 672 1228 742 1228 672 b 986 439 1228 546 1160 456 b 1217 0 986 439 1217 0 z m 1043 671 b 1043 743 1043 671 1043 743 b 921 833 1043 801 1004 833 b 275 833 921 833 275 833 b 275 581 275 833 275 581 b 921 581 275 581 921 581 b 1043 671 1004 581 1043 613 z m 728 1049 b 528 1049 728 1049 528 1049 b 385 1260 528 1049 385 1260 b 538 1260 385 1260 538 1260 b 622 1119 538 1260 622 1119 b 636 1119 622 1119 636 1119 b 721 1260 636 1119 721 1260 b 872 1260 721 1260 872 1260 b 728 1049 872 1260 728 1049 z "},"Ś":{"ha":1321,"x_min":0,"x_max":0,"o":"m 953 0 b 103 0 953 0 103 0 b 103 144 103 0 103 144 b 953 144 103 144 953 144 b 1075 235 1036 144 1075 176 b 1075 358 1075 235 1075 358 b 953 449 1075 417 1036 449 b 378 449 953 449 378 449 b 71 685 156 449 71 544 b 71 742 71 685 71 742 b 378 978 71 882 156 978 b 1206 978 378 978 1206 978 b 1206 833 1206 978 1206 833 b 378 833 1206 833 378 833 b 256 743 294 833 256 801 b 256 683 256 743 256 683 b 378 593 256 625 294 593 b 953 593 378 593 953 593 b 1260 357 1175 593 1260 497 b 1260 236 1260 357 1260 236 b 953 0 1260 96 1175 0 z m 929 1103 b 475 1049 929 1103 475 1049 b 475 1164 475 1049 475 1164 b 929 1260 475 1164 929 1260 b 929 1103 929 1260 929 1103 z "},"ś":{"ha":1321,"x_min":0,"x_max":0,"o":"m 953 0 b 103 0 953 0 103 0 b 103 144 103 0 103 144 b 953 144 103 144 953 144 b 1075 235 1036 144 1075 176 b 1075 358 1075 235 1075 358 b 953 449 1075 417 1036 449 b 378 449 953 449 378 449 b 71 685 156 449 71 544 b 71 742 71 685 71 742 b 378 978 71 882 156 978 b 1206 978 378 978 1206 978 b 1206 833 1206 978 1206 833 b 378 833 1206 833 378 833 b 256 743 294 833 256 801 b 256 683 256 743 256 683 b 378 593 256 625 294 593 b 953 593 378 593 953 593 b 1260 357 1175 593 1260 497 b 1260 236 1260 357 1260 236 b 953 0 1260 96 1175 0 z m 929 1103 b 475 1049 929 1103 475 1049 b 475 1164 475 1049 475 1164 b 929 1260 475 1164 929 1260 b 929 1103 929 1260 929 1103 z "},"Ş":{"ha":1321,"x_min":0,"x_max":0,"o":"m 953 0 b 103 0 953 0 103 0 b 103 144 103 0 103 144 b 953 144 103 144 953 144 b 1075 235 1036 144 1075 176 b 1075 358 1075 235 1075 358 b 953 449 1075 417 1036 449 b 378 449 953 449 378 449 b 71 685 156 449 71 544 b 71 742 71 685 71 742 b 378 978 71 882 156 978 b 1206 978 378 978 1206 978 b 1206 833 1206 978 1206 833 b 378 833 1206 833 378 833 b 256 743 294 833 256 801 b 256 683 256 743 256 683 b 378 593 256 625 294 593 b 953 593 378 593 953 593 b 1260 357 1175 593 1260 497 b 1260 236 1260 357 1260 236 b 953 0 1260 96 1175 0 z m 639 -333 b 565 -333 639 -333 565 -333 b 565 -51 565 -333 565 -51 b 756 -51 565 -51 756 -51 b 756 -135 756 -51 756 -135 b 639 -333 756 -135 639 -333 z "},"ş":{"ha":1321,"x_min":0,"x_max":0,"o":"m 953 0 b 103 0 953 0 103 0 b 103 144 103 0 103 144 b 953 144 103 144 953 144 b 1075 235 1036 144 1075 176 b 1075 358 1075 235 1075 358 b 953 449 1075 417 1036 449 b 378 449 953 449 378 449 b 71 685 156 449 71 544 b 71 742 71 685 71 742 b 378 978 71 882 156 978 b 1206 978 378 978 1206 978 b 1206 833 1206 978 1206 833 b 378 833 1206 833 378 833 b 256 743 294 833 256 801 b 256 683 256 743 256 683 b 378 593 256 625 294 593 b 953 593 378 593 953 593 b 1260 357 1175 593 1260 497 b 1260 236 1260 357 1260 236 b 953 0 1260 96 1175 0 z m 639 -333 b 565 -333 639 -333 565 -333 b 565 -51 565 -333 565 -51 b 756 -51 565 -51 756 -51 b 756 -135 756 -51 756 -135 b 639 -333 756 -135 639 -333 z "},"Š":{"ha":1321,"x_min":0,"x_max":0,"o":"m 953 0 b 103 0 953 0 103 0 b 103 144 103 0 103 144 b 953 144 103 144 953 144 b 1075 235 1036 144 1075 176 b 1075 358 1075 235 1075 358 b 953 449 1075 417 1036 449 b 378 449 953 449 378 449 b 71 685 156 449 71 544 b 71 742 71 685 71 742 b 378 978 71 882 156 978 b 1206 978 378 978 1206 978 b 1206 833 1206 978 1206 833 b 378 833 1206 833 378 833 b 256 743 294 833 256 801 b 256 683 256 743 256 683 b 378 593 256 625 294 593 b 953 593 378 593 953 593 b 1260 357 1175 593 1260 497 b 1260 236 1260 357 1260 236 b 953 0 1260 96 1175 0 z m 774 1049 b 574 1049 774 1049 574 1049 b 431 1260 574 1049 431 1260 b 583 1260 431 1260 583 1260 b 668 1119 583 1260 668 1119 b 682 1119 668 1119 682 1119 b 767 1260 682 1119 767 1260 b 918 1260 767 1260 918 1260 b 774 1049 918 1260 774 1049 z "},"š":{"ha":1321,"x_min":0,"x_max":0,"o":"m 953 0 b 103 0 953 0 103 0 b 103 144 103 0 103 144 b 953 144 103 144 953 144 b 1075 235 1036 144 1075 176 b 1075 358 1075 235 1075 358 b 953 449 1075 417 1036 449 b 378 449 953 449 378 449 b 71 685 156 449 71 544 b 71 742 71 685 71 742 b 378 978 71 882 156 978 b 1206 978 378 978 1206 978 b 1206 833 1206 978 1206 833 b 378 833 1206 833 378 833 b 256 743 294 833 256 801 b 256 683 256 743 256 683 b 378 593 256 625 294 593 b 953 593 378 593 953 593 b 1260 357 1175 593 1260 497 b 1260 236 1260 357 1260 236 b 953 0 1260 96 1175 0 z m 774 1049 b 574 1049 774 1049 574 1049 b 431 1260 574 1049 431 1260 b 583 1260 431 1260 583 1260 b 668 1119 583 1260 668 1119 b 682 1119 668 1119 682 1119 b 767 1260 682 1119 767 1260 b 918 1260 767 1260 918 1260 b 774 1049 918 1260 774 1049 z "},"Ť":{"ha":1261,"x_min":0,"x_max":0,"o":"m 729 0 b 544 0 729 0 544 0 b 544 833 544 0 544 833 b 32 833 544 833 32 833 b 32 978 32 833 32 978 b 1228 978 32 978 1228 978 b 1228 833 1228 978 1228 833 b 729 833 1228 833 729 833 b 729 0 729 833 729 0 z m 729 1049 b 529 1049 729 1049 529 1049 b 386 1260 529 1049 386 1260 b 539 1260 386 1260 539 1260 b 624 1119 539 1260 624 1119 b 638 1119 624 1119 638 1119 b 722 1260 638 1119 722 1260 b 874 1260 722 1260 874 1260 b 729 1049 874 1260 729 1049 z "},"ť":{"ha":1261,"x_min":0,"x_max":0,"o":"m 729 0 b 544 0 729 0 544 0 b 544 833 544 0 544 833 b 32 833 544 833 32 833 b 32 978 32 833 32 978 b 1228 978 32 978 1228 978 b 1228 833 1228 978 1228 833 b 729 833 1228 833 729 833 b 729 0 729 833 729 0 z m 729 1049 b 529 1049 729 1049 529 1049 b 386 1260 529 1049 386 1260 b 539 1260 386 1260 539 1260 b 624 1119 539 1260 624 1119 b 638 1119 624 1119 638 1119 b 722 1260 638 1119 722 1260 b 874 1260 722 1260 874 1260 b 729 1049 874 1260 729 1049 z "},"Ŧ":{"ha":1261,"x_min":0,"x_max":0,"o":"m 729 0 b 544 0 729 0 544 0 b 544 363 544 0 544 363 b 315 363 544 363 315 363 b 315 517 315 363 315 517 b 544 517 315 517 544 517 b 544 833 544 517 544 833 b 32 833 544 833 32 833 b 32 978 32 833 32 978 b 1228 978 32 978 1228 978 b 1228 833 1228 978 1228 833 b 729 833 1228 833 729 833 b 729 517 729 833 729 517 b 946 517 729 517 946 517 b 946 363 946 517 946 363 b 729 363 946 363 729 363 b 729 0 729 363 729 0 z "},"ŧ":{"ha":1261,"x_min":0,"x_max":0,"o":"m 729 0 b 544 0 729 0 544 0 b 544 363 544 0 544 363 b 315 363 544 363 315 363 b 315 517 315 363 315 517 b 544 517 315 517 544 517 b 544 833 544 517 544 833 b 32 833 544 833 32 833 b 32 978 32 833 32 978 b 1228 978 32 978 1228 978 b 1228 833 1228 978 1228 833 b 729 833 1228 833 729 833 b 729 517 729 833 729 517 b 946 517 729 517 946 517 b 946 363 946 517 946 363 b 729 363 946 363 729 363 b 729 0 729 363 729 0 z "},"Ũ":{"ha":1393,"x_min":0,"x_max":0,"o":"m 1039 0 b 393 0 1039 0 393 0 b 86 236 171 0 86 96 b 86 978 86 236 86 978 b 271 978 86 978 271 978 b 271 235 271 978 271 235 b 393 144 271 176 310 144 b 1000 144 393 144 1000 144 b 1122 235 1083 144 1122 176 b 1122 978 1122 235 1122 978 b 1307 978 1122 978 1307 978 b 1307 236 1307 978 1307 236 b 1039 0 1307 96 1261 0 z m 924 1228 b 924 1114 924 1228 924 1114 b 807 1072 894 1083 853 1072 b 585 1129 729 1072 665 1129 b 468 1079 538 1129 493 1107 b 468 1194 468 1079 468 1194 b 585 1236 497 1224 539 1236 b 807 1178 665 1236 728 1178 b 924 1228 854 1178 897 1200 z "},"ũ":{"ha":1393,"x_min":0,"x_max":0,"o":"m 1039 0 b 393 0 1039 0 393 0 b 86 236 171 0 86 96 b 86 978 86 236 86 978 b 271 978 86 978 271 978 b 271 235 271 978 271 235 b 393 144 271 176 310 144 b 1000 144 393 144 1000 144 b 1122 235 1083 144 1122 176 b 1122 978 1122 235 1122 978 b 1307 978 1122 978 1307 978 b 1307 236 1307 978 1307 236 b 1039 0 1307 96 1261 0 z m 924 1228 b 924 1114 924 1228 924 1114 b 807 1072 894 1083 853 1072 b 585 1129 729 1072 665 1129 b 468 1079 538 1129 493 1107 b 468 1194 468 1079 468 1194 b 585 1236 497 1224 539 1236 b 807 1178 665 1236 728 1178 b 924 1228 854 1178 897 1200 z "},"Ū":{"ha":1393,"x_min":0,"x_max":0,"o":"m 1039 0 b 393 0 1039 0 393 0 b 86 236 171 0 86 96 b 86 978 86 236 86 978 b 271 978 86 978 271 978 b 271 235 271 978 271 235 b 393 144 271 176 310 144 b 1000 144 393 144 1000 144 b 1122 235 1083 144 1122 176 b 1122 978 1122 235 1122 978 b 1307 978 1122 978 1307 978 b 1307 236 1307 978 1307 236 b 1039 0 1307 96 1261 0 z m 924 1097 b 468 1097 924 1097 468 1097 b 468 1213 468 1097 468 1213 b 924 1213 468 1213 924 1213 b 924 1097 924 1213 924 1097 z "},"ū":{"ha":1393,"x_min":0,"x_max":0,"o":"m 1039 0 b 393 0 1039 0 393 0 b 86 236 171 0 86 96 b 86 978 86 236 86 978 b 271 978 86 978 271 978 b 271 235 271 978 271 235 b 393 144 271 176 310 144 b 1000 144 393 144 1000 144 b 1122 235 1083 144 1122 176 b 1122 978 1122 235 1122 978 b 1307 978 1122 978 1307 978 b 1307 236 1307 978 1307 236 b 1039 0 1307 96 1261 0 z m 924 1097 b 468 1097 924 1097 468 1097 b 468 1213 468 1097 468 1213 b 924 1213 468 1213 924 1213 b 924 1097 924 1213 924 1097 z "},"Ŭ":{"ha":1393,"x_min":0,"x_max":0,"o":"m 1039 0 b 393 0 1039 0 393 0 b 86 236 171 0 86 96 b 86 978 86 236 86 978 b 271 978 86 978 271 978 b 271 235 271 978 271 235 b 393 144 271 176 310 144 b 1000 144 393 144 1000 144 b 1122 235 1083 144 1122 176 b 1122 978 1122 235 1122 978 b 1307 978 1122 978 1307 978 b 1307 236 1307 978 1307 236 b 1039 0 1307 96 1261 0 z m 744 1049 b 650 1049 744 1049 650 1049 b 453 1260 504 1049 453 1188 b 606 1260 453 1260 606 1260 b 690 1133 606 1218 624 1133 b 713 1133 690 1133 713 1133 b 789 1260 772 1133 789 1218 b 940 1260 789 1260 940 1260 b 744 1049 940 1188 889 1049 z "},"ŭ":{"ha":1393,"x_min":0,"x_max":0,"o":"m 1039 0 b 393 0 1039 0 393 0 b 86 236 171 0 86 96 b 86 978 86 236 86 978 b 271 978 86 978 271 978 b 271 235 271 978 271 235 b 393 144 271 176 310 144 b 1000 144 393 144 1000 144 b 1122 235 1083 144 1122 176 b 1122 978 1122 235 1122 978 b 1307 978 1122 978 1307 978 b 1307 236 1307 978 1307 236 b 1039 0 1307 96 1261 0 z m 744 1049 b 650 1049 744 1049 650 1049 b 453 1260 504 1049 453 1188 b 606 1260 453 1260 606 1260 b 690 1133 606 1218 624 1133 b 713 1133 690 1133 713 1133 b 789 1260 772 1133 789 1218 b 940 1260 789 1260 940 1260 b 744 1049 940 1188 889 1049 z "},"Ů":{"ha":1393,"x_min":0,"x_max":0,"o":"m 1039 0 b 393 0 1039 0 393 0 b 86 236 171 0 86 96 b 86 978 86 236 86 978 b 271 978 86 978 271 978 b 271 235 271 978 271 235 b 393 144 271 176 310 144 b 1000 144 393 144 1000 144 b 1122 235 1083 144 1122 176 b 1122 978 1122 235 1122 978 b 1307 978 1122 978 1307 978 b 1307 236 1307 978 1307 236 b 1039 0 1307 96 1261 0 z m 811 1171 b 811 1206 811 1171 811 1206 b 767 1250 811 1235 796 1250 b 622 1250 767 1250 622 1250 b 579 1206 593 1250 579 1235 b 579 1171 579 1206 579 1171 b 622 1126 579 1142 593 1126 b 767 1126 622 1126 767 1126 b 811 1171 796 1126 811 1142 z m 917 1207 b 917 1169 917 1207 917 1169 b 757 1049 917 1089 864 1049 b 632 1049 757 1049 632 1049 b 475 1169 528 1049 475 1089 b 475 1207 475 1169 475 1207 b 632 1329 475 1289 528 1329 b 757 1329 632 1329 757 1329 b 917 1207 864 1329 917 1289 z "},"ů":{"ha":1393,"x_min":0,"x_max":0,"o":"m 1039 0 b 393 0 1039 0 393 0 b 86 236 171 0 86 96 b 86 978 86 236 86 978 b 271 978 86 978 271 978 b 271 235 271 978 271 235 b 393 144 271 176 310 144 b 1000 144 393 144 1000 144 b 1122 235 1083 144 1122 176 b 1122 978 1122 235 1122 978 b 1307 978 1122 978 1307 978 b 1307 236 1307 978 1307 236 b 1039 0 1307 96 1261 0 z m 811 1171 b 811 1206 811 1171 811 1206 b 767 1250 811 1235 796 1250 b 622 1250 767 1250 622 1250 b 579 1206 593 1250 579 1235 b 579 1171 579 1206 579 1171 b 622 1126 579 1142 593 1126 b 767 1126 622 1126 767 1126 b 811 1171 796 1126 811 1142 z m 917 1207 b 917 1169 917 1207 917 1169 b 757 1049 917 1089 864 1049 b 632 1049 757 1049 632 1049 b 475 1169 528 1049 475 1089 b 475 1207 475 1169 475 1207 b 632 1329 475 1289 528 1329 b 757 1329 632 1329 757 1329 b 917 1207 864 1329 917 1289 z "},"Ű":{"ha":1393,"x_min":0,"x_max":0,"o":"m 1039 0 b 393 0 1039 0 393 0 b 86 236 171 0 86 96 b 86 978 86 236 86 978 b 271 978 86 978 271 978 b 271 235 271 978 271 235 b 393 144 271 176 310 144 b 1000 144 393 144 1000 144 b 1122 235 1083 144 1122 176 b 1122 978 1122 235 1122 978 b 1307 978 1122 978 1307 978 b 1307 236 1307 978 1307 236 b 1039 0 1307 96 1261 0 z m 865 1063 b 750 1063 865 1063 750 1063 b 826 1260 750 1063 826 1260 b 1017 1260 826 1260 1017 1260 b 865 1063 1017 1260 865 1063 z m 586 1063 b 472 1063 586 1063 472 1063 b 546 1260 472 1063 546 1260 b 739 1260 546 1260 739 1260 b 586 1063 739 1260 586 1063 z "},"ű":{"ha":1393,"x_min":0,"x_max":0,"o":"m 1039 0 b 393 0 1039 0 393 0 b 86 236 171 0 86 96 b 86 978 86 236 86 978 b 271 978 86 978 271 978 b 271 235 271 978 271 235 b 393 144 271 176 310 144 b 1000 144 393 144 1000 144 b 1122 235 1083 144 1122 176 b 1122 978 1122 235 1122 978 b 1307 978 1122 978 1307 978 b 1307 236 1307 978 1307 236 b 1039 0 1307 96 1261 0 z m 865 1063 b 750 1063 865 1063 750 1063 b 826 1260 750 1063 826 1260 b 1017 1260 826 1260 1017 1260 b 865 1063 1017 1260 865 1063 z m 586 1063 b 472 1063 586 1063 472 1063 b 546 1260 472 1063 546 1260 b 739 1260 546 1260 739 1260 b 586 1063 739 1260 586 1063 z "},"Ų":{"ha":1393,"x_min":0,"x_max":0,"o":"m 847 -312 b 676 -312 847 -312 676 -312 b 546 -201 592 -312 546 -261 b 614 -81 546 -160 568 -114 b 724 0 614 -81 724 0 b 393 0 724 0 393 0 b 86 236 171 0 86 96 b 86 978 86 236 86 978 b 271 978 86 978 271 978 b 271 235 271 978 271 235 b 393 144 271 176 310 144 b 1000 144 393 144 1000 144 b 1122 235 1083 144 1122 176 b 1122 978 1122 235 1122 978 b 1307 978 1122 978 1307 978 b 1307 236 1307 978 1307 236 b 1039 0 1307 96 1261 0 b 847 0 1039 0 847 0 b 686 -117 847 0 686 -117 b 672 -144 676 -124 672 -135 b 700 -168 672 -157 681 -168 b 847 -168 700 -168 847 -168 b 847 -312 847 -168 847 -312 z "},"ų":{"ha":1393,"x_min":0,"x_max":0,"o":"m 847 -312 b 676 -312 847 -312 676 -312 b 546 -201 592 -312 546 -261 b 614 -81 546 -160 568 -114 b 724 0 614 -81 724 0 b 393 0 724 0 393 0 b 86 236 171 0 86 96 b 86 978 86 236 86 978 b 271 978 86 978 271 978 b 271 235 271 978 271 235 b 393 144 271 176 310 144 b 1000 144 393 144 1000 144 b 1122 235 1083 144 1122 176 b 1122 978 1122 235 1122 978 b 1307 978 1122 978 1307 978 b 1307 236 1307 978 1307 236 b 1039 0 1307 96 1261 0 b 847 0 1039 0 847 0 b 686 -117 847 0 686 -117 b 672 -144 676 -124 672 -135 b 700 -168 672 -157 681 -168 b 847 -168 700 -168 847 -168 b 847 -312 847 -168 847 -312 z "},"Ŵ":{"ha":1860,"x_min":0,"x_max":0,"o":"m 1408 0 b 1269 0 1408 0 1269 0 b 931 750 1269 0 931 750 b 585 0 931 750 585 0 b 450 0 585 0 450 0 b 0 978 450 0 0 978 b 178 978 0 978 178 978 b 518 228 178 978 518 228 b 861 978 518 228 861 978 b 999 978 861 978 999 978 b 1338 228 999 978 1338 228 b 1681 978 1338 228 1681 978 b 1860 978 1681 978 1860 978 b 1408 0 1860 978 1408 0 z m 1174 1049 b 1022 1049 1174 1049 1022 1049 b 936 1189 1022 1049 936 1189 b 922 1189 936 1189 922 1189 b 839 1049 922 1189 839 1049 b 686 1049 839 1049 686 1049 b 831 1260 686 1049 831 1260 b 1031 1260 831 1260 1031 1260 b 1174 1049 1031 1260 1174 1049 z "},"ŵ":{"ha":1860,"x_min":0,"x_max":0,"o":"m 1408 0 b 1269 0 1408 0 1269 0 b 931 750 1269 0 931 750 b 585 0 931 750 585 0 b 450 0 585 0 450 0 b 0 978 450 0 0 978 b 178 978 0 978 178 978 b 518 228 178 978 518 228 b 861 978 518 228 861 978 b 999 978 861 978 999 978 b 1338 228 999 978 1338 228 b 1681 978 1338 228 1681 978 b 1860 978 1681 978 1860 978 b 1408 0 1860 978 1408 0 z m 1174 1049 b 1022 1049 1174 1049 1022 1049 b 936 1189 1022 1049 936 1189 b 922 1189 936 1189 922 1189 b 839 1049 922 1189 839 1049 b 686 1049 839 1049 686 1049 b 831 1260 686 1049 831 1260 b 1031 1260 831 1260 1031 1260 b 1174 1049 1031 1260 1174 1049 z "},"Ŷ":{"ha":1436,"x_min":0,"x_max":0,"o":"m 813 0 b 628 0 813 0 628 0 b 628 397 628 0 628 397 b 0 978 628 397 0 978 b 236 978 0 978 236 978 b 719 531 236 978 719 531 b 1203 978 719 531 1203 978 b 1436 978 1203 978 1436 978 b 813 397 1436 978 813 397 b 813 0 813 397 813 0 z m 963 1049 b 811 1049 963 1049 811 1049 b 725 1189 811 1049 725 1189 b 711 1189 725 1189 711 1189 b 628 1049 711 1189 628 1049 b 475 1049 628 1049 475 1049 b 619 1260 475 1049 619 1260 b 819 1260 619 1260 819 1260 b 963 1049 819 1260 963 1049 z "},"ŷ":{"ha":1436,"x_min":0,"x_max":0,"o":"m 813 0 b 628 0 813 0 628 0 b 628 397 628 0 628 397 b 0 978 628 397 0 978 b 236 978 0 978 236 978 b 719 531 236 978 719 531 b 1203 978 719 531 1203 978 b 1436 978 1203 978 1436 978 b 813 397 1436 978 813 397 b 813 0 813 397 813 0 z m 963 1049 b 811 1049 963 1049 811 1049 b 725 1189 811 1049 725 1189 b 711 1189 725 1189 711 1189 b 628 1049 711 1189 628 1049 b 475 1049 628 1049 475 1049 b 619 1260 475 1049 619 1260 b 819 1260 619 1260 819 1260 b 963 1049 819 1260 963 1049 z "},"Ÿ":{"ha":1436,"x_min":0,"x_max":0,"o":"m 813 0 b 628 0 813 0 628 0 b 628 397 628 0 628 397 b 0 978 628 397 0 978 b 236 978 0 978 236 978 b 719 531 236 978 719 531 b 1203 978 719 531 1203 978 b 1436 978 1203 978 1436 978 b 813 397 1436 978 813 397 b 813 0 813 397 813 0 z m 624 1094 b 433 1094 624 1094 433 1094 b 433 1275 433 1094 433 1275 b 624 1275 433 1275 624 1275 b 624 1094 624 1275 624 1094 z m 1001 1094 b 811 1094 1001 1094 811 1094 b 811 1275 811 1094 811 1275 b 1001 1275 811 1275 1001 1275 b 1001 1094 1001 1275 1001 1094 z "},"Ź":{"ha":1432,"x_min":0,"x_max":0,"o":"m 1381 0 b 67 0 1381 0 67 0 b 67 125 67 0 67 125 b 1056 819 67 125 1056 819 b 67 819 1056 819 67 819 b 67 978 67 819 67 978 b 1381 978 67 978 1381 978 b 1381 853 1381 978 1381 853 b 388 158 1381 853 388 158 b 1381 158 388 158 1381 158 b 1381 0 1381 158 1381 0 z m 985 1103 b 531 1049 985 1103 531 1049 b 531 1164 531 1049 531 1164 b 985 1260 531 1164 985 1260 b 985 1103 985 1260 985 1103 z "},"ź":{"ha":1432,"x_min":0,"x_max":0,"o":"m 1381 0 b 67 0 1381 0 67 0 b 67 125 67 0 67 125 b 1056 819 67 125 1056 819 b 67 819 1056 819 67 819 b 67 978 67 819 67 978 b 1381 978 67 978 1381 978 b 1381 853 1381 978 1381 853 b 388 158 1381 853 388 158 b 1381 158 388 158 1381 158 b 1381 0 1381 158 1381 0 z m 985 1103 b 531 1049 985 1103 531 1049 b 531 1164 531 1049 531 1164 b 985 1260 531 1164 985 1260 b 985 1103 985 1260 985 1103 z "},"Ż":{"ha":1432,"x_min":0,"x_max":0,"o":"m 1381 0 b 67 0 1381 0 67 0 b 67 125 67 0 67 125 b 1056 819 67 125 1056 819 b 67 819 1056 819 67 819 b 67 978 67 819 67 978 b 1381 978 67 978 1381 978 b 1381 853 1381 978 1381 853 b 388 158 1381 853 388 158 b 1381 158 388 158 1381 158 b 1381 0 1381 158 1381 0 z m 811 1094 b 621 1094 811 1094 621 1094 b 621 1275 621 1094 621 1275 b 811 1275 621 1275 811 1275 b 811 1094 811 1275 811 1094 z "},"ż":{"ha":1432,"x_min":0,"x_max":0,"o":"m 1381 0 b 67 0 1381 0 67 0 b 67 125 67 0 67 125 b 1056 819 67 125 1056 819 b 67 819 1056 819 67 819 b 67 978 67 819 67 978 b 1381 978 67 978 1381 978 b 1381 853 1381 978 1381 853 b 388 158 1381 853 388 158 b 1381 158 388 158 1381 158 b 1381 0 1381 158 1381 0 z m 811 1094 b 621 1094 811 1094 621 1094 b 621 1275 621 1094 621 1275 b 811 1275 621 1275 811 1275 b 811 1094 811 1275 811 1094 z "},"Ž":{"ha":1432,"x_min":0,"x_max":0,"o":"m 1381 0 b 67 0 1381 0 67 0 b 67 125 67 0 67 125 b 1056 819 67 125 1056 819 b 67 819 1056 819 67 819 b 67 978 67 819 67 978 b 1381 978 67 978 1381 978 b 1381 853 1381 978 1381 853 b 388 158 1381 853 388 158 b 1381 158 388 158 1381 158 b 1381 0 1381 158 1381 0 z m 801 1049 b 601 1049 801 1049 601 1049 b 458 1260 601 1049 458 1260 b 611 1260 458 1260 611 1260 b 696 1119 611 1260 696 1119 b 710 1119 696 1119 710 1119 b 794 1260 710 1119 794 1260 b 946 1260 794 1260 946 1260 b 801 1049 946 1260 801 1049 z "},"ž":{"ha":1432,"x_min":0,"x_max":0,"o":"m 1381 0 b 67 0 1381 0 67 0 b 67 125 67 0 67 125 b 1056 819 67 125 1056 819 b 67 819 1056 819 67 819 b 67 978 67 819 67 978 b 1381 978 67 978 1381 978 b 1381 853 1381 978 1381 853 b 388 158 1381 853 388 158 b 1381 158 388 158 1381 158 b 1381 0 1381 158 1381 0 z m 801 1049 b 601 1049 801 1049 601 1049 b 458 1260 601 1049 458 1260 b 611 1260 458 1260 611 1260 b 696 1119 611 1260 696 1119 b 710 1119 696 1119 710 1119 b 794 1260 710 1119 794 1260 b 946 1260 794 1260 946 1260 b 801 1049 946 1260 801 1049 z "},"ƒ":{"ha":1447,"x_min":0,"x_max":0,"o":"m 1440 0 b 1242 0 1440 0 1242 0 b 1063 278 1242 0 1063 278 b 388 278 1063 278 388 278 b 208 0 388 278 208 0 b 10 0 208 0 10 0 b 660 978 10 0 660 978 b 794 978 660 978 794 978 b 1440 0 794 978 1440 0 z m 969 422 b 728 799 969 422 728 799 b 483 422 728 799 483 422 b 969 422 483 422 969 422 z "},"Ș":{"ha":1321,"x_min":0,"x_max":0,"o":"m 953 0 b 103 0 953 0 103 0 b 103 144 103 0 103 144 b 953 144 103 144 953 144 b 1075 235 1036 144 1075 176 b 1075 358 1075 235 1075 358 b 953 449 1075 417 1036 449 b 378 449 953 449 378 449 b 71 685 156 449 71 544 b 71 742 71 685 71 742 b 378 978 71 882 156 978 b 1206 978 378 978 1206 978 b 1206 833 1206 978 1206 833 b 378 833 1206 833 378 833 b 256 743 294 833 256 801 b 256 683 256 743 256 683 b 378 593 256 625 294 593 b 953 593 378 593 953 593 b 1260 357 1175 593 1260 497 b 1260 236 1260 357 1260 236 b 953 0 1260 96 1175 0 z m 639 -333 b 565 -333 639 -333 565 -333 b 565 -51 565 -333 565 -51 b 756 -51 565 -51 756 -51 b 756 -135 756 -51 756 -135 b 639 -333 756 -135 639 -333 z "},"ș":{"ha":1321,"x_min":0,"x_max":0,"o":"m 953 0 b 103 0 953 0 103 0 b 103 144 103 0 103 144 b 953 144 103 144 953 144 b 1075 235 1036 144 1075 176 b 1075 358 1075 235 1075 358 b 953 449 1075 417 1036 449 b 378 449 953 449 378 449 b 71 685 156 449 71 544 b 71 742 71 685 71 742 b 378 978 71 882 156 978 b 1206 978 378 978 1206 978 b 1206 833 1206 978 1206 833 b 378 833 1206 833 378 833 b 256 743 294 833 256 801 b 256 683 256 743 256 683 b 378 593 256 625 294 593 b 953 593 378 593 953 593 b 1260 357 1175 593 1260 497 b 1260 236 1260 357 1260 236 b 953 0 1260 96 1175 0 z m 639 -333 b 565 -333 639 -333 565 -333 b 565 -51 565 -333 565 -51 b 756 -51 565 -51 756 -51 b 756 -135 756 -51 756 -135 b 639 -333 756 -135 639 -333 z "},"Ț":{"ha":1261,"x_min":0,"x_max":0,"o":"m 729 0 b 544 0 729 0 544 0 b 544 833 544 0 544 833 b 32 833 544 833 32 833 b 32 978 32 833 32 978 b 1228 978 32 978 1228 978 b 1228 833 1228 978 1228 833 b 729 833 1228 833 729 833 b 729 0 729 833 729 0 z m 608 -333 b 535 -333 608 -333 535 -333 b 535 -51 535 -333 535 -51 b 725 -51 535 -51 725 -51 b 725 -135 725 -51 725 -135 b 608 -333 725 -135 608 -333 z "},"ț":{"ha":1261,"x_min":0,"x_max":0,"o":"m 729 0 b 544 0 729 0 544 0 b 544 833 544 0 544 833 b 32 833 544 833 32 833 b 32 978 32 833 32 978 b 1228 978 32 978 1228 978 b 1228 833 1228 978 1228 833 b 729 833 1228 833 729 833 b 729 0 729 833 729 0 z m 608 -333 b 535 -333 608 -333 535 -333 b 535 -51 535 -333 535 -51 b 725 -51 535 -51 725 -51 b 725 -135 725 -51 725 -135 b 608 -333 725 -135 608 -333 z "}}}
